<svg width="2486" height="1258" xmlns="http://www.w3.org/2000/svg" xmlns:xlink="http://www.w3.org/1999/xlink" xml:space="preserve" overflow="hidden"><g transform="translate(-154 -79)"><path d="M533 766C533 717.951 653.436 679 802 679 950.565 679 1071 717.951 1071 766 1071 814.049 950.565 853 802 853 653.436 853 533 814.049 533 766Z" stroke="#262626" stroke-width="5.72917" stroke-linejoin="round" stroke-miterlimit="10" fill="#7F7F7F" fill-rule="evenodd"/><g><g><g><path d="M846.833 289.646C846.833 314.406 826.761 334.479 802 334.479 777.239 334.479 757.167 314.406 757.167 289.646 757.167 264.885 777.239 244.812 802 244.812 826.761 244.812 846.833 264.885 846.833 289.646Z" stroke="#000000" stroke-width="5.60417" fill="#E0E0E0"/><path d="M924.171 520.537 892.788 387.158C891.667 382.675 889.425 378.192 886.063 374.829 872.613 363.621 856.921 355.775 838.988 350.171 826.659 347.929 814.329 345.687 802 345.687 789.671 345.687 777.342 347.929 765.013 351.292 747.079 355.775 731.388 364.742 717.938 375.95 714.575 379.312 712.333 383.796 711.213 388.279L679.829 521.658C679.829 522.779 678.708 525.021 678.708 527.262 678.708 539.592 688.796 549.679 701.125 549.679 711.213 549.679 720.179 541.833 722.421 532.867L745.958 435.354 745.958 749.187 790.792 749.187 790.792 547.437 813.208 547.437 813.208 749.187 858.042 749.187 858.042 434.233 881.579 531.746C883.821 540.712 892.788 548.558 902.875 548.558 915.204 548.558 925.292 538.471 925.292 526.142 925.292 523.9 924.171 521.658 924.171 520.537Z" stroke="#000000" stroke-width="5.60417" fill="#E0E0E0"/></g></g></g><path d="M157 1247C157 1198.95 277.212 1160 425.5 1160 573.788 1160 694 1198.95 694 1247 694 1295.05 573.788 1334 425.5 1334 277.212 1334 157 1295.05 157 1247Z" stroke="#262626" stroke-width="5.72917" stroke-linejoin="round" stroke-miterlimit="10" fill="#7F7F7F" fill-rule="evenodd"/><g><g><g><path d="M313.25 61.5312C313.25 86.246 293.215 106.281 268.5 106.281 243.785 106.281 223.75 86.246 223.75 61.5312 223.75 36.8165 243.785 16.7812 268.5 16.7812 293.215 16.7812 313.25 36.8165 313.25 61.5312Z" stroke="#000000" stroke-width="5.59375" transform="matrix(1 0 0 1 157 710)"/><path d="M390.444 291.994 359.119 158.862C358 154.387 355.762 149.912 352.406 146.556 338.981 135.369 323.319 127.537 305.419 121.944 293.112 119.706 280.806 117.469 268.5 117.469 256.194 117.469 243.887 119.706 231.581 123.062 213.681 127.537 198.019 136.487 184.594 147.675 181.237 151.031 179 155.506 177.881 159.981L146.556 293.112C146.556 294.231 145.437 296.469 145.437 298.706 145.437 311.012 155.506 321.081 167.812 321.081 177.881 321.081 186.831 313.25 189.069 304.3L212.562 206.969 212.562 520.219 257.312 520.219 257.312 318.844 279.687 318.844 279.687 520.219 324.437 520.219 324.437 205.85 347.931 303.181C350.169 312.131 359.119 319.962 369.187 319.962 381.494 319.962 391.562 309.894 391.562 297.587 391.562 295.35 390.444 293.112 390.444 291.994Z" stroke="#000000" stroke-width="5.59375" transform="matrix(1 0 0 1 157 710)"/></g></g></g><text font-family="MS PGothic,MS PGothic_MSFontService,sans-serif" font-weight="700" font-size="73" transform="matrix(1 0 0 1 363.262 655)">１位</text><path d="M804 1247C804 1198.95 924.435 1160 1073 1160 1221.56 1160 1342 1198.95 1342 1247 1342 1295.05 1221.56 1334 1073 1334 924.435 1334 804 1295.05 804 1247Z" stroke="#262626" stroke-width="5.72917" stroke-linejoin="round" stroke-miterlimit="10" fill="#7F7F7F" fill-rule="evenodd"/><g><g><g><path d="M313.25 61.5313C313.25 86.246 293.215 106.281 268.5 106.281 243.785 106.281 223.75 86.246 223.75 61.5313 223.75 36.8165 243.785 16.7813 268.5 16.7813 293.215 16.7813 313.25 36.8165 313.25 61.5313Z" stroke="#000000" stroke-width="5.59375" transform="matrix(1.00186 0 0 1 804 710)"/><path d="M390.444 291.994 359.119 158.863C358 154.388 355.763 149.913 352.406 146.556 338.981 135.369 323.319 127.538 305.419 121.944 293.113 119.706 280.806 117.469 268.5 117.469 256.194 117.469 243.888 119.706 231.581 123.063 213.681 127.538 198.019 136.488 184.594 147.675 181.238 151.031 179 155.506 177.881 159.981L146.556 293.113C146.556 294.231 145.438 296.469 145.438 298.706 145.438 311.013 155.506 321.081 167.813 321.081 177.881 321.081 186.831 313.25 189.069 304.3L212.563 206.969 212.563 520.219 257.313 520.219 257.313 318.844 279.688 318.844 279.688 520.219 324.438 520.219 324.438 205.85 347.931 303.181C350.169 312.131 359.119 319.963 369.188 319.963 381.494 319.963 391.563 309.894 391.563 297.588 391.563 295.35 390.444 293.113 390.444 291.994Z" stroke="#000000" stroke-width="5.59375" transform="matrix(1.00186 0 0 1 804 710)"/></g></g></g><text font-family="MS PGothic,MS PGothic_MSFontService,sans-serif" font-weight="700" font-size="73" transform="matrix(1 0 0 1 1010.71 655)">２位</text><path d="M1452 1247C1452 1198.95 1572.21 1160 1720.5 1160 1868.79 1160 1989 1198.95 1989 1247 1989 1295.05 1868.79 1334 1720.5 1334 1572.21 1334 1452 1295.05 1452 1247Z" stroke="#262626" stroke-width="5.72917" stroke-linejoin="round" stroke-miterlimit="10" fill="#7F7F7F" fill-rule="evenodd"/><g><g><g><path d="M313.25 61.5312C313.25 86.246 293.215 106.281 268.5 106.281 243.785 106.281 223.75 86.246 223.75 61.5312 223.75 36.8165 243.785 16.7812 268.5 16.7812 293.215 16.7812 313.25 36.8165 313.25 61.5312Z" stroke="#000000" stroke-width="5.59375" transform="matrix(1 0 0 1 1452 710)"/><path d="M390.444 291.994 359.119 158.862C358 154.387 355.762 149.912 352.406 146.556 338.981 135.369 323.319 127.537 305.419 121.944 293.112 119.706 280.806 117.469 268.5 117.469 256.194 117.469 243.887 119.706 231.581 123.062 213.681 127.537 198.019 136.487 184.594 147.675 181.237 151.031 179 155.506 177.881 159.981L146.556 293.112C146.556 294.231 145.437 296.469 145.437 298.706 145.437 311.012 155.506 321.081 167.812 321.081 177.881 321.081 186.831 313.25 189.069 304.3L212.562 206.969 212.562 520.219 257.312 520.219 257.312 318.844 279.687 318.844 279.687 520.219 324.437 520.219 324.437 205.85 347.931 303.181C350.169 312.131 359.119 319.962 369.187 319.962 381.494 319.962 391.562 309.894 391.562 297.587 391.562 295.35 390.444 293.112 390.444 291.994Z" stroke="#000000" stroke-width="5.59375" transform="matrix(1 0 0 1 1452 710)"/></g></g></g><text font-family="MS PGothic,MS PGothic_MSFontService,sans-serif" font-weight="700" font-size="73" transform="matrix(1 0 0 1 1658.16 655)">３位</text><path d="M2099 1247C2099 1198.95 2219.44 1160 2368 1160 2516.56 1160 2637 1198.95 2637 1247 2637 1295.05 2516.56 1334 2368 1334 2219.44 1334 2099 1295.05 2099 1247Z" stroke="#262626" stroke-width="5.72917" stroke-linejoin="round" stroke-miterlimit="10" fill="#7F7F7F" fill-rule="evenodd"/><g><g><g><path d="M313.25 61.5313C313.25 86.246 293.215 106.281 268.5 106.281 243.785 106.281 223.75 86.246 223.75 61.5313 223.75 36.8165 243.785 16.7813 268.5 16.7813 293.215 16.7813 313.25 36.8165 313.25 61.5313Z" stroke="#000000" stroke-width="5.59375" transform="matrix(1.00186 0 0 1 2099 710)"/><path d="M390.444 291.994 359.119 158.863C358 154.388 355.763 149.913 352.406 146.556 338.981 135.369 323.319 127.538 305.419 121.944 293.113 119.706 280.806 117.469 268.5 117.469 256.194 117.469 243.888 119.706 231.581 123.063 213.681 127.538 198.019 136.488 184.594 147.675 181.238 151.031 179 155.506 177.881 159.981L146.556 293.113C146.556 294.231 145.438 296.469 145.438 298.706 145.438 311.013 155.506 321.081 167.813 321.081 177.881 321.081 186.831 313.25 189.069 304.3L212.563 206.969 212.563 520.219 257.313 520.219 257.313 318.844 279.688 318.844 279.688 520.219 324.438 520.219 324.438 205.85 347.931 303.181C350.169 312.131 359.119 319.963 369.188 319.963 381.494 319.963 391.563 309.894 391.563 297.588 391.563 295.35 390.444 293.113 390.444 291.994Z" stroke="#000000" stroke-width="5.59375" transform="matrix(1.00186 0 0 1 2099 710)"/></g></g></g><text font-family="MS PGothic,MS PGothic_MSFontService,sans-serif" font-weight="700" font-size="73" transform="matrix(1 0 0 1 2305.61 655)">４</text><text font-family="MS PGothic,MS PGothic_MSFontService,sans-serif" font-weight="700" font-size="73" transform="matrix(1 0 0 1 2356.03 655)">位</text><text font-family="Cambria,Cambria_MSFontService,sans-serif" font-weight="700" font-size="83" transform="matrix(1 0 0 1 776.307 184)">α</text></g></svg>