<svg width="1479" height="907" xmlns="http://www.w3.org/2000/svg" xmlns:xlink="http://www.w3.org/1999/xlink" xml:space="preserve" overflow="hidden"><g transform="translate(-2101 -1439)"><path d="M2951 2126C2951 2077.95 3071.21 2039 3219.5 2039 3367.79 2039 3488 2077.95 3488 2126 3488 2174.05 3367.79 2213 3219.5 2213 3071.21 2213 2951 2174.05 2951 2126Z" stroke="#262626" stroke-width="5.72917" stroke-linejoin="round" stroke-miterlimit="10" fill="#7F7F7F" fill-rule="evenodd"/><g><g><g><path d="M3264.25 1650.53C3264.25 1675.25 3244.21 1695.28 3219.5 1695.28 3194.79 1695.28 3174.75 1675.25 3174.75 1650.53 3174.75 1625.82 3194.79 1605.78 3219.5 1605.78 3244.21 1605.78 3264.25 1625.82 3264.25 1650.53Z" stroke="#000000" stroke-width="5.59375"/><path d="M3341.44 1880.99 3310.12 1747.86C3309 1743.39 3306.76 1738.91 3303.41 1735.56 3289.98 1724.37 3274.32 1716.54 3256.42 1710.94 3244.11 1708.71 3231.81 1706.47 3219.5 1706.47 3207.19 1706.47 3194.89 1708.71 3182.58 1712.06 3164.68 1716.54 3149.02 1725.49 3135.59 1736.68 3132.24 1740.03 3130 1744.51 3128.88 1748.98L3097.56 1882.11C3097.56 1883.23 3096.44 1885.47 3096.44 1887.71 3096.44 1900.01 3106.51 1910.08 3118.81 1910.08 3128.88 1910.08 3137.83 1902.25 3140.07 1893.3L3163.56 1795.97 3163.56 2109.22 3208.31 2109.22 3208.31 1907.84 3230.69 1907.84 3230.69 2109.22 3275.44 2109.22 3275.44 1794.85 3298.93 1892.18C3301.17 1901.13 3310.12 1908.96 3320.19 1908.96 3332.49 1908.96 3342.56 1898.89 3342.56 1886.59 3342.56 1884.35 3341.44 1882.11 3341.44 1880.99Z" stroke="#000000" stroke-width="5.59375"/></g></g></g><g><g><g><path d="M3215.63 2144.5C3215.63 2148.97 3210.47 2153.09 3201.88 2156.19L3201.88 2143.81C3206.69 2142.44 3211.5 2140.38 3215.63 2138.31L3215.63 2144.5ZM3188.13 2121.81 3188.13 2109.44C3192.94 2108.06 3197.75 2106 3201.88 2103.94L3201.88 2110.12C3201.88 2114.59 3196.72 2118.72 3188.13 2121.81ZM3188.13 2160.31C3184 2161.34 3179.19 2162.03 3174.38 2162.72L3174.38 2149.31C3178.84 2148.62 3183.66 2147.94 3188.13 2147.25L3188.13 2160.31ZM3160.63 2114.94C3165.09 2114.25 3169.91 2113.56 3174.38 2112.88L3174.38 2125.94C3170.25 2126.97 3165.44 2127.66 3160.63 2128.34L3160.63 2114.94ZM3160.63 2164.44C3156.16 2164.78 3151.69 2165.12 3146.88 2165.12L3146.88 2151.38C3151 2151.38 3155.81 2151.03 3160.63 2150.69L3160.63 2164.44ZM3133.13 2130.75 3133.13 2117C3137.25 2117 3142.06 2116.66 3146.88 2116.31L3146.88 2130.06C3142.41 2130.41 3137.94 2130.41 3133.13 2130.75ZM3133.13 2165.12C3128.31 2165.12 3123.84 2164.78 3119.38 2164.44L3119.38 2151.38C3121.78 2151.38 3123.84 2151.38 3126.25 2151.38 3128.31 2151.38 3130.72 2151.38 3133.13 2151.38L3133.13 2165.12ZM3105.63 2116.31C3110.09 2116.66 3114.56 2117 3119.38 2117L3119.38 2130.75C3114.56 2130.75 3110.09 2130.41 3105.63 2130.06L3105.63 2116.31ZM3105.63 2162.72C3100.81 2162.03 3096 2161.34 3091.88 2160.31L3091.88 2149.31C3096.34 2150 3100.81 2150.34 3105.63 2150.69L3105.63 2162.72ZM3078.13 2125.94 3078.13 2112.53C3082.59 2113.22 3087.06 2114.25 3091.88 2114.59L3091.88 2128.34C3087.06 2127.66 3082.25 2126.97 3078.13 2125.94ZM3078.13 2156.19C3069.53 2152.75 3064.38 2148.62 3064.38 2144.5L3064.38 2143.81C3064.38 2143.81 3064.38 2143.81 3064.72 2143.81 3065.75 2144.16 3066.44 2144.5 3067.47 2144.5 3070.91 2145.53 3074.34 2146.22 3078.13 2146.91L3078.13 2156.19ZM3023.13 2109.44C3025.53 2109.44 3027.59 2109.78 3030 2109.78L3030 2110.12C3030 2114.94 3031.03 2119.75 3033.44 2123.53 3030 2123.53 3026.56 2123.19 3023.13 2122.84L3023.13 2109.44ZM3009.38 2068.19C3013.84 2068.88 3018.31 2069.91 3023.13 2070.25L3023.13 2084C3018.31 2083.31 3013.5 2082.62 3009.38 2081.59L3009.38 2068.19ZM3009.38 2121.47C3004.56 2120.78 2999.75 2120.09 2995.63 2119.06L2995.63 2105.66C3000.09 2106.34 3004.56 2107.38 3009.38 2107.72L3009.38 2121.47ZM2981.88 2065.44 2981.88 2059.25C2986 2061.31 2990.47 2063.03 2995.63 2064.41L2995.63 2077.12C2987.03 2074.03 2981.88 2069.91 2981.88 2065.44ZM2981.88 2114.94C2973.28 2111.5 2968.13 2107.38 2968.13 2103.25L2968.13 2097.06C2972.25 2099.12 2976.72 2100.84 2981.88 2102.22L2981.88 2114.94ZM2968.13 2007.69C2972.25 2009.75 2976.72 2011.47 2981.88 2012.84L2981.88 2025.56C2973.28 2022.13 2968.13 2018 2968.13 2013.88L2968.13 2007.69ZM3009.38 2018.69 3009.38 2032.44C3004.56 2031.75 2999.75 2031.06 2995.63 2030.03L2995.63 2016.63C3000.09 2017.31 3004.56 2018 3009.38 2018.69ZM3043.75 1958.88C3085.69 1958.88 3119.38 1968.16 3119.38 1979.5 3119.38 1990.84 3085.69 2000.13 3043.75 2000.13 3001.81 2000.13 2968.13 1990.84 2968.13 1979.5 2968.13 1968.16 3001.81 1958.88 3043.75 1958.88ZM3064.38 2121.81C3055.78 2118.38 3050.63 2114.25 3050.63 2110.12L3050.63 2103.94C3054.75 2106 3059.22 2107.72 3064.38 2109.09L3064.38 2121.81ZM3105.63 2025.56 3105.63 2013.19C3110.44 2011.81 3115.25 2009.75 3119.38 2007.69L3119.38 2013.88C3119.38 2018.34 3114.22 2022.47 3105.63 2025.56ZM3078.13 2032.09 3078.13 2018.69C3082.59 2018 3087.41 2017.31 3091.88 2016.63L3091.88 2029.69C3087.75 2030.72 3082.94 2031.41 3078.13 2032.09ZM3050.63 2034.5 3050.63 2020.75C3054.75 2020.75 3059.56 2020.41 3064.38 2020.06L3064.38 2033.81C3059.91 2034.16 3055.44 2034.16 3050.63 2034.5ZM3023.13 2033.81 3023.13 2020.06C3027.59 2020.41 3032.06 2020.75 3036.88 2020.75L3036.88 2034.5C3032.06 2034.16 3027.59 2034.16 3023.13 2033.81ZM3201.88 2075.75C3201.88 2087.09 3168.19 2096.38 3126.25 2096.38 3084.31 2096.38 3050.63 2087.09 3050.63 2075.75 3050.63 2064.41 3084.31 2055.12 3126.25 2055.12 3168.19 2055.12 3201.88 2064.41 3201.88 2075.75ZM3222.5 2086.06 3222.5 2075.75C3222.5 2059.59 3209.78 2047.91 3185.03 2041.38 3175.75 2038.97 3165.09 2036.91 3153.06 2035.88 3153.41 2034.5 3153.41 2032.78 3153.41 2031.06 3153.41 2021.44 3148.94 2013.19 3139.66 2007L3139.66 1979.5C3139.66 1963.34 3126.94 1951.66 3102.19 1945.13 3086.03 1940.66 3065.41 1938.25 3043.41 1938.25 3014.53 1938.25 2947.16 1942.38 2947.16 1979.5L2947.16 2013.88C2947.16 2023.5 2951.63 2031.75 2960.91 2037.94L2960.91 2044.47C2952.66 2050.31 2947.16 2058.22 2947.16 2068.88L2947.16 2103.25C2947.16 2119.41 2959.88 2131.09 2984.63 2137.62 3000.78 2142.09 3021.41 2144.5 3043.41 2144.5 3043.41 2160.66 3056.13 2172.34 3080.88 2178.88 3097.03 2183.34 3117.66 2185.75 3139.66 2185.75 3168.53 2185.75 3235.91 2181.62 3235.91 2144.5L3235.91 2110.12C3236.25 2100.5 3231.78 2092.25 3222.5 2086.06Z" stroke="#FFFFFF" stroke-width="3.4375" fill="#404040"/></g></g></g><path d="M2104 2126C2104 2077.95 2224.21 2039 2372.5 2039 2520.79 2039 2641 2077.95 2641 2126 2641 2174.05 2520.79 2213 2372.5 2213 2224.21 2213 2104 2174.05 2104 2126Z" stroke="#262626" stroke-width="5.72917" stroke-linejoin="round" stroke-miterlimit="10" fill="#7F7F7F" fill-rule="evenodd"/><g><g><g><path d="M2417.25 1650.53C2417.25 1675.25 2397.21 1695.28 2372.5 1695.28 2347.79 1695.28 2327.75 1675.25 2327.75 1650.53 2327.75 1625.82 2347.79 1605.78 2372.5 1605.78 2397.21 1605.78 2417.25 1625.82 2417.25 1650.53Z" stroke="#000000" stroke-width="5.59375" fill="#E0E0E0"/><path d="M2494.44 1880.99 2463.12 1747.86C2462 1743.39 2459.76 1738.91 2456.41 1735.56 2442.98 1724.37 2427.32 1716.54 2409.42 1710.94 2397.11 1708.71 2384.81 1706.47 2372.5 1706.47 2360.19 1706.47 2347.89 1708.71 2335.58 1712.06 2317.68 1716.54 2302.02 1725.49 2288.59 1736.68 2285.24 1740.03 2283 1744.51 2281.88 1748.98L2250.56 1882.11C2250.56 1883.23 2249.44 1885.47 2249.44 1887.71 2249.44 1900.01 2259.51 1910.08 2271.81 1910.08 2281.88 1910.08 2290.83 1902.25 2293.07 1893.3L2316.56 1795.97 2316.56 2109.22 2361.31 2109.22 2361.31 1907.84 2383.69 1907.84 2383.69 2109.22 2428.44 2109.22 2428.44 1794.85 2451.93 1892.18C2454.17 1901.13 2463.12 1908.96 2473.19 1908.96 2485.49 1908.96 2495.56 1898.89 2495.56 1886.59 2495.56 1884.35 2494.44 1882.11 2494.44 1880.99Z" stroke="#000000" stroke-width="5.59375" fill="#E0E0E0"/></g></g></g><text font-family="Cambria,Cambria_MSFontService,sans-serif" font-weight="700" font-size="73" transform="matrix(1 0 0 1 2350.04 1533)">α</text><g><g><g><path d="M2486.62 2131.5C2486.62 2135.97 2481.47 2140.09 2472.88 2143.19L2472.88 2130.81C2477.69 2129.44 2482.5 2127.38 2486.62 2125.31L2486.62 2131.5ZM2459.12 2108.81 2459.12 2096.44C2463.94 2095.06 2468.75 2093 2472.88 2090.94L2472.88 2097.12C2472.88 2101.59 2467.72 2105.72 2459.12 2108.81ZM2459.12 2147.31C2455 2148.34 2450.19 2149.03 2445.38 2149.72L2445.38 2136.31C2449.84 2135.62 2454.66 2134.94 2459.12 2134.25L2459.12 2147.31ZM2431.62 2101.94C2436.09 2101.25 2440.91 2100.56 2445.38 2099.88L2445.38 2112.94C2441.25 2113.97 2436.44 2114.66 2431.62 2115.34L2431.62 2101.94ZM2431.62 2151.44C2427.16 2151.78 2422.69 2152.12 2417.88 2152.12L2417.88 2138.38C2422 2138.38 2426.81 2138.03 2431.62 2137.69L2431.62 2151.44ZM2404.12 2117.75 2404.12 2104C2408.25 2104 2413.06 2103.66 2417.88 2103.31L2417.88 2117.06C2413.41 2117.41 2408.94 2117.41 2404.12 2117.75ZM2404.12 2152.12C2399.31 2152.12 2394.84 2151.78 2390.38 2151.44L2390.38 2138.38C2392.78 2138.38 2394.84 2138.38 2397.25 2138.38 2399.31 2138.38 2401.72 2138.38 2404.12 2138.38L2404.12 2152.12ZM2376.62 2103.31C2381.09 2103.66 2385.56 2104 2390.38 2104L2390.38 2117.75C2385.56 2117.75 2381.09 2117.41 2376.62 2117.06L2376.62 2103.31ZM2376.62 2149.72C2371.81 2149.03 2367 2148.34 2362.88 2147.31L2362.88 2136.31C2367.34 2137 2371.81 2137.34 2376.62 2137.69L2376.62 2149.72ZM2349.12 2112.94 2349.12 2099.53C2353.59 2100.22 2358.06 2101.25 2362.88 2101.59L2362.88 2115.34C2358.06 2114.66 2353.25 2113.97 2349.12 2112.94ZM2349.12 2143.19C2340.53 2139.75 2335.38 2135.62 2335.38 2131.5L2335.38 2130.81C2335.38 2130.81 2335.38 2130.81 2335.72 2130.81 2336.75 2131.16 2337.44 2131.5 2338.47 2131.5 2341.91 2132.53 2345.34 2133.22 2349.12 2133.91L2349.12 2143.19ZM2294.12 2096.44C2296.53 2096.44 2298.59 2096.78 2301 2096.78L2301 2097.12C2301 2101.94 2302.03 2106.75 2304.44 2110.53 2301 2110.53 2297.56 2110.19 2294.12 2109.84L2294.12 2096.44ZM2280.38 2055.19C2284.84 2055.88 2289.31 2056.91 2294.12 2057.25L2294.12 2071C2289.31 2070.31 2284.5 2069.62 2280.38 2068.59L2280.38 2055.19ZM2280.38 2108.47C2275.56 2107.78 2270.75 2107.09 2266.62 2106.06L2266.62 2092.66C2271.09 2093.34 2275.56 2094.38 2280.38 2094.72L2280.38 2108.47ZM2252.88 2052.44 2252.88 2046.25C2257 2048.31 2261.47 2050.03 2266.62 2051.41L2266.62 2064.12C2258.03 2061.03 2252.88 2056.91 2252.88 2052.44ZM2252.88 2101.94C2244.28 2098.5 2239.12 2094.38 2239.12 2090.25L2239.12 2084.06C2243.25 2086.12 2247.72 2087.84 2252.88 2089.22L2252.88 2101.94ZM2239.12 1994.69C2243.25 1996.75 2247.72 1998.47 2252.88 1999.84L2252.88 2012.56C2244.28 2009.13 2239.12 2005 2239.12 2000.88L2239.12 1994.69ZM2280.38 2005.69 2280.38 2019.44C2275.56 2018.75 2270.75 2018.06 2266.62 2017.03L2266.62 2003.63C2271.09 2004.31 2275.56 2005 2280.38 2005.69ZM2314.75 1945.88C2356.69 1945.88 2390.38 1955.16 2390.38 1966.5 2390.38 1977.84 2356.69 1987.13 2314.75 1987.13 2272.81 1987.13 2239.12 1977.84 2239.12 1966.5 2239.12 1955.16 2272.81 1945.88 2314.75 1945.88ZM2335.38 2108.81C2326.78 2105.38 2321.62 2101.25 2321.62 2097.12L2321.62 2090.94C2325.75 2093 2330.22 2094.72 2335.38 2096.09L2335.38 2108.81ZM2376.62 2012.56 2376.62 2000.19C2381.44 1998.81 2386.25 1996.75 2390.38 1994.69L2390.38 2000.88C2390.38 2005.34 2385.22 2009.47 2376.62 2012.56ZM2349.12 2019.09 2349.12 2005.69C2353.59 2005 2358.41 2004.31 2362.88 2003.63L2362.88 2016.69C2358.75 2017.72 2353.94 2018.41 2349.12 2019.09ZM2321.62 2021.5 2321.62 2007.75C2325.75 2007.75 2330.56 2007.41 2335.38 2007.06L2335.38 2020.81C2330.91 2021.16 2326.44 2021.16 2321.62 2021.5ZM2294.12 2020.81 2294.12 2007.06C2298.59 2007.41 2303.06 2007.75 2307.88 2007.75L2307.88 2021.5C2303.06 2021.16 2298.59 2021.16 2294.12 2020.81ZM2472.88 2062.75C2472.88 2074.09 2439.19 2083.38 2397.25 2083.38 2355.31 2083.38 2321.62 2074.09 2321.62 2062.75 2321.62 2051.41 2355.31 2042.13 2397.25 2042.13 2439.19 2042.13 2472.88 2051.41 2472.88 2062.75ZM2493.5 2073.06 2493.5 2062.75C2493.5 2046.59 2480.78 2034.91 2456.03 2028.38 2446.75 2025.97 2436.09 2023.91 2424.06 2022.88 2424.41 2021.5 2424.41 2019.78 2424.41 2018.06 2424.41 2008.44 2419.94 2000.19 2410.66 1994L2410.66 1966.5C2410.66 1950.34 2397.94 1938.66 2373.19 1932.13 2357.03 1927.66 2336.41 1925.25 2314.41 1925.25 2285.53 1925.25 2218.16 1929.38 2218.16 1966.5L2218.16 2000.88C2218.16 2010.5 2222.62 2018.75 2231.91 2024.94L2231.91 2031.47C2223.66 2037.31 2218.16 2045.22 2218.16 2055.88L2218.16 2090.25C2218.16 2106.41 2230.88 2118.09 2255.62 2124.62 2271.78 2129.09 2292.41 2131.5 2314.41 2131.5 2314.41 2147.66 2327.12 2159.34 2351.88 2165.88 2368.03 2170.34 2388.66 2172.75 2410.66 2172.75 2439.53 2172.75 2506.91 2168.62 2506.91 2131.5L2506.91 2097.12C2507.25 2087.5 2502.78 2079.25 2493.5 2073.06Z" stroke="#FFFFFF" stroke-width="3.4375" fill="#404040"/></g></g></g><g><g><g><path d="M2399.62 2221.5C2399.62 2225.97 2394.47 2230.09 2385.88 2233.19L2385.88 2220.81C2390.69 2219.44 2395.5 2217.38 2399.62 2215.31L2399.62 2221.5ZM2372.12 2198.81 2372.12 2186.44C2376.94 2185.06 2381.75 2183 2385.88 2180.94L2385.88 2187.12C2385.88 2191.59 2380.72 2195.72 2372.12 2198.81ZM2372.12 2237.31C2368 2238.34 2363.19 2239.03 2358.38 2239.72L2358.38 2226.31C2362.84 2225.62 2367.66 2224.94 2372.12 2224.25L2372.12 2237.31ZM2344.62 2191.94C2349.09 2191.25 2353.91 2190.56 2358.38 2189.88L2358.38 2202.94C2354.25 2203.97 2349.44 2204.66 2344.62 2205.34L2344.62 2191.94ZM2344.62 2241.44C2340.16 2241.78 2335.69 2242.12 2330.88 2242.12L2330.88 2228.38C2335 2228.38 2339.81 2228.03 2344.62 2227.69L2344.62 2241.44ZM2317.12 2207.75 2317.12 2194C2321.25 2194 2326.06 2193.66 2330.88 2193.31L2330.88 2207.06C2326.41 2207.41 2321.94 2207.41 2317.12 2207.75ZM2317.12 2242.12C2312.31 2242.12 2307.84 2241.78 2303.38 2241.44L2303.38 2228.38C2305.78 2228.38 2307.84 2228.38 2310.25 2228.38 2312.31 2228.38 2314.72 2228.38 2317.12 2228.38L2317.12 2242.12ZM2289.62 2193.31C2294.09 2193.66 2298.56 2194 2303.38 2194L2303.38 2207.75C2298.56 2207.75 2294.09 2207.41 2289.62 2207.06L2289.62 2193.31ZM2289.62 2239.72C2284.81 2239.03 2280 2238.34 2275.88 2237.31L2275.88 2226.31C2280.34 2227 2284.81 2227.34 2289.62 2227.69L2289.62 2239.72ZM2262.12 2202.94 2262.12 2189.53C2266.59 2190.22 2271.06 2191.25 2275.88 2191.59L2275.88 2205.34C2271.06 2204.66 2266.25 2203.97 2262.12 2202.94ZM2262.12 2233.19C2253.53 2229.75 2248.38 2225.62 2248.38 2221.5L2248.38 2220.81C2248.38 2220.81 2248.38 2220.81 2248.72 2220.81 2249.75 2221.16 2250.44 2221.5 2251.47 2221.5 2254.91 2222.53 2258.34 2223.22 2262.12 2223.91L2262.12 2233.19ZM2207.12 2186.44C2209.53 2186.44 2211.59 2186.78 2214 2186.78L2214 2187.12C2214 2191.94 2215.03 2196.75 2217.44 2200.53 2214 2200.53 2210.56 2200.19 2207.12 2199.84L2207.12 2186.44ZM2193.38 2145.19C2197.84 2145.88 2202.31 2146.91 2207.12 2147.25L2207.12 2161C2202.31 2160.31 2197.5 2159.62 2193.38 2158.59L2193.38 2145.19ZM2193.38 2198.47C2188.56 2197.78 2183.75 2197.09 2179.62 2196.06L2179.62 2182.66C2184.09 2183.34 2188.56 2184.38 2193.38 2184.72L2193.38 2198.47ZM2165.88 2142.44 2165.88 2136.25C2170 2138.31 2174.47 2140.03 2179.62 2141.41L2179.62 2154.12C2171.03 2151.03 2165.88 2146.91 2165.88 2142.44ZM2165.88 2191.94C2157.28 2188.5 2152.12 2184.38 2152.12 2180.25L2152.12 2174.06C2156.25 2176.12 2160.72 2177.84 2165.88 2179.22L2165.88 2191.94ZM2152.12 2084.69C2156.25 2086.75 2160.72 2088.47 2165.88 2089.84L2165.88 2102.56C2157.28 2099.13 2152.12 2095 2152.12 2090.88L2152.12 2084.69ZM2193.38 2095.69 2193.38 2109.44C2188.56 2108.75 2183.75 2108.06 2179.62 2107.03L2179.62 2093.62C2184.09 2094.31 2188.56 2095 2193.38 2095.69ZM2227.75 2035.88C2269.69 2035.88 2303.38 2045.16 2303.38 2056.5 2303.38 2067.84 2269.69 2077.12 2227.75 2077.12 2185.81 2077.12 2152.12 2067.84 2152.12 2056.5 2152.12 2045.16 2185.81 2035.88 2227.75 2035.88ZM2248.38 2198.81C2239.78 2195.38 2234.62 2191.25 2234.62 2187.12L2234.62 2180.94C2238.75 2183 2243.22 2184.72 2248.38 2186.09L2248.38 2198.81ZM2289.62 2102.56 2289.62 2090.19C2294.44 2088.81 2299.25 2086.75 2303.38 2084.69L2303.38 2090.88C2303.38 2095.34 2298.22 2099.47 2289.62 2102.56ZM2262.12 2109.09 2262.12 2095.69C2266.59 2095 2271.41 2094.31 2275.88 2093.62L2275.88 2106.69C2271.75 2107.72 2266.94 2108.41 2262.12 2109.09ZM2234.62 2111.5 2234.62 2097.75C2238.75 2097.75 2243.56 2097.41 2248.38 2097.06L2248.38 2110.81C2243.91 2111.16 2239.44 2111.16 2234.62 2111.5ZM2207.12 2110.81 2207.12 2097.06C2211.59 2097.41 2216.06 2097.75 2220.88 2097.75L2220.88 2111.5C2216.06 2111.16 2211.59 2111.16 2207.12 2110.81ZM2385.88 2152.75C2385.88 2164.09 2352.19 2173.38 2310.25 2173.38 2268.31 2173.38 2234.62 2164.09 2234.62 2152.75 2234.62 2141.41 2268.31 2132.12 2310.25 2132.12 2352.19 2132.12 2385.88 2141.41 2385.88 2152.75ZM2406.5 2163.06 2406.5 2152.75C2406.5 2136.59 2393.78 2124.91 2369.03 2118.38 2359.75 2115.97 2349.09 2113.91 2337.06 2112.88 2337.41 2111.5 2337.41 2109.78 2337.41 2108.06 2337.41 2098.44 2332.94 2090.19 2323.66 2084L2323.66 2056.5C2323.66 2040.34 2310.94 2028.66 2286.19 2022.13 2270.03 2017.66 2249.41 2015.25 2227.41 2015.25 2198.53 2015.25 2131.16 2019.38 2131.16 2056.5L2131.16 2090.88C2131.16 2100.5 2135.62 2108.75 2144.91 2114.94L2144.91 2121.47C2136.66 2127.31 2131.16 2135.22 2131.16 2145.88L2131.16 2180.25C2131.16 2196.41 2143.88 2208.09 2168.62 2214.62 2184.78 2219.09 2205.41 2221.5 2227.41 2221.5 2227.41 2237.66 2240.12 2249.34 2264.88 2255.88 2281.03 2260.34 2301.66 2262.75 2323.66 2262.75 2352.53 2262.75 2419.91 2258.62 2419.91 2221.5L2419.91 2187.12C2420.25 2177.5 2415.78 2169.25 2406.5 2163.06Z" stroke="#FFFFFF" stroke-width="3.4375" fill="#404040"/></g></g></g><g><g><g><path d="M2702.62 2137.5C2702.62 2141.97 2697.47 2146.09 2688.88 2149.19L2688.88 2136.81C2693.69 2135.44 2698.5 2133.38 2702.62 2131.31L2702.62 2137.5ZM2675.12 2114.81 2675.12 2102.44C2679.94 2101.06 2684.75 2099 2688.88 2096.94L2688.88 2103.12C2688.88 2107.59 2683.72 2111.72 2675.12 2114.81ZM2675.12 2153.31C2671 2154.34 2666.19 2155.03 2661.38 2155.72L2661.38 2142.31C2665.84 2141.62 2670.66 2140.94 2675.12 2140.25L2675.12 2153.31ZM2647.62 2107.94C2652.09 2107.25 2656.91 2106.56 2661.38 2105.88L2661.38 2118.94C2657.25 2119.97 2652.44 2120.66 2647.62 2121.34L2647.62 2107.94ZM2647.62 2157.44C2643.16 2157.78 2638.69 2158.12 2633.88 2158.12L2633.88 2144.38C2638 2144.38 2642.81 2144.03 2647.62 2143.69L2647.62 2157.44ZM2620.12 2123.75 2620.12 2110C2624.25 2110 2629.06 2109.66 2633.88 2109.31L2633.88 2123.06C2629.41 2123.41 2624.94 2123.41 2620.12 2123.75ZM2620.12 2158.12C2615.31 2158.12 2610.84 2157.78 2606.38 2157.44L2606.38 2144.38C2608.78 2144.38 2610.84 2144.38 2613.25 2144.38 2615.31 2144.38 2617.72 2144.38 2620.12 2144.38L2620.12 2158.12ZM2592.62 2109.31C2597.09 2109.66 2601.56 2110 2606.38 2110L2606.38 2123.75C2601.56 2123.75 2597.09 2123.41 2592.62 2123.06L2592.62 2109.31ZM2592.62 2155.72C2587.81 2155.03 2583 2154.34 2578.88 2153.31L2578.88 2142.31C2583.34 2143 2587.81 2143.34 2592.62 2143.69L2592.62 2155.72ZM2565.12 2118.94 2565.12 2105.53C2569.59 2106.22 2574.06 2107.25 2578.88 2107.59L2578.88 2121.34C2574.06 2120.66 2569.25 2119.97 2565.12 2118.94ZM2565.12 2149.19C2556.53 2145.75 2551.38 2141.62 2551.38 2137.5L2551.38 2136.81C2551.38 2136.81 2551.38 2136.81 2551.72 2136.81 2552.75 2137.16 2553.44 2137.5 2554.47 2137.5 2557.91 2138.53 2561.34 2139.22 2565.12 2139.91L2565.12 2149.19ZM2510.12 2102.44C2512.53 2102.44 2514.59 2102.78 2517 2102.78L2517 2103.12C2517 2107.94 2518.03 2112.75 2520.44 2116.53 2517 2116.53 2513.56 2116.19 2510.12 2115.84L2510.12 2102.44ZM2496.38 2061.19C2500.84 2061.88 2505.31 2062.91 2510.12 2063.25L2510.12 2077C2505.31 2076.31 2500.5 2075.62 2496.38 2074.59L2496.38 2061.19ZM2496.38 2114.47C2491.56 2113.78 2486.75 2113.09 2482.62 2112.06L2482.62 2098.66C2487.09 2099.34 2491.56 2100.38 2496.38 2100.72L2496.38 2114.47ZM2468.88 2058.44 2468.88 2052.25C2473 2054.31 2477.47 2056.03 2482.62 2057.41L2482.62 2070.12C2474.03 2067.03 2468.88 2062.91 2468.88 2058.44ZM2468.88 2107.94C2460.28 2104.5 2455.12 2100.38 2455.12 2096.25L2455.12 2090.06C2459.25 2092.12 2463.72 2093.84 2468.88 2095.22L2468.88 2107.94ZM2455.12 2000.69C2459.25 2002.75 2463.72 2004.47 2468.88 2005.84L2468.88 2018.56C2460.28 2015.12 2455.12 2011 2455.12 2006.87L2455.12 2000.69ZM2496.38 2011.69 2496.38 2025.44C2491.56 2024.75 2486.75 2024.06 2482.62 2023.03L2482.62 2009.62C2487.09 2010.31 2491.56 2011 2496.38 2011.69ZM2530.75 1951.87C2572.69 1951.87 2606.38 1961.16 2606.38 1972.5 2606.38 1983.84 2572.69 1993.12 2530.75 1993.12 2488.81 1993.12 2455.12 1983.84 2455.12 1972.5 2455.12 1961.16 2488.81 1951.87 2530.75 1951.87ZM2551.38 2114.81C2542.78 2111.38 2537.62 2107.25 2537.62 2103.12L2537.62 2096.94C2541.75 2099 2546.22 2100.72 2551.38 2102.09L2551.38 2114.81ZM2592.62 2018.56 2592.62 2006.19C2597.44 2004.81 2602.25 2002.75 2606.38 2000.69L2606.38 2006.87C2606.38 2011.34 2601.22 2015.47 2592.62 2018.56ZM2565.12 2025.09 2565.12 2011.69C2569.59 2011 2574.41 2010.31 2578.88 2009.62L2578.88 2022.69C2574.75 2023.72 2569.94 2024.41 2565.12 2025.09ZM2537.62 2027.5 2537.62 2013.75C2541.75 2013.75 2546.56 2013.41 2551.38 2013.06L2551.38 2026.81C2546.91 2027.16 2542.44 2027.16 2537.62 2027.5ZM2510.12 2026.81 2510.12 2013.06C2514.59 2013.41 2519.06 2013.75 2523.88 2013.75L2523.88 2027.5C2519.06 2027.16 2514.59 2027.16 2510.12 2026.81ZM2688.88 2068.75C2688.88 2080.09 2655.19 2089.38 2613.25 2089.38 2571.31 2089.38 2537.62 2080.09 2537.62 2068.75 2537.62 2057.41 2571.31 2048.12 2613.25 2048.12 2655.19 2048.12 2688.88 2057.41 2688.88 2068.75ZM2709.5 2079.06 2709.5 2068.75C2709.5 2052.59 2696.78 2040.91 2672.03 2034.37 2662.75 2031.97 2652.09 2029.91 2640.06 2028.87 2640.41 2027.5 2640.41 2025.78 2640.41 2024.06 2640.41 2014.44 2635.94 2006.19 2626.66 2000L2626.66 1972.5C2626.66 1956.34 2613.94 1944.66 2589.19 1938.12 2573.03 1933.66 2552.41 1931.25 2530.41 1931.25 2501.53 1931.25 2434.16 1935.37 2434.16 1972.5L2434.16 2006.87C2434.16 2016.5 2438.62 2024.75 2447.91 2030.94L2447.91 2037.47C2439.66 2043.31 2434.16 2051.22 2434.16 2061.88L2434.16 2096.25C2434.16 2112.41 2446.88 2124.09 2471.62 2130.62 2487.78 2135.09 2508.41 2137.5 2530.41 2137.5 2530.41 2153.66 2543.12 2165.34 2567.88 2171.88 2584.03 2176.34 2604.66 2178.75 2626.66 2178.75 2655.53 2178.75 2722.91 2174.62 2722.91 2137.5L2722.91 2103.12C2723.25 2093.5 2718.78 2085.25 2709.5 2079.06Z" stroke="#FFFFFF" stroke-width="3.4375" fill="#404040"/></g></g></g><g><g><g><path d="M2593.62 2263.5C2593.62 2267.97 2588.47 2272.09 2579.88 2275.19L2579.88 2262.81C2584.69 2261.44 2589.5 2259.38 2593.62 2257.31L2593.62 2263.5ZM2566.12 2240.81 2566.12 2228.44C2570.94 2227.06 2575.75 2225 2579.88 2222.94L2579.88 2229.12C2579.88 2233.59 2574.72 2237.72 2566.12 2240.81ZM2566.12 2279.31C2562 2280.34 2557.19 2281.03 2552.38 2281.72L2552.38 2268.31C2556.84 2267.62 2561.66 2266.94 2566.12 2266.25L2566.12 2279.31ZM2538.62 2233.94C2543.09 2233.25 2547.91 2232.56 2552.38 2231.88L2552.38 2244.94C2548.25 2245.97 2543.44 2246.66 2538.62 2247.34L2538.62 2233.94ZM2538.62 2283.44C2534.16 2283.78 2529.69 2284.12 2524.88 2284.12L2524.88 2270.38C2529 2270.38 2533.81 2270.03 2538.62 2269.69L2538.62 2283.44ZM2511.12 2249.75 2511.12 2236C2515.25 2236 2520.06 2235.66 2524.88 2235.31L2524.88 2249.06C2520.41 2249.41 2515.94 2249.41 2511.12 2249.75ZM2511.12 2284.12C2506.31 2284.12 2501.84 2283.78 2497.38 2283.44L2497.38 2270.38C2499.78 2270.38 2501.84 2270.38 2504.25 2270.38 2506.31 2270.38 2508.72 2270.38 2511.12 2270.38L2511.12 2284.12ZM2483.62 2235.31C2488.09 2235.66 2492.56 2236 2497.38 2236L2497.38 2249.75C2492.56 2249.75 2488.09 2249.41 2483.62 2249.06L2483.62 2235.31ZM2483.62 2281.72C2478.81 2281.03 2474 2280.34 2469.88 2279.31L2469.88 2268.31C2474.34 2269 2478.81 2269.34 2483.62 2269.69L2483.62 2281.72ZM2456.12 2244.94 2456.12 2231.53C2460.59 2232.22 2465.06 2233.25 2469.88 2233.59L2469.88 2247.34C2465.06 2246.66 2460.25 2245.97 2456.12 2244.94ZM2456.12 2275.19C2447.53 2271.75 2442.38 2267.62 2442.38 2263.5L2442.38 2262.81C2442.38 2262.81 2442.38 2262.81 2442.72 2262.81 2443.75 2263.16 2444.44 2263.5 2445.47 2263.5 2448.91 2264.53 2452.34 2265.22 2456.12 2265.91L2456.12 2275.19ZM2401.12 2228.44C2403.53 2228.44 2405.59 2228.78 2408 2228.78L2408 2229.12C2408 2233.94 2409.03 2238.75 2411.44 2242.53 2408 2242.53 2404.56 2242.19 2401.12 2241.84L2401.12 2228.44ZM2387.38 2187.19C2391.84 2187.88 2396.31 2188.91 2401.12 2189.25L2401.12 2203C2396.31 2202.31 2391.5 2201.62 2387.38 2200.59L2387.38 2187.19ZM2387.38 2240.47C2382.56 2239.78 2377.75 2239.09 2373.62 2238.06L2373.62 2224.66C2378.09 2225.34 2382.56 2226.38 2387.38 2226.72L2387.38 2240.47ZM2359.88 2184.44 2359.88 2178.25C2364 2180.31 2368.47 2182.03 2373.62 2183.41L2373.62 2196.12C2365.03 2193.03 2359.88 2188.91 2359.88 2184.44ZM2359.88 2233.94C2351.28 2230.5 2346.12 2226.38 2346.12 2222.25L2346.12 2216.06C2350.25 2218.12 2354.72 2219.84 2359.88 2221.22L2359.88 2233.94ZM2346.12 2126.69C2350.25 2128.75 2354.72 2130.47 2359.88 2131.84L2359.88 2144.56C2351.28 2141.13 2346.12 2137 2346.12 2132.88L2346.12 2126.69ZM2387.38 2137.69 2387.38 2151.44C2382.56 2150.75 2377.75 2150.06 2373.62 2149.03L2373.62 2135.62C2378.09 2136.31 2382.56 2137 2387.38 2137.69ZM2421.75 2077.88C2463.69 2077.88 2497.38 2087.16 2497.38 2098.5 2497.38 2109.84 2463.69 2119.12 2421.75 2119.12 2379.81 2119.12 2346.12 2109.84 2346.12 2098.5 2346.12 2087.16 2379.81 2077.88 2421.75 2077.88ZM2442.38 2240.81C2433.78 2237.38 2428.62 2233.25 2428.62 2229.12L2428.62 2222.94C2432.75 2225 2437.22 2226.72 2442.38 2228.09L2442.38 2240.81ZM2483.62 2144.56 2483.62 2132.19C2488.44 2130.81 2493.25 2128.75 2497.38 2126.69L2497.38 2132.88C2497.38 2137.34 2492.22 2141.47 2483.62 2144.56ZM2456.12 2151.09 2456.12 2137.69C2460.59 2137 2465.41 2136.31 2469.88 2135.62L2469.88 2148.69C2465.75 2149.72 2460.94 2150.41 2456.12 2151.09ZM2428.62 2153.5 2428.62 2139.75C2432.75 2139.75 2437.56 2139.41 2442.38 2139.06L2442.38 2152.81C2437.91 2153.16 2433.44 2153.16 2428.62 2153.5ZM2401.12 2152.81 2401.12 2139.06C2405.59 2139.41 2410.06 2139.75 2414.88 2139.75L2414.88 2153.5C2410.06 2153.16 2405.59 2153.16 2401.12 2152.81ZM2579.88 2194.75C2579.88 2206.09 2546.19 2215.38 2504.25 2215.38 2462.31 2215.38 2428.62 2206.09 2428.62 2194.75 2428.62 2183.41 2462.31 2174.12 2504.25 2174.12 2546.19 2174.12 2579.88 2183.41 2579.88 2194.75ZM2600.5 2205.06 2600.5 2194.75C2600.5 2178.59 2587.78 2166.91 2563.03 2160.38 2553.75 2157.97 2543.09 2155.91 2531.06 2154.88 2531.41 2153.5 2531.41 2151.78 2531.41 2150.06 2531.41 2140.44 2526.94 2132.19 2517.66 2126L2517.66 2098.5C2517.66 2082.34 2504.94 2070.66 2480.19 2064.12 2464.03 2059.66 2443.41 2057.25 2421.41 2057.25 2392.53 2057.25 2325.16 2061.38 2325.16 2098.5L2325.16 2132.88C2325.16 2142.5 2329.62 2150.75 2338.91 2156.94L2338.91 2163.47C2330.66 2169.31 2325.16 2177.22 2325.16 2187.88L2325.16 2222.25C2325.16 2238.41 2337.88 2250.09 2362.62 2256.62 2378.78 2261.09 2399.41 2263.5 2421.41 2263.5 2421.41 2279.66 2434.12 2291.34 2458.88 2297.88 2475.03 2302.34 2495.66 2304.75 2517.66 2304.75 2546.53 2304.75 2613.91 2300.62 2613.91 2263.5L2613.91 2229.12C2614.25 2219.5 2609.78 2211.25 2600.5 2205.06Z" stroke="#FFFFFF" stroke-width="3.4375" fill="#404040"/></g></g></g><g><g><g><path d="M3545.63 2144.5C3545.63 2148.97 3540.47 2153.09 3531.88 2156.19L3531.88 2143.81C3536.69 2142.44 3541.5 2140.38 3545.63 2138.31L3545.63 2144.5ZM3518.13 2121.81 3518.13 2109.44C3522.94 2108.06 3527.75 2106 3531.88 2103.94L3531.88 2110.12C3531.88 2114.59 3526.72 2118.72 3518.13 2121.81ZM3518.13 2160.31C3514 2161.34 3509.19 2162.03 3504.38 2162.72L3504.38 2149.31C3508.84 2148.62 3513.66 2147.94 3518.13 2147.25L3518.13 2160.31ZM3490.63 2114.94C3495.09 2114.25 3499.91 2113.56 3504.38 2112.88L3504.38 2125.94C3500.25 2126.97 3495.44 2127.66 3490.63 2128.34L3490.63 2114.94ZM3490.63 2164.44C3486.16 2164.78 3481.69 2165.12 3476.88 2165.12L3476.88 2151.38C3481 2151.38 3485.81 2151.03 3490.63 2150.69L3490.63 2164.44ZM3463.13 2130.75 3463.13 2117C3467.25 2117 3472.06 2116.66 3476.88 2116.31L3476.88 2130.06C3472.41 2130.41 3467.94 2130.41 3463.13 2130.75ZM3463.13 2165.12C3458.31 2165.12 3453.84 2164.78 3449.38 2164.44L3449.38 2151.38C3451.78 2151.38 3453.84 2151.38 3456.25 2151.38 3458.31 2151.38 3460.72 2151.38 3463.13 2151.38L3463.13 2165.12ZM3435.63 2116.31C3440.09 2116.66 3444.56 2117 3449.38 2117L3449.38 2130.75C3444.56 2130.75 3440.09 2130.41 3435.63 2130.06L3435.63 2116.31ZM3435.63 2162.72C3430.81 2162.03 3426 2161.34 3421.88 2160.31L3421.88 2149.31C3426.34 2150 3430.81 2150.34 3435.63 2150.69L3435.63 2162.72ZM3408.13 2125.94 3408.13 2112.53C3412.59 2113.22 3417.06 2114.25 3421.88 2114.59L3421.88 2128.34C3417.06 2127.66 3412.25 2126.97 3408.13 2125.94ZM3408.13 2156.19C3399.53 2152.75 3394.38 2148.62 3394.38 2144.5L3394.38 2143.81C3394.38 2143.81 3394.38 2143.81 3394.72 2143.81 3395.75 2144.16 3396.44 2144.5 3397.47 2144.5 3400.91 2145.53 3404.34 2146.22 3408.13 2146.91L3408.13 2156.19ZM3353.13 2109.44C3355.53 2109.44 3357.59 2109.78 3360 2109.78L3360 2110.12C3360 2114.94 3361.03 2119.75 3363.44 2123.53 3360 2123.53 3356.56 2123.19 3353.13 2122.84L3353.13 2109.44ZM3339.38 2068.19C3343.84 2068.88 3348.31 2069.91 3353.13 2070.25L3353.13 2084C3348.31 2083.31 3343.5 2082.62 3339.38 2081.59L3339.38 2068.19ZM3339.38 2121.47C3334.56 2120.78 3329.75 2120.09 3325.63 2119.06L3325.63 2105.66C3330.09 2106.34 3334.56 2107.38 3339.38 2107.72L3339.38 2121.47ZM3311.88 2065.44 3311.88 2059.25C3316 2061.31 3320.47 2063.03 3325.63 2064.41L3325.63 2077.12C3317.03 2074.03 3311.88 2069.91 3311.88 2065.44ZM3311.88 2114.94C3303.28 2111.5 3298.13 2107.38 3298.13 2103.25L3298.13 2097.06C3302.25 2099.12 3306.72 2100.84 3311.88 2102.22L3311.88 2114.94ZM3298.13 2007.69C3302.25 2009.75 3306.72 2011.47 3311.88 2012.84L3311.88 2025.56C3303.28 2022.13 3298.13 2018 3298.13 2013.88L3298.13 2007.69ZM3339.38 2018.69 3339.38 2032.44C3334.56 2031.75 3329.75 2031.06 3325.63 2030.03L3325.63 2016.63C3330.09 2017.31 3334.56 2018 3339.38 2018.69ZM3373.75 1958.88C3415.69 1958.88 3449.38 1968.16 3449.38 1979.5 3449.38 1990.84 3415.69 2000.13 3373.75 2000.13 3331.81 2000.13 3298.13 1990.84 3298.13 1979.5 3298.13 1968.16 3331.81 1958.88 3373.75 1958.88ZM3394.38 2121.81C3385.78 2118.38 3380.63 2114.25 3380.63 2110.12L3380.63 2103.94C3384.75 2106 3389.22 2107.72 3394.38 2109.09L3394.38 2121.81ZM3435.63 2025.56 3435.63 2013.19C3440.44 2011.81 3445.25 2009.75 3449.38 2007.69L3449.38 2013.88C3449.38 2018.34 3444.22 2022.47 3435.63 2025.56ZM3408.13 2032.09 3408.13 2018.69C3412.59 2018 3417.41 2017.31 3421.88 2016.63L3421.88 2029.69C3417.75 2030.72 3412.94 2031.41 3408.13 2032.09ZM3380.63 2034.5 3380.63 2020.75C3384.75 2020.75 3389.56 2020.41 3394.38 2020.06L3394.38 2033.81C3389.91 2034.16 3385.44 2034.16 3380.63 2034.5ZM3353.13 2033.81 3353.13 2020.06C3357.59 2020.41 3362.06 2020.75 3366.88 2020.75L3366.88 2034.5C3362.06 2034.16 3357.59 2034.16 3353.13 2033.81ZM3531.88 2075.75C3531.88 2087.09 3498.19 2096.38 3456.25 2096.38 3414.31 2096.38 3380.63 2087.09 3380.63 2075.75 3380.63 2064.41 3414.31 2055.12 3456.25 2055.12 3498.19 2055.12 3531.88 2064.41 3531.88 2075.75ZM3552.5 2086.06 3552.5 2075.75C3552.5 2059.59 3539.78 2047.91 3515.03 2041.38 3505.75 2038.97 3495.09 2036.91 3483.06 2035.88 3483.41 2034.5 3483.41 2032.78 3483.41 2031.06 3483.41 2021.44 3478.94 2013.19 3469.66 2007L3469.66 1979.5C3469.66 1963.34 3456.94 1951.66 3432.19 1945.13 3416.03 1940.66 3395.41 1938.25 3373.41 1938.25 3344.53 1938.25 3277.16 1942.38 3277.16 1979.5L3277.16 2013.88C3277.16 2023.5 3281.63 2031.75 3290.91 2037.94L3290.91 2044.47C3282.66 2050.31 3277.16 2058.22 3277.16 2068.88L3277.16 2103.25C3277.16 2119.41 3289.88 2131.09 3314.63 2137.62 3330.78 2142.09 3351.41 2144.5 3373.41 2144.5 3373.41 2160.66 3386.13 2172.34 3410.88 2178.88 3427.03 2183.34 3447.66 2185.75 3469.66 2185.75 3498.53 2185.75 3565.91 2181.62 3565.91 2144.5L3565.91 2110.12C3566.25 2100.5 3561.78 2092.25 3552.5 2086.06Z" stroke="#FFFFFF" stroke-width="3.4375" fill="#404040"/></g></g></g><g><g><g><path d="M3380.63 2192.5C3380.63 2196.97 3375.47 2201.09 3366.88 2204.19L3366.88 2191.81C3371.69 2190.44 3376.5 2188.38 3380.63 2186.31L3380.63 2192.5ZM3353.13 2169.81 3353.13 2157.44C3357.94 2156.06 3362.75 2154 3366.88 2151.94L3366.88 2158.12C3366.88 2162.59 3361.72 2166.72 3353.13 2169.81ZM3353.13 2208.31C3349 2209.34 3344.19 2210.03 3339.38 2210.72L3339.38 2197.31C3343.84 2196.62 3348.66 2195.94 3353.13 2195.25L3353.13 2208.31ZM3325.63 2162.94C3330.09 2162.25 3334.91 2161.56 3339.38 2160.88L3339.38 2173.94C3335.25 2174.97 3330.44 2175.66 3325.63 2176.34L3325.63 2162.94ZM3325.63 2212.44C3321.16 2212.78 3316.69 2213.12 3311.88 2213.12L3311.88 2199.38C3316 2199.38 3320.81 2199.03 3325.63 2198.69L3325.63 2212.44ZM3298.13 2178.75 3298.13 2165C3302.25 2165 3307.06 2164.66 3311.88 2164.31L3311.88 2178.06C3307.41 2178.41 3302.94 2178.41 3298.13 2178.75ZM3298.13 2213.12C3293.31 2213.12 3288.84 2212.78 3284.38 2212.44L3284.38 2199.38C3286.78 2199.38 3288.84 2199.38 3291.25 2199.38 3293.31 2199.38 3295.72 2199.38 3298.13 2199.38L3298.13 2213.12ZM3270.63 2164.31C3275.09 2164.66 3279.56 2165 3284.38 2165L3284.38 2178.75C3279.56 2178.75 3275.09 2178.41 3270.63 2178.06L3270.63 2164.31ZM3270.63 2210.72C3265.81 2210.03 3261 2209.34 3256.88 2208.31L3256.88 2197.31C3261.34 2198 3265.81 2198.34 3270.63 2198.69L3270.63 2210.72ZM3243.13 2173.94 3243.13 2160.53C3247.59 2161.22 3252.06 2162.25 3256.88 2162.59L3256.88 2176.34C3252.06 2175.66 3247.25 2174.97 3243.13 2173.94ZM3243.13 2204.19C3234.53 2200.75 3229.38 2196.62 3229.38 2192.5L3229.38 2191.81C3229.38 2191.81 3229.38 2191.81 3229.72 2191.81 3230.75 2192.16 3231.44 2192.5 3232.47 2192.5 3235.91 2193.53 3239.34 2194.22 3243.13 2194.91L3243.13 2204.19ZM3188.13 2157.44C3190.53 2157.44 3192.59 2157.78 3195 2157.78L3195 2158.12C3195 2162.94 3196.03 2167.75 3198.44 2171.53 3195 2171.53 3191.56 2171.19 3188.13 2170.84L3188.13 2157.44ZM3174.38 2116.19C3178.84 2116.88 3183.31 2117.91 3188.13 2118.25L3188.13 2132C3183.31 2131.31 3178.5 2130.62 3174.38 2129.59L3174.38 2116.19ZM3174.38 2169.47C3169.56 2168.78 3164.75 2168.09 3160.63 2167.06L3160.63 2153.66C3165.09 2154.34 3169.56 2155.38 3174.38 2155.72L3174.38 2169.47ZM3146.88 2113.44 3146.88 2107.25C3151 2109.31 3155.47 2111.03 3160.63 2112.41L3160.63 2125.12C3152.03 2122.03 3146.88 2117.91 3146.88 2113.44ZM3146.88 2162.94C3138.28 2159.5 3133.13 2155.38 3133.13 2151.25L3133.13 2145.06C3137.25 2147.12 3141.72 2148.84 3146.88 2150.22L3146.88 2162.94ZM3133.13 2055.69C3137.25 2057.75 3141.72 2059.47 3146.88 2060.84L3146.88 2073.56C3138.28 2070.12 3133.13 2066 3133.13 2061.88L3133.13 2055.69ZM3174.38 2066.69 3174.38 2080.44C3169.56 2079.75 3164.75 2079.06 3160.63 2078.03L3160.63 2064.62C3165.09 2065.31 3169.56 2066 3174.38 2066.69ZM3208.75 2006.87C3250.69 2006.87 3284.38 2016.16 3284.38 2027.5 3284.38 2038.84 3250.69 2048.12 3208.75 2048.12 3166.81 2048.12 3133.13 2038.84 3133.13 2027.5 3133.13 2016.16 3166.81 2006.87 3208.75 2006.87ZM3229.38 2169.81C3220.78 2166.38 3215.63 2162.25 3215.63 2158.12L3215.63 2151.94C3219.75 2154 3224.22 2155.72 3229.38 2157.09L3229.38 2169.81ZM3270.63 2073.56 3270.63 2061.19C3275.44 2059.81 3280.25 2057.75 3284.38 2055.69L3284.38 2061.88C3284.38 2066.34 3279.22 2070.47 3270.63 2073.56ZM3243.13 2080.09 3243.13 2066.69C3247.59 2066 3252.41 2065.31 3256.88 2064.62L3256.88 2077.69C3252.75 2078.72 3247.94 2079.41 3243.13 2080.09ZM3215.63 2082.5 3215.63 2068.75C3219.75 2068.75 3224.56 2068.41 3229.38 2068.06L3229.38 2081.81C3224.91 2082.16 3220.44 2082.16 3215.63 2082.5ZM3188.13 2081.81 3188.13 2068.06C3192.59 2068.41 3197.06 2068.75 3201.88 2068.75L3201.88 2082.5C3197.06 2082.16 3192.59 2082.16 3188.13 2081.81ZM3366.88 2123.75C3366.88 2135.09 3333.19 2144.38 3291.25 2144.38 3249.31 2144.38 3215.63 2135.09 3215.63 2123.75 3215.63 2112.41 3249.31 2103.12 3291.25 2103.12 3333.19 2103.12 3366.88 2112.41 3366.88 2123.75ZM3387.5 2134.06 3387.5 2123.75C3387.5 2107.59 3374.78 2095.91 3350.03 2089.38 3340.75 2086.97 3330.09 2084.91 3318.06 2083.88 3318.41 2082.5 3318.41 2080.78 3318.41 2079.06 3318.41 2069.44 3313.94 2061.19 3304.66 2055L3304.66 2027.5C3304.66 2011.34 3291.94 1999.66 3267.19 1993.12 3251.03 1988.66 3230.41 1986.25 3208.41 1986.25 3179.53 1986.25 3112.16 1990.37 3112.16 2027.5L3112.16 2061.88C3112.16 2071.5 3116.63 2079.75 3125.91 2085.94L3125.91 2092.47C3117.66 2098.31 3112.16 2106.22 3112.16 2116.88L3112.16 2151.25C3112.16 2167.41 3124.88 2179.09 3149.63 2185.62 3165.78 2190.09 3186.41 2192.5 3208.41 2192.5 3208.41 2208.66 3221.13 2220.34 3245.88 2226.88 3262.03 2231.34 3282.66 2233.75 3304.66 2233.75 3333.53 2233.75 3400.91 2229.62 3400.91 2192.5L3400.91 2158.12C3401.25 2148.5 3396.78 2140.25 3387.5 2134.06Z" stroke="#FFFFFF" stroke-width="3.4375" fill="#404040"/></g></g></g></g></svg>