<svg width="1552" height="906" xmlns="http://www.w3.org/2000/svg" xmlns:xlink="http://www.w3.org/1999/xlink" xml:space="preserve" overflow="hidden"><g transform="translate(-137 -1481)"><path d="M302 2168C302 2119.95 422.436 2081 571 2081 719.565 2081 840 2119.95 840 2168 840 2216.05 719.565 2255 571 2255 422.436 2255 302 2216.05 302 2168Z" stroke="#262626" stroke-width="5.72917" stroke-linejoin="round" stroke-miterlimit="10" fill="#7F7F7F" fill-rule="evenodd"/><g><g><g><path d="M615.833 1691.65C615.833 1716.41 595.761 1736.48 571 1736.48 546.239 1736.48 526.167 1716.41 526.167 1691.65 526.167 1666.89 546.239 1646.81 571 1646.81 595.761 1646.81 615.833 1666.89 615.833 1691.65Z" stroke="#000000" stroke-width="5.60417" fill="#E0E0E0"/><path d="M693.171 1922.54 661.788 1789.16C660.667 1784.68 658.425 1780.19 655.063 1776.83 641.613 1765.62 625.921 1757.78 607.988 1752.17 595.658 1749.93 583.329 1747.69 571 1747.69 558.671 1747.69 546.342 1749.93 534.013 1753.29 516.079 1757.78 500.388 1766.74 486.938 1777.95 483.575 1781.31 481.333 1785.8 480.213 1790.28L448.829 1923.66C448.829 1924.78 447.708 1927.02 447.708 1929.26 447.708 1941.59 457.796 1951.68 470.125 1951.68 480.213 1951.68 489.179 1943.83 491.421 1934.87L514.958 1837.35 514.958 2151.19 559.792 2151.19 559.792 1949.44 582.208 1949.44 582.208 2151.19 627.042 2151.19 627.042 1836.23 650.579 1933.75C652.821 1942.71 661.788 1950.56 671.875 1950.56 684.204 1950.56 694.292 1940.47 694.292 1928.14 694.292 1925.9 693.171 1923.66 693.171 1922.54Z" stroke="#000000" stroke-width="5.60417" fill="#E0E0E0"/></g></g></g><text font-family="Cambria,Cambria_MSFontService,sans-serif" font-weight="700" font-size="73" transform="matrix(1 0 0 1 548.107 1574)">α</text><path d="M1149 2168C1149 2119.95 1269.21 2081 1417.5 2081 1565.79 2081 1686 2119.95 1686 2168 1686 2216.05 1565.79 2255 1417.5 2255 1269.21 2255 1149 2216.05 1149 2168Z" stroke="#262626" stroke-width="5.72917" stroke-linejoin="round" stroke-miterlimit="10" fill="#7F7F7F" fill-rule="evenodd"/><g><g><g><path d="M313.25 61.5312C313.25 86.246 293.215 106.281 268.5 106.281 243.785 106.281 223.75 86.246 223.75 61.5312 223.75 36.8165 243.785 16.7812 268.5 16.7812 293.215 16.7812 313.25 36.8165 313.25 61.5312Z" stroke="#000000" stroke-width="5.59375" transform="matrix(1 0 0 1.00186 1149 1630)"/><path d="M390.444 291.994 359.119 158.862C358 154.387 355.762 149.912 352.406 146.556 338.981 135.369 323.319 127.537 305.419 121.944 293.112 119.706 280.806 117.469 268.5 117.469 256.194 117.469 243.887 119.706 231.581 123.062 213.681 127.537 198.019 136.487 184.594 147.675 181.237 151.031 179 155.506 177.881 159.981L146.556 293.112C146.556 294.231 145.437 296.469 145.437 298.706 145.437 311.012 155.506 321.081 167.812 321.081 177.881 321.081 186.831 313.25 189.069 304.3L212.562 206.969 212.562 520.219 257.312 520.219 257.312 318.844 279.687 318.844 279.687 520.219 324.437 520.219 324.437 205.85 347.931 303.181C350.169 312.131 359.119 319.962 369.187 319.962 381.494 319.962 391.562 309.894 391.562 297.587 391.562 295.35 390.444 293.112 390.444 291.994Z" stroke="#000000" stroke-width="5.59375" transform="matrix(1 0 0 1.00186 1149 1630)"/></g></g></g><g><g><g><path d="M684.625 2172.5C684.625 2176.97 679.469 2181.09 670.875 2184.19L670.875 2171.81C675.688 2170.44 680.5 2168.38 684.625 2166.31L684.625 2172.5ZM657.125 2149.81 657.125 2137.44C661.938 2136.06 666.75 2134 670.875 2131.94L670.875 2138.12C670.875 2142.59 665.719 2146.72 657.125 2149.81ZM657.125 2188.31C653 2189.34 648.188 2190.03 643.375 2190.72L643.375 2177.31C647.844 2176.62 652.656 2175.94 657.125 2175.25L657.125 2188.31ZM629.625 2142.94C634.094 2142.25 638.906 2141.56 643.375 2140.88L643.375 2153.94C639.25 2154.97 634.438 2155.66 629.625 2156.34L629.625 2142.94ZM629.625 2192.44C625.156 2192.78 620.688 2193.12 615.875 2193.12L615.875 2179.38C620 2179.38 624.813 2179.03 629.625 2178.69L629.625 2192.44ZM602.125 2158.75 602.125 2145C606.25 2145 611.063 2144.66 615.875 2144.31L615.875 2158.06C611.406 2158.41 606.938 2158.41 602.125 2158.75ZM602.125 2193.12C597.313 2193.12 592.844 2192.78 588.375 2192.44L588.375 2179.38C590.781 2179.38 592.844 2179.38 595.25 2179.38 597.313 2179.38 599.719 2179.38 602.125 2179.38L602.125 2193.12ZM574.625 2144.31C579.094 2144.66 583.563 2145 588.375 2145L588.375 2158.75C583.563 2158.75 579.094 2158.41 574.625 2158.06L574.625 2144.31ZM574.625 2190.72C569.813 2190.03 565 2189.34 560.875 2188.31L560.875 2177.31C565.344 2178 569.813 2178.34 574.625 2178.69L574.625 2190.72ZM547.125 2153.94 547.125 2140.53C551.594 2141.22 556.063 2142.25 560.875 2142.59L560.875 2156.34C556.063 2155.66 551.25 2154.97 547.125 2153.94ZM547.125 2184.19C538.531 2180.75 533.375 2176.62 533.375 2172.5L533.375 2171.81C533.375 2171.81 533.375 2171.81 533.719 2171.81 534.75 2172.16 535.438 2172.5 536.469 2172.5 539.906 2173.53 543.344 2174.22 547.125 2174.91L547.125 2184.19ZM492.125 2137.44C494.531 2137.44 496.594 2137.78 499 2137.78L499 2138.12C499 2142.94 500.031 2147.75 502.438 2151.53 499 2151.53 495.563 2151.19 492.125 2150.84L492.125 2137.44ZM478.375 2096.19C482.844 2096.88 487.313 2097.91 492.125 2098.25L492.125 2112C487.313 2111.31 482.5 2110.62 478.375 2109.59L478.375 2096.19ZM478.375 2149.47C473.563 2148.78 468.75 2148.09 464.625 2147.06L464.625 2133.66C469.094 2134.34 473.563 2135.38 478.375 2135.72L478.375 2149.47ZM450.875 2093.44 450.875 2087.25C455 2089.31 459.469 2091.03 464.625 2092.41L464.625 2105.12C456.031 2102.03 450.875 2097.91 450.875 2093.44ZM450.875 2142.94C442.281 2139.5 437.125 2135.38 437.125 2131.25L437.125 2125.06C441.25 2127.12 445.719 2128.84 450.875 2130.22L450.875 2142.94ZM437.125 2035.69C441.25 2037.75 445.719 2039.47 450.875 2040.84L450.875 2053.56C442.281 2050.12 437.125 2046 437.125 2041.88L437.125 2035.69ZM478.375 2046.69 478.375 2060.44C473.563 2059.75 468.75 2059.06 464.625 2058.03L464.625 2044.62C469.094 2045.31 473.563 2046 478.375 2046.69ZM512.75 1986.88C554.688 1986.88 588.375 1996.16 588.375 2007.5 588.375 2018.84 554.688 2028.12 512.75 2028.12 470.813 2028.12 437.125 2018.84 437.125 2007.5 437.125 1996.16 470.813 1986.88 512.75 1986.88ZM533.375 2149.81C524.781 2146.38 519.625 2142.25 519.625 2138.12L519.625 2131.94C523.75 2134 528.219 2135.72 533.375 2137.09L533.375 2149.81ZM574.625 2053.56 574.625 2041.19C579.438 2039.81 584.25 2037.75 588.375 2035.69L588.375 2041.88C588.375 2046.34 583.219 2050.47 574.625 2053.56ZM547.125 2060.09 547.125 2046.69C551.594 2046 556.406 2045.31 560.875 2044.62L560.875 2057.69C556.75 2058.72 551.938 2059.41 547.125 2060.09ZM519.625 2062.5 519.625 2048.75C523.75 2048.75 528.563 2048.41 533.375 2048.06L533.375 2061.81C528.906 2062.16 524.438 2062.16 519.625 2062.5ZM492.125 2061.81 492.125 2048.06C496.594 2048.41 501.063 2048.75 505.875 2048.75L505.875 2062.5C501.063 2062.16 496.594 2062.16 492.125 2061.81ZM670.875 2103.75C670.875 2115.09 637.188 2124.38 595.25 2124.38 553.313 2124.38 519.625 2115.09 519.625 2103.75 519.625 2092.41 553.313 2083.12 595.25 2083.12 637.188 2083.12 670.875 2092.41 670.875 2103.75ZM691.5 2114.06 691.5 2103.75C691.5 2087.59 678.781 2075.91 654.031 2069.38 644.75 2066.97 634.094 2064.91 622.063 2063.88 622.406 2062.5 622.406 2060.78 622.406 2059.06 622.406 2049.44 617.938 2041.19 608.656 2035L608.656 2007.5C608.656 1991.34 595.938 1979.66 571.188 1973.12 555.031 1968.66 534.406 1966.25 512.406 1966.25 483.531 1966.25 416.156 1970.38 416.156 2007.5L416.156 2041.88C416.156 2051.5 420.625 2059.75 429.906 2065.94L429.906 2072.47C421.656 2078.31 416.156 2086.22 416.156 2096.88L416.156 2131.25C416.156 2147.41 428.875 2159.09 453.625 2165.62 469.781 2170.09 490.406 2172.5 512.406 2172.5 512.406 2188.66 525.125 2200.34 549.875 2206.88 566.031 2211.34 586.656 2213.75 608.656 2213.75 637.531 2213.75 704.906 2209.62 704.906 2172.5L704.906 2138.12C705.25 2128.5 700.781 2120.25 691.5 2114.06Z" stroke="#FFFFFF" stroke-width="3.4375" fill="#404040"/></g></g></g><g><g><g><path d="M597.625 2263.5C597.625 2267.97 592.469 2272.09 583.875 2275.19L583.875 2262.81C588.688 2261.44 593.5 2259.38 597.625 2257.31L597.625 2263.5ZM570.125 2240.81 570.125 2228.44C574.938 2227.06 579.75 2225 583.875 2222.94L583.875 2229.12C583.875 2233.59 578.719 2237.72 570.125 2240.81ZM570.125 2279.31C566 2280.34 561.188 2281.03 556.375 2281.72L556.375 2268.31C560.844 2267.62 565.656 2266.94 570.125 2266.25L570.125 2279.31ZM542.625 2233.94C547.094 2233.25 551.906 2232.56 556.375 2231.88L556.375 2244.94C552.25 2245.97 547.438 2246.66 542.625 2247.34L542.625 2233.94ZM542.625 2283.44C538.156 2283.78 533.688 2284.12 528.875 2284.12L528.875 2270.38C533 2270.38 537.813 2270.03 542.625 2269.69L542.625 2283.44ZM515.125 2249.75 515.125 2236C519.25 2236 524.063 2235.66 528.875 2235.31L528.875 2249.06C524.406 2249.41 519.938 2249.41 515.125 2249.75ZM515.125 2284.12C510.313 2284.12 505.844 2283.78 501.375 2283.44L501.375 2270.38C503.781 2270.38 505.844 2270.38 508.25 2270.38 510.313 2270.38 512.719 2270.38 515.125 2270.38L515.125 2284.12ZM487.625 2235.31C492.094 2235.66 496.563 2236 501.375 2236L501.375 2249.75C496.563 2249.75 492.094 2249.41 487.625 2249.06L487.625 2235.31ZM487.625 2281.72C482.813 2281.03 478 2280.34 473.875 2279.31L473.875 2268.31C478.344 2269 482.813 2269.34 487.625 2269.69L487.625 2281.72ZM460.125 2244.94 460.125 2231.53C464.594 2232.22 469.063 2233.25 473.875 2233.59L473.875 2247.34C469.063 2246.66 464.25 2245.97 460.125 2244.94ZM460.125 2275.19C451.531 2271.75 446.375 2267.62 446.375 2263.5L446.375 2262.81C446.375 2262.81 446.375 2262.81 446.719 2262.81 447.75 2263.16 448.438 2263.5 449.469 2263.5 452.906 2264.53 456.344 2265.22 460.125 2265.91L460.125 2275.19ZM405.125 2228.44C407.531 2228.44 409.594 2228.78 412 2228.78L412 2229.12C412 2233.94 413.031 2238.75 415.438 2242.53 412 2242.53 408.563 2242.19 405.125 2241.84L405.125 2228.44ZM391.375 2187.19C395.844 2187.88 400.313 2188.91 405.125 2189.25L405.125 2203C400.313 2202.31 395.5 2201.62 391.375 2200.59L391.375 2187.19ZM391.375 2240.47C386.563 2239.78 381.75 2239.09 377.625 2238.06L377.625 2224.66C382.094 2225.34 386.563 2226.38 391.375 2226.72L391.375 2240.47ZM363.875 2184.44 363.875 2178.25C368 2180.31 372.469 2182.03 377.625 2183.41L377.625 2196.12C369.031 2193.03 363.875 2188.91 363.875 2184.44ZM363.875 2233.94C355.281 2230.5 350.125 2226.38 350.125 2222.25L350.125 2216.06C354.25 2218.12 358.719 2219.84 363.875 2221.22L363.875 2233.94ZM350.125 2126.69C354.25 2128.75 358.719 2130.47 363.875 2131.84L363.875 2144.56C355.281 2141.13 350.125 2137 350.125 2132.88L350.125 2126.69ZM391.375 2137.69 391.375 2151.44C386.563 2150.75 381.75 2150.06 377.625 2149.03L377.625 2135.62C382.094 2136.31 386.563 2137 391.375 2137.69ZM425.75 2077.88C467.688 2077.88 501.375 2087.16 501.375 2098.5 501.375 2109.84 467.688 2119.12 425.75 2119.12 383.813 2119.12 350.125 2109.84 350.125 2098.5 350.125 2087.16 383.813 2077.88 425.75 2077.88ZM446.375 2240.81C437.781 2237.38 432.625 2233.25 432.625 2229.12L432.625 2222.94C436.75 2225 441.219 2226.72 446.375 2228.09L446.375 2240.81ZM487.625 2144.56 487.625 2132.19C492.438 2130.81 497.25 2128.75 501.375 2126.69L501.375 2132.88C501.375 2137.34 496.219 2141.47 487.625 2144.56ZM460.125 2151.09 460.125 2137.69C464.594 2137 469.406 2136.31 473.875 2135.62L473.875 2148.69C469.75 2149.72 464.938 2150.41 460.125 2151.09ZM432.625 2153.5 432.625 2139.75C436.75 2139.75 441.563 2139.41 446.375 2139.06L446.375 2152.81C441.906 2153.16 437.438 2153.16 432.625 2153.5ZM405.125 2152.81 405.125 2139.06C409.594 2139.41 414.063 2139.75 418.875 2139.75L418.875 2153.5C414.063 2153.16 409.594 2153.16 405.125 2152.81ZM583.875 2194.75C583.875 2206.09 550.188 2215.38 508.25 2215.38 466.313 2215.38 432.625 2206.09 432.625 2194.75 432.625 2183.41 466.313 2174.12 508.25 2174.12 550.188 2174.12 583.875 2183.41 583.875 2194.75ZM604.5 2205.06 604.5 2194.75C604.5 2178.59 591.781 2166.91 567.031 2160.38 557.75 2157.97 547.094 2155.91 535.063 2154.88 535.406 2153.5 535.406 2151.78 535.406 2150.06 535.406 2140.44 530.938 2132.19 521.656 2126L521.656 2098.5C521.656 2082.34 508.938 2070.66 484.188 2064.12 468.031 2059.66 447.406 2057.25 425.406 2057.25 396.531 2057.25 329.156 2061.38 329.156 2098.5L329.156 2132.88C329.156 2142.5 333.625 2150.75 342.906 2156.94L342.906 2163.47C334.656 2169.31 329.156 2177.22 329.156 2187.88L329.156 2222.25C329.156 2238.41 341.875 2250.09 366.625 2256.62 382.781 2261.09 403.406 2263.5 425.406 2263.5 425.406 2279.66 438.125 2291.34 462.875 2297.88 479.031 2302.34 499.656 2304.75 521.656 2304.75 550.531 2304.75 617.906 2300.62 617.906 2263.5L617.906 2229.12C618.25 2219.5 613.781 2211.25 604.5 2205.06Z" stroke="#FFFFFF" stroke-width="3.4375" fill="#404040"/></g></g></g><g><g><g><path d="M432.625 2283.5C432.625 2287.97 427.469 2292.09 418.875 2295.19L418.875 2282.81C423.688 2281.44 428.5 2279.38 432.625 2277.31L432.625 2283.5ZM405.125 2260.81 405.125 2248.44C409.938 2247.06 414.75 2245 418.875 2242.94L418.875 2249.12C418.875 2253.59 413.719 2257.72 405.125 2260.81ZM405.125 2299.31C401 2300.34 396.188 2301.03 391.375 2301.72L391.375 2288.31C395.844 2287.62 400.656 2286.94 405.125 2286.25L405.125 2299.31ZM377.625 2253.94C382.094 2253.25 386.906 2252.56 391.375 2251.88L391.375 2264.94C387.25 2265.97 382.438 2266.66 377.625 2267.34L377.625 2253.94ZM377.625 2303.44C373.156 2303.78 368.688 2304.12 363.875 2304.12L363.875 2290.38C368 2290.38 372.813 2290.03 377.625 2289.69L377.625 2303.44ZM350.125 2269.75 350.125 2256C354.25 2256 359.063 2255.66 363.875 2255.31L363.875 2269.06C359.406 2269.41 354.938 2269.41 350.125 2269.75ZM350.125 2304.12C345.313 2304.12 340.844 2303.78 336.375 2303.44L336.375 2290.38C338.781 2290.38 340.844 2290.38 343.25 2290.38 345.313 2290.38 347.719 2290.38 350.125 2290.38L350.125 2304.12ZM322.625 2255.31C327.094 2255.66 331.563 2256 336.375 2256L336.375 2269.75C331.563 2269.75 327.094 2269.41 322.625 2269.06L322.625 2255.31ZM322.625 2301.72C317.813 2301.03 313 2300.34 308.875 2299.31L308.875 2288.31C313.344 2289 317.813 2289.34 322.625 2289.69L322.625 2301.72ZM295.125 2264.94 295.125 2251.53C299.594 2252.22 304.063 2253.25 308.875 2253.59L308.875 2267.34C304.063 2266.66 299.25 2265.97 295.125 2264.94ZM295.125 2295.19C286.531 2291.75 281.375 2287.62 281.375 2283.5L281.375 2282.81C281.375 2282.81 281.375 2282.81 281.719 2282.81 282.75 2283.16 283.438 2283.5 284.469 2283.5 287.906 2284.53 291.344 2285.22 295.125 2285.91L295.125 2295.19ZM240.125 2248.44C242.531 2248.44 244.594 2248.78 247 2248.78L247 2249.12C247 2253.94 248.031 2258.75 250.438 2262.53 247 2262.53 243.563 2262.19 240.125 2261.84L240.125 2248.44ZM226.375 2207.19C230.844 2207.88 235.313 2208.91 240.125 2209.25L240.125 2223C235.313 2222.31 230.5 2221.62 226.375 2220.59L226.375 2207.19ZM226.375 2260.47C221.563 2259.78 216.75 2259.09 212.625 2258.06L212.625 2244.66C217.094 2245.34 221.563 2246.38 226.375 2246.72L226.375 2260.47ZM198.875 2204.44 198.875 2198.25C203 2200.31 207.469 2202.03 212.625 2203.41L212.625 2216.12C204.031 2213.03 198.875 2208.91 198.875 2204.44ZM198.875 2253.94C190.281 2250.5 185.125 2246.38 185.125 2242.25L185.125 2236.06C189.25 2238.12 193.719 2239.84 198.875 2241.22L198.875 2253.94ZM185.125 2146.69C189.25 2148.75 193.719 2150.47 198.875 2151.84L198.875 2164.56C190.281 2161.12 185.125 2157 185.125 2152.88L185.125 2146.69ZM226.375 2157.69 226.375 2171.44C221.563 2170.75 216.75 2170.06 212.625 2169.03L212.625 2155.62C217.094 2156.31 221.563 2157 226.375 2157.69ZM260.75 2097.88C302.688 2097.88 336.375 2107.16 336.375 2118.5 336.375 2129.84 302.688 2139.12 260.75 2139.12 218.813 2139.12 185.125 2129.84 185.125 2118.5 185.125 2107.16 218.813 2097.88 260.75 2097.88ZM281.375 2260.81C272.781 2257.38 267.625 2253.25 267.625 2249.12L267.625 2242.94C271.75 2245 276.219 2246.72 281.375 2248.09L281.375 2260.81ZM322.625 2164.56 322.625 2152.19C327.438 2150.81 332.25 2148.75 336.375 2146.69L336.375 2152.88C336.375 2157.34 331.219 2161.47 322.625 2164.56ZM295.125 2171.09 295.125 2157.69C299.594 2157 304.406 2156.31 308.875 2155.62L308.875 2168.69C304.75 2169.72 299.938 2170.41 295.125 2171.09ZM267.625 2173.5 267.625 2159.75C271.75 2159.75 276.563 2159.41 281.375 2159.06L281.375 2172.81C276.906 2173.16 272.438 2173.16 267.625 2173.5ZM240.125 2172.81 240.125 2159.06C244.594 2159.41 249.063 2159.75 253.875 2159.75L253.875 2173.5C249.063 2173.16 244.594 2173.16 240.125 2172.81ZM418.875 2214.75C418.875 2226.09 385.188 2235.38 343.25 2235.38 301.313 2235.38 267.625 2226.09 267.625 2214.75 267.625 2203.41 301.313 2194.12 343.25 2194.12 385.188 2194.12 418.875 2203.41 418.875 2214.75ZM439.5 2225.06 439.5 2214.75C439.5 2198.59 426.781 2186.91 402.031 2180.38 392.75 2177.97 382.094 2175.91 370.063 2174.88 370.406 2173.5 370.406 2171.78 370.406 2170.06 370.406 2160.44 365.938 2152.19 356.656 2146L356.656 2118.5C356.656 2102.34 343.938 2090.66 319.188 2084.12 303.031 2079.66 282.406 2077.25 260.406 2077.25 231.531 2077.25 164.156 2081.38 164.156 2118.5L164.156 2152.88C164.156 2162.5 168.625 2170.75 177.906 2176.94L177.906 2183.47C169.656 2189.31 164.156 2197.22 164.156 2207.88L164.156 2242.25C164.156 2258.41 176.875 2270.09 201.625 2276.62 217.781 2281.09 238.406 2283.5 260.406 2283.5 260.406 2299.66 273.125 2311.34 297.875 2317.88 314.031 2322.34 334.656 2324.75 356.656 2324.75 385.531 2324.75 452.906 2320.62 452.906 2283.5L452.906 2249.12C453.25 2239.5 448.781 2231.25 439.5 2225.06Z" stroke="#FFFFFF" stroke-width="3.4375" fill="#404040"/></g></g></g><g><g><g><path d="M900.625 2179.5C900.625 2183.97 895.469 2188.09 886.875 2191.19L886.875 2178.81C891.688 2177.44 896.5 2175.38 900.625 2173.31L900.625 2179.5ZM873.125 2156.81 873.125 2144.44C877.938 2143.06 882.75 2141 886.875 2138.94L886.875 2145.12C886.875 2149.59 881.719 2153.72 873.125 2156.81ZM873.125 2195.31C869 2196.34 864.188 2197.03 859.375 2197.72L859.375 2184.31C863.844 2183.62 868.656 2182.94 873.125 2182.25L873.125 2195.31ZM845.625 2149.94C850.094 2149.25 854.906 2148.56 859.375 2147.88L859.375 2160.94C855.25 2161.97 850.438 2162.66 845.625 2163.34L845.625 2149.94ZM845.625 2199.44C841.156 2199.78 836.688 2200.12 831.875 2200.12L831.875 2186.38C836 2186.38 840.812 2186.03 845.625 2185.69L845.625 2199.44ZM818.125 2165.75 818.125 2152C822.25 2152 827.062 2151.66 831.875 2151.31L831.875 2165.06C827.406 2165.41 822.938 2165.41 818.125 2165.75ZM818.125 2200.12C813.312 2200.12 808.844 2199.78 804.375 2199.44L804.375 2186.38C806.781 2186.38 808.844 2186.38 811.25 2186.38 813.312 2186.38 815.719 2186.38 818.125 2186.38L818.125 2200.12ZM790.625 2151.31C795.094 2151.66 799.562 2152 804.375 2152L804.375 2165.75C799.562 2165.75 795.094 2165.41 790.625 2165.06L790.625 2151.31ZM790.625 2197.72C785.812 2197.03 781 2196.34 776.875 2195.31L776.875 2184.31C781.344 2185 785.812 2185.34 790.625 2185.69L790.625 2197.72ZM763.125 2160.94 763.125 2147.53C767.594 2148.22 772.062 2149.25 776.875 2149.59L776.875 2163.34C772.062 2162.66 767.25 2161.97 763.125 2160.94ZM763.125 2191.19C754.531 2187.75 749.375 2183.62 749.375 2179.5L749.375 2178.81C749.375 2178.81 749.375 2178.81 749.719 2178.81 750.75 2179.16 751.438 2179.5 752.469 2179.5 755.906 2180.53 759.344 2181.22 763.125 2181.91L763.125 2191.19ZM708.125 2144.44C710.531 2144.44 712.594 2144.78 715 2144.78L715 2145.12C715 2149.94 716.031 2154.75 718.438 2158.53 715 2158.53 711.562 2158.19 708.125 2157.84L708.125 2144.44ZM694.375 2103.19C698.844 2103.88 703.312 2104.91 708.125 2105.25L708.125 2119C703.312 2118.31 698.5 2117.62 694.375 2116.59L694.375 2103.19ZM694.375 2156.47C689.562 2155.78 684.75 2155.09 680.625 2154.06L680.625 2140.66C685.094 2141.34 689.562 2142.38 694.375 2142.72L694.375 2156.47ZM666.875 2100.44 666.875 2094.25C671 2096.31 675.469 2098.03 680.625 2099.41L680.625 2112.12C672.031 2109.03 666.875 2104.91 666.875 2100.44ZM666.875 2149.94C658.281 2146.5 653.125 2142.38 653.125 2138.25L653.125 2132.06C657.25 2134.12 661.719 2135.84 666.875 2137.22L666.875 2149.94ZM653.125 2042.69C657.25 2044.75 661.719 2046.47 666.875 2047.84L666.875 2060.56C658.281 2057.12 653.125 2053 653.125 2048.88L653.125 2042.69ZM694.375 2053.69 694.375 2067.44C689.562 2066.75 684.75 2066.06 680.625 2065.03L680.625 2051.62C685.094 2052.31 689.562 2053 694.375 2053.69ZM728.75 1993.87C770.688 1993.87 804.375 2003.16 804.375 2014.5 804.375 2025.84 770.688 2035.12 728.75 2035.12 686.812 2035.12 653.125 2025.84 653.125 2014.5 653.125 2003.16 686.812 1993.87 728.75 1993.87ZM749.375 2156.81C740.781 2153.38 735.625 2149.25 735.625 2145.12L735.625 2138.94C739.75 2141 744.219 2142.72 749.375 2144.09L749.375 2156.81ZM790.625 2060.56 790.625 2048.19C795.438 2046.81 800.25 2044.75 804.375 2042.69L804.375 2048.88C804.375 2053.34 799.219 2057.47 790.625 2060.56ZM763.125 2067.09 763.125 2053.69C767.594 2053 772.406 2052.31 776.875 2051.62L776.875 2064.69C772.75 2065.72 767.938 2066.41 763.125 2067.09ZM735.625 2069.5 735.625 2055.75C739.75 2055.75 744.562 2055.41 749.375 2055.06L749.375 2068.81C744.906 2069.16 740.438 2069.16 735.625 2069.5ZM708.125 2068.81 708.125 2055.06C712.594 2055.41 717.062 2055.75 721.875 2055.75L721.875 2069.5C717.062 2069.16 712.594 2069.16 708.125 2068.81ZM886.875 2110.75C886.875 2122.09 853.188 2131.38 811.25 2131.38 769.312 2131.38 735.625 2122.09 735.625 2110.75 735.625 2099.41 769.312 2090.12 811.25 2090.12 853.188 2090.12 886.875 2099.41 886.875 2110.75ZM907.5 2121.06 907.5 2110.75C907.5 2094.59 894.781 2082.91 870.031 2076.38 860.75 2073.97 850.094 2071.91 838.062 2070.88 838.406 2069.5 838.406 2067.78 838.406 2066.06 838.406 2056.44 833.938 2048.19 824.656 2042L824.656 2014.5C824.656 1998.34 811.938 1986.66 787.188 1980.12 771.031 1975.66 750.406 1973.25 728.406 1973.25 699.531 1973.25 632.156 1977.37 632.156 2014.5L632.156 2048.88C632.156 2058.5 636.625 2066.75 645.906 2072.94L645.906 2079.47C637.656 2085.31 632.156 2093.22 632.156 2103.88L632.156 2138.25C632.156 2154.41 644.875 2166.09 669.625 2172.62 685.781 2177.09 706.406 2179.5 728.406 2179.5 728.406 2195.66 741.125 2207.34 765.875 2213.88 782.031 2218.34 802.656 2220.75 824.656 2220.75 853.531 2220.75 920.906 2216.62 920.906 2179.5L920.906 2145.12C921.25 2135.5 916.781 2127.25 907.5 2121.06Z" stroke="#FFFFFF" stroke-width="3.4375" fill="#404040"/></g></g></g><g><g><g><path d="M791.625 2304.5C791.625 2308.97 786.469 2313.09 777.875 2316.19L777.875 2303.81C782.688 2302.44 787.5 2300.38 791.625 2298.31L791.625 2304.5ZM764.125 2281.81 764.125 2269.44C768.938 2268.06 773.75 2266 777.875 2263.94L777.875 2270.12C777.875 2274.59 772.719 2278.72 764.125 2281.81ZM764.125 2320.31C760 2321.34 755.188 2322.03 750.375 2322.72L750.375 2309.31C754.844 2308.62 759.656 2307.94 764.125 2307.25L764.125 2320.31ZM736.625 2274.94C741.094 2274.25 745.906 2273.56 750.375 2272.88L750.375 2285.94C746.25 2286.97 741.438 2287.66 736.625 2288.34L736.625 2274.94ZM736.625 2324.44C732.156 2324.78 727.688 2325.12 722.875 2325.12L722.875 2311.38C727 2311.38 731.812 2311.03 736.625 2310.69L736.625 2324.44ZM709.125 2290.75 709.125 2277C713.25 2277 718.062 2276.66 722.875 2276.31L722.875 2290.06C718.406 2290.41 713.938 2290.41 709.125 2290.75ZM709.125 2325.12C704.312 2325.12 699.844 2324.78 695.375 2324.44L695.375 2311.38C697.781 2311.38 699.844 2311.38 702.25 2311.38 704.312 2311.38 706.719 2311.38 709.125 2311.38L709.125 2325.12ZM681.625 2276.31C686.094 2276.66 690.562 2277 695.375 2277L695.375 2290.75C690.562 2290.75 686.094 2290.41 681.625 2290.06L681.625 2276.31ZM681.625 2322.72C676.812 2322.03 672 2321.34 667.875 2320.31L667.875 2309.31C672.344 2310 676.812 2310.34 681.625 2310.69L681.625 2322.72ZM654.125 2285.94 654.125 2272.53C658.594 2273.22 663.062 2274.25 667.875 2274.59L667.875 2288.34C663.062 2287.66 658.25 2286.97 654.125 2285.94ZM654.125 2316.19C645.531 2312.75 640.375 2308.62 640.375 2304.5L640.375 2303.81C640.375 2303.81 640.375 2303.81 640.719 2303.81 641.75 2304.16 642.438 2304.5 643.469 2304.5 646.906 2305.53 650.344 2306.22 654.125 2306.91L654.125 2316.19ZM599.125 2269.44C601.531 2269.44 603.594 2269.78 606 2269.78L606 2270.12C606 2274.94 607.031 2279.75 609.438 2283.53 606 2283.53 602.562 2283.19 599.125 2282.84L599.125 2269.44ZM585.375 2228.19C589.844 2228.88 594.312 2229.91 599.125 2230.25L599.125 2244C594.312 2243.31 589.5 2242.62 585.375 2241.59L585.375 2228.19ZM585.375 2281.47C580.562 2280.78 575.75 2280.09 571.625 2279.06L571.625 2265.66C576.094 2266.34 580.562 2267.38 585.375 2267.72L585.375 2281.47ZM557.875 2225.44 557.875 2219.25C562 2221.31 566.469 2223.03 571.625 2224.41L571.625 2237.12C563.031 2234.03 557.875 2229.91 557.875 2225.44ZM557.875 2274.94C549.281 2271.5 544.125 2267.38 544.125 2263.25L544.125 2257.06C548.25 2259.12 552.719 2260.84 557.875 2262.22L557.875 2274.94ZM544.125 2167.69C548.25 2169.75 552.719 2171.47 557.875 2172.84L557.875 2185.56C549.281 2182.12 544.125 2178 544.125 2173.88L544.125 2167.69ZM585.375 2178.69 585.375 2192.44C580.562 2191.75 575.75 2191.06 571.625 2190.03L571.625 2176.62C576.094 2177.31 580.562 2178 585.375 2178.69ZM619.75 2118.88C661.688 2118.88 695.375 2128.16 695.375 2139.5 695.375 2150.84 661.688 2160.12 619.75 2160.12 577.812 2160.12 544.125 2150.84 544.125 2139.5 544.125 2128.16 577.812 2118.88 619.75 2118.88ZM640.375 2281.81C631.781 2278.38 626.625 2274.25 626.625 2270.12L626.625 2263.94C630.75 2266 635.219 2267.72 640.375 2269.09L640.375 2281.81ZM681.625 2185.56 681.625 2173.19C686.438 2171.81 691.25 2169.75 695.375 2167.69L695.375 2173.88C695.375 2178.34 690.219 2182.47 681.625 2185.56ZM654.125 2192.09 654.125 2178.69C658.594 2178 663.406 2177.31 667.875 2176.62L667.875 2189.69C663.75 2190.72 658.938 2191.41 654.125 2192.09ZM626.625 2194.5 626.625 2180.75C630.75 2180.75 635.562 2180.41 640.375 2180.06L640.375 2193.81C635.906 2194.16 631.438 2194.16 626.625 2194.5ZM599.125 2193.81 599.125 2180.06C603.594 2180.41 608.062 2180.75 612.875 2180.75L612.875 2194.5C608.062 2194.16 603.594 2194.16 599.125 2193.81ZM777.875 2235.75C777.875 2247.09 744.188 2256.38 702.25 2256.38 660.312 2256.38 626.625 2247.09 626.625 2235.75 626.625 2224.41 660.312 2215.12 702.25 2215.12 744.188 2215.12 777.875 2224.41 777.875 2235.75ZM798.5 2246.06 798.5 2235.75C798.5 2219.59 785.781 2207.91 761.031 2201.38 751.75 2198.97 741.094 2196.91 729.063 2195.88 729.406 2194.5 729.406 2192.78 729.406 2191.06 729.406 2181.44 724.938 2173.19 715.656 2167L715.656 2139.5C715.656 2123.34 702.938 2111.66 678.188 2105.12 662.031 2100.66 641.406 2098.25 619.406 2098.25 590.531 2098.25 523.156 2102.38 523.156 2139.5L523.156 2173.88C523.156 2183.5 527.625 2191.75 536.906 2197.94L536.906 2204.47C528.656 2210.31 523.156 2218.22 523.156 2228.88L523.156 2263.25C523.156 2279.41 535.875 2291.09 560.625 2297.62 576.781 2302.09 597.406 2304.5 619.406 2304.5 619.406 2320.66 632.125 2332.34 656.875 2338.88 673.031 2343.34 693.656 2345.75 715.656 2345.75 744.531 2345.75 811.906 2341.62 811.906 2304.5L811.906 2270.12C812.25 2260.5 807.781 2252.25 798.5 2246.06Z" stroke="#FFFFFF" stroke-width="3.4375" fill="#404040"/></g></g></g></g></svg>