<svg width="1415" height="824" xmlns="http://www.w3.org/2000/svg" xmlns:xlink="http://www.w3.org/1999/xlink" xml:space="preserve" overflow="hidden"><g transform="translate(-1579 -863)"><g><g><g><path d="M96.25 123.75 96.25 82.5 13.75 165C12.7188 165 96.25 247.5 96.25 247.5L96.25 206.25 316.25 165 96.25 123.75Z" stroke="#FFFFFF" stroke-width="3.4375" transform="matrix(1.92121 0 0 1 1940 1220)"/></g></g></g><g><g><g><path d="M2387.62 1361.5C2387.62 1365.97 2382.47 1370.09 2373.88 1373.19L2373.88 1360.81C2378.69 1359.44 2383.5 1357.38 2387.62 1355.31L2387.62 1361.5ZM2360.12 1338.81 2360.12 1326.44C2364.94 1325.06 2369.75 1323 2373.88 1320.94L2373.88 1327.13C2373.88 1331.59 2368.72 1335.72 2360.12 1338.81ZM2360.12 1377.31C2356 1378.34 2351.19 1379.03 2346.38 1379.72L2346.38 1366.31C2350.84 1365.63 2355.66 1364.94 2360.12 1364.25L2360.12 1377.31ZM2332.62 1331.94C2337.09 1331.25 2341.91 1330.56 2346.38 1329.88L2346.38 1342.94C2342.25 1343.97 2337.44 1344.66 2332.62 1345.34L2332.62 1331.94ZM2332.62 1381.44C2328.16 1381.78 2323.69 1382.13 2318.88 1382.13L2318.88 1368.38C2323 1368.38 2327.81 1368.03 2332.62 1367.69L2332.62 1381.44ZM2305.12 1347.75 2305.12 1334C2309.25 1334 2314.06 1333.66 2318.88 1333.31L2318.88 1347.06C2314.41 1347.41 2309.94 1347.41 2305.12 1347.75ZM2305.12 1382.13C2300.31 1382.13 2295.84 1381.78 2291.38 1381.44L2291.38 1368.38C2293.78 1368.38 2295.84 1368.38 2298.25 1368.38 2300.31 1368.38 2302.72 1368.38 2305.12 1368.38L2305.12 1382.13ZM2277.62 1333.31C2282.09 1333.66 2286.56 1334 2291.38 1334L2291.38 1347.75C2286.56 1347.75 2282.09 1347.41 2277.62 1347.06L2277.62 1333.31ZM2277.62 1379.72C2272.81 1379.03 2268 1378.34 2263.88 1377.31L2263.88 1366.31C2268.34 1367 2272.81 1367.34 2277.62 1367.69L2277.62 1379.72ZM2250.12 1342.94 2250.12 1329.53C2254.59 1330.22 2259.06 1331.25 2263.88 1331.59L2263.88 1345.34C2259.06 1344.66 2254.25 1343.97 2250.12 1342.94ZM2250.12 1373.19C2241.53 1369.75 2236.38 1365.63 2236.38 1361.5L2236.38 1360.81C2236.38 1360.81 2236.38 1360.81 2236.72 1360.81 2237.75 1361.16 2238.44 1361.5 2239.47 1361.5 2242.91 1362.53 2246.34 1363.22 2250.12 1363.91L2250.12 1373.19ZM2195.12 1326.44C2197.53 1326.44 2199.59 1326.78 2202 1326.78L2202 1327.13C2202 1331.94 2203.03 1336.75 2205.44 1340.53 2202 1340.53 2198.56 1340.19 2195.12 1339.84L2195.12 1326.44ZM2181.38 1285.19C2185.84 1285.88 2190.31 1286.91 2195.12 1287.25L2195.12 1301C2190.31 1300.31 2185.5 1299.63 2181.38 1298.59L2181.38 1285.19ZM2181.38 1338.47C2176.56 1337.78 2171.75 1337.09 2167.62 1336.06L2167.62 1322.66C2172.09 1323.34 2176.56 1324.38 2181.38 1324.72L2181.38 1338.47ZM2153.88 1282.44 2153.88 1276.25C2158 1278.31 2162.47 1280.03 2167.62 1281.41L2167.62 1294.13C2159.03 1291.03 2153.88 1286.91 2153.88 1282.44ZM2153.88 1331.94C2145.28 1328.5 2140.12 1324.38 2140.12 1320.25L2140.12 1314.06C2144.25 1316.13 2148.72 1317.84 2153.88 1319.22L2153.88 1331.94ZM2140.12 1224.69C2144.25 1226.75 2148.72 1228.47 2153.88 1229.84L2153.88 1242.56C2145.28 1239.13 2140.12 1235 2140.12 1230.88L2140.12 1224.69ZM2181.38 1235.69 2181.38 1249.44C2176.56 1248.75 2171.75 1248.06 2167.62 1247.03L2167.62 1233.63C2172.09 1234.31 2176.56 1235 2181.38 1235.69ZM2215.75 1175.88C2257.69 1175.88 2291.38 1185.16 2291.38 1196.5 2291.38 1207.84 2257.69 1217.13 2215.75 1217.13 2173.81 1217.13 2140.12 1207.84 2140.12 1196.5 2140.12 1185.16 2173.81 1175.88 2215.75 1175.88ZM2236.38 1338.81C2227.78 1335.38 2222.62 1331.25 2222.62 1327.13L2222.62 1320.94C2226.75 1323 2231.22 1324.72 2236.38 1326.09L2236.38 1338.81ZM2277.62 1242.56 2277.62 1230.19C2282.44 1228.81 2287.25 1226.75 2291.38 1224.69L2291.38 1230.88C2291.38 1235.34 2286.22 1239.47 2277.62 1242.56ZM2250.12 1249.09 2250.12 1235.69C2254.59 1235 2259.41 1234.31 2263.88 1233.63L2263.88 1246.69C2259.75 1247.72 2254.94 1248.41 2250.12 1249.09ZM2222.62 1251.5 2222.62 1237.75C2226.75 1237.75 2231.56 1237.41 2236.38 1237.06L2236.38 1250.81C2231.91 1251.16 2227.44 1251.16 2222.62 1251.5ZM2195.12 1250.81 2195.12 1237.06C2199.59 1237.41 2204.06 1237.75 2208.88 1237.75L2208.88 1251.5C2204.06 1251.16 2199.59 1251.16 2195.12 1250.81ZM2373.88 1292.75C2373.88 1304.09 2340.19 1313.38 2298.25 1313.38 2256.31 1313.38 2222.62 1304.09 2222.62 1292.75 2222.62 1281.41 2256.31 1272.13 2298.25 1272.13 2340.19 1272.13 2373.88 1281.41 2373.88 1292.75ZM2394.5 1303.06 2394.5 1292.75C2394.5 1276.59 2381.78 1264.91 2357.03 1258.38 2347.75 1255.97 2337.09 1253.91 2325.06 1252.88 2325.41 1251.5 2325.41 1249.78 2325.41 1248.06 2325.41 1238.44 2320.94 1230.19 2311.66 1224L2311.66 1196.5C2311.66 1180.34 2298.94 1168.66 2274.19 1162.13 2258.03 1157.66 2237.41 1155.25 2215.41 1155.25 2186.53 1155.25 2119.16 1159.38 2119.16 1196.5L2119.16 1230.88C2119.16 1240.5 2123.62 1248.75 2132.91 1254.94L2132.91 1261.47C2124.66 1267.31 2119.16 1275.22 2119.16 1285.88L2119.16 1320.25C2119.16 1336.41 2131.88 1348.09 2156.62 1354.63 2172.78 1359.09 2193.41 1361.5 2215.41 1361.5 2215.41 1377.66 2228.12 1389.34 2252.88 1395.88 2269.03 1400.34 2289.66 1402.75 2311.66 1402.75 2340.53 1402.75 2407.91 1398.63 2407.91 1361.5L2407.91 1327.13C2408.25 1317.5 2403.78 1309.25 2394.5 1303.06Z" stroke="#FFFFFF" stroke-width="3.4375" fill="#404040"/></g></g></g><path d="M1582 1550C1582 1501.95 1702.21 1463 1850.5 1463 1998.79 1463 2119 1501.95 2119 1550 2119 1598.05 1998.79 1637 1850.5 1637 1702.21 1637 1582 1598.05 1582 1550Z" stroke="#262626" stroke-width="5.72917" stroke-linejoin="round" stroke-miterlimit="10" fill="#7F7F7F" fill-rule="evenodd"/><g><g><g><path d="M313.25 61.5312C313.25 86.246 293.215 106.281 268.5 106.281 243.785 106.281 223.75 86.246 223.75 61.5312 223.75 36.8165 243.785 16.7812 268.5 16.7812 293.215 16.7812 313.25 36.8165 313.25 61.5312Z" stroke="#000000" stroke-width="5.59375" transform="matrix(1 0 0 1.00186 1582 1012)"/><path d="M390.444 291.994 359.119 158.862C358 154.387 355.762 149.912 352.406 146.556 338.981 135.369 323.319 127.537 305.419 121.944 293.112 119.706 280.806 117.469 268.5 117.469 256.194 117.469 243.887 119.706 231.581 123.062 213.681 127.537 198.019 136.487 184.594 147.675 181.237 151.031 179 155.506 177.881 159.981L146.556 293.112C146.556 294.231 145.437 296.469 145.437 298.706 145.437 311.012 155.506 321.081 167.812 321.081 177.881 321.081 186.831 313.25 189.069 304.3L212.562 206.969 212.562 520.219 257.312 520.219 257.312 318.844 279.687 318.844 279.687 520.219 324.437 520.219 324.437 205.85 347.931 303.181C350.169 312.131 359.119 319.962 369.187 319.962 381.494 319.962 391.562 309.894 391.562 297.587 391.562 295.35 390.444 293.112 390.444 291.994Z" stroke="#000000" stroke-width="5.59375" transform="matrix(1 0 0 1.00186 1582 1012)"/></g></g></g><text font-family="Rockwell,Rockwell_MSFontService,sans-serif" font-weight="700" font-size="73" transform="matrix(1 0 0 1 1825.1 956)">A</text><path d="M2429 1550C2429 1501.95 2549.21 1463 2697.5 1463 2845.79 1463 2966 1501.95 2966 1550 2966 1598.05 2845.79 1637 2697.5 1637 2549.21 1637 2429 1598.05 2429 1550Z" stroke="#262626" stroke-width="5.72917" stroke-linejoin="round" stroke-miterlimit="10" fill="#7F7F7F" fill-rule="evenodd"/><g><g><g><path d="M313.25 61.5312C313.25 86.246 293.215 106.281 268.5 106.281 243.785 106.281 223.75 86.246 223.75 61.5312 223.75 36.8165 243.785 16.7812 268.5 16.7812 293.215 16.7812 313.25 36.8165 313.25 61.5312Z" stroke="#000000" stroke-width="5.59375" transform="matrix(1 0 0 1.00186 2429 1012)"/><path d="M390.444 291.994 359.119 158.862C358 154.387 355.762 149.912 352.406 146.556 338.981 135.369 323.319 127.537 305.419 121.944 293.112 119.706 280.806 117.469 268.5 117.469 256.194 117.469 243.887 119.706 231.581 123.062 213.681 127.537 198.019 136.487 184.594 147.675 181.237 151.031 179 155.506 177.881 159.981L146.556 293.112C146.556 294.231 145.437 296.469 145.437 298.706 145.437 311.012 155.506 321.081 167.812 321.081 177.881 321.081 186.831 313.25 189.069 304.3L212.562 206.969 212.562 520.219 257.312 520.219 257.312 318.844 279.687 318.844 279.687 520.219 324.437 520.219 324.437 205.85 347.931 303.181C350.169 312.131 359.119 319.962 369.187 319.962 381.494 319.962 391.562 309.894 391.562 297.587 391.562 295.35 390.444 293.112 390.444 291.994Z" stroke="#000000" stroke-width="5.59375" transform="matrix(1 0 0 1.00186 2429 1012)"/></g></g></g><text font-family="Rockwell,Rockwell_MSFontService,sans-serif" font-weight="700" font-size="73" transform="matrix(1 0 0 1 2671.97 956)">B</text><g><g><g><path d="M2959.62 1568.5C2959.62 1572.97 2954.47 1577.09 2945.88 1580.19L2945.88 1567.81C2950.69 1566.44 2955.5 1564.38 2959.62 1562.31L2959.62 1568.5ZM2932.12 1545.81 2932.12 1533.44C2936.94 1532.06 2941.75 1530 2945.88 1527.94L2945.88 1534.12C2945.88 1538.59 2940.72 1542.72 2932.12 1545.81ZM2932.12 1584.31C2928 1585.34 2923.19 1586.03 2918.38 1586.72L2918.38 1573.31C2922.84 1572.62 2927.66 1571.94 2932.12 1571.25L2932.12 1584.31ZM2904.62 1538.94C2909.09 1538.25 2913.91 1537.56 2918.38 1536.88L2918.38 1549.94C2914.25 1550.97 2909.44 1551.66 2904.62 1552.34L2904.62 1538.94ZM2904.62 1588.44C2900.16 1588.78 2895.69 1589.12 2890.88 1589.12L2890.88 1575.38C2895 1575.38 2899.81 1575.03 2904.62 1574.69L2904.62 1588.44ZM2877.12 1554.75 2877.12 1541C2881.25 1541 2886.06 1540.66 2890.88 1540.31L2890.88 1554.06C2886.41 1554.41 2881.94 1554.41 2877.12 1554.75ZM2877.12 1589.12C2872.31 1589.12 2867.84 1588.78 2863.38 1588.44L2863.38 1575.38C2865.78 1575.38 2867.84 1575.38 2870.25 1575.38 2872.31 1575.38 2874.72 1575.38 2877.12 1575.38L2877.12 1589.12ZM2849.62 1540.31C2854.09 1540.66 2858.56 1541 2863.38 1541L2863.38 1554.75C2858.56 1554.75 2854.09 1554.41 2849.62 1554.06L2849.62 1540.31ZM2849.62 1586.72C2844.81 1586.03 2840 1585.34 2835.88 1584.31L2835.88 1573.31C2840.34 1574 2844.81 1574.34 2849.62 1574.69L2849.62 1586.72ZM2822.12 1549.94 2822.12 1536.53C2826.59 1537.22 2831.06 1538.25 2835.88 1538.59L2835.88 1552.34C2831.06 1551.66 2826.25 1550.97 2822.12 1549.94ZM2822.12 1580.19C2813.53 1576.75 2808.38 1572.62 2808.38 1568.5L2808.38 1567.81C2808.38 1567.81 2808.38 1567.81 2808.72 1567.81 2809.75 1568.16 2810.44 1568.5 2811.47 1568.5 2814.91 1569.53 2818.34 1570.22 2822.12 1570.91L2822.12 1580.19ZM2767.12 1533.44C2769.53 1533.44 2771.59 1533.78 2774 1533.78L2774 1534.12C2774 1538.94 2775.03 1543.75 2777.44 1547.53 2774 1547.53 2770.56 1547.19 2767.12 1546.84L2767.12 1533.44ZM2753.38 1492.19C2757.84 1492.88 2762.31 1493.91 2767.12 1494.25L2767.12 1508C2762.31 1507.31 2757.5 1506.62 2753.38 1505.59L2753.38 1492.19ZM2753.38 1545.47C2748.56 1544.78 2743.75 1544.09 2739.62 1543.06L2739.62 1529.66C2744.09 1530.34 2748.56 1531.38 2753.38 1531.72L2753.38 1545.47ZM2725.88 1489.44 2725.88 1483.25C2730 1485.31 2734.47 1487.03 2739.62 1488.41L2739.62 1501.12C2731.03 1498.03 2725.88 1493.91 2725.88 1489.44ZM2725.88 1538.94C2717.28 1535.5 2712.12 1531.38 2712.12 1527.25L2712.12 1521.06C2716.25 1523.12 2720.72 1524.84 2725.88 1526.22L2725.88 1538.94ZM2712.12 1431.69C2716.25 1433.75 2720.72 1435.47 2725.88 1436.84L2725.88 1449.56C2717.28 1446.12 2712.12 1442 2712.12 1437.88L2712.12 1431.69ZM2753.38 1442.69 2753.38 1456.44C2748.56 1455.75 2743.75 1455.06 2739.62 1454.03L2739.62 1440.62C2744.09 1441.31 2748.56 1442 2753.38 1442.69ZM2787.75 1382.88C2829.69 1382.88 2863.38 1392.16 2863.38 1403.5 2863.38 1414.84 2829.69 1424.12 2787.75 1424.12 2745.81 1424.12 2712.12 1414.84 2712.12 1403.5 2712.12 1392.16 2745.81 1382.88 2787.75 1382.88ZM2808.38 1545.81C2799.78 1542.38 2794.62 1538.25 2794.62 1534.12L2794.62 1527.94C2798.75 1530 2803.22 1531.72 2808.38 1533.09L2808.38 1545.81ZM2849.62 1449.56 2849.62 1437.19C2854.44 1435.81 2859.25 1433.75 2863.38 1431.69L2863.38 1437.88C2863.38 1442.34 2858.22 1446.47 2849.62 1449.56ZM2822.12 1456.09 2822.12 1442.69C2826.59 1442 2831.41 1441.31 2835.88 1440.62L2835.88 1453.69C2831.75 1454.72 2826.94 1455.41 2822.12 1456.09ZM2794.62 1458.5 2794.62 1444.75C2798.75 1444.75 2803.56 1444.41 2808.38 1444.06L2808.38 1457.81C2803.91 1458.16 2799.44 1458.16 2794.62 1458.5ZM2767.12 1457.81 2767.12 1444.06C2771.59 1444.41 2776.06 1444.75 2780.88 1444.75L2780.88 1458.5C2776.06 1458.16 2771.59 1458.16 2767.12 1457.81ZM2945.88 1499.75C2945.88 1511.09 2912.19 1520.38 2870.25 1520.38 2828.31 1520.38 2794.62 1511.09 2794.62 1499.75 2794.62 1488.41 2828.31 1479.12 2870.25 1479.12 2912.19 1479.12 2945.88 1488.41 2945.88 1499.75ZM2966.5 1510.06 2966.5 1499.75C2966.5 1483.59 2953.78 1471.91 2929.03 1465.38 2919.75 1462.97 2909.09 1460.91 2897.06 1459.88 2897.41 1458.5 2897.41 1456.78 2897.41 1455.06 2897.41 1445.44 2892.94 1437.19 2883.66 1431L2883.66 1403.5C2883.66 1387.34 2870.94 1375.66 2846.19 1369.12 2830.03 1364.66 2809.41 1362.25 2787.41 1362.25 2758.53 1362.25 2691.16 1366.38 2691.16 1403.5L2691.16 1437.88C2691.16 1447.5 2695.62 1455.75 2704.91 1461.94L2704.91 1468.47C2696.66 1474.31 2691.16 1482.22 2691.16 1492.88L2691.16 1527.25C2691.16 1543.41 2703.88 1555.09 2728.62 1561.62 2744.78 1566.09 2765.41 1568.5 2787.41 1568.5 2787.41 1584.66 2800.12 1596.34 2824.88 1602.88 2841.03 1607.34 2861.66 1609.75 2883.66 1609.75 2912.53 1609.75 2979.91 1605.62 2979.91 1568.5L2979.91 1534.12C2980.25 1524.5 2975.78 1516.25 2966.5 1510.06Z" stroke="#FFFFFF" stroke-width="3.4375" fill="#404040"/></g></g></g><g><g><g><path d="M2766.62 1604.5C2766.62 1608.97 2761.47 1613.09 2752.87 1616.19L2752.87 1603.81C2757.69 1602.44 2762.5 1600.38 2766.62 1598.31L2766.62 1604.5ZM2739.12 1581.81 2739.12 1569.44C2743.94 1568.06 2748.75 1566 2752.87 1563.94L2752.87 1570.13C2752.87 1574.59 2747.72 1578.72 2739.12 1581.81ZM2739.12 1620.31C2735 1621.34 2730.19 1622.03 2725.37 1622.72L2725.37 1609.31C2729.84 1608.63 2734.66 1607.94 2739.12 1607.25L2739.12 1620.31ZM2711.62 1574.94C2716.09 1574.25 2720.91 1573.56 2725.37 1572.88L2725.37 1585.94C2721.25 1586.97 2716.44 1587.66 2711.62 1588.34L2711.62 1574.94ZM2711.62 1624.44C2707.16 1624.78 2702.69 1625.13 2697.87 1625.13L2697.87 1611.38C2702 1611.38 2706.81 1611.03 2711.62 1610.69L2711.62 1624.44ZM2684.12 1590.75 2684.12 1577C2688.25 1577 2693.06 1576.66 2697.87 1576.31L2697.87 1590.06C2693.41 1590.41 2688.94 1590.41 2684.12 1590.75ZM2684.12 1625.13C2679.31 1625.13 2674.84 1624.78 2670.37 1624.44L2670.37 1611.38C2672.78 1611.38 2674.84 1611.38 2677.25 1611.38 2679.31 1611.38 2681.72 1611.38 2684.12 1611.38L2684.12 1625.13ZM2656.62 1576.31C2661.09 1576.66 2665.56 1577 2670.37 1577L2670.37 1590.75C2665.56 1590.75 2661.09 1590.41 2656.62 1590.06L2656.62 1576.31ZM2656.62 1622.72C2651.81 1622.03 2647 1621.34 2642.87 1620.31L2642.87 1609.31C2647.34 1610 2651.81 1610.34 2656.62 1610.69L2656.62 1622.72ZM2629.12 1585.94 2629.12 1572.53C2633.59 1573.22 2638.06 1574.25 2642.87 1574.59L2642.87 1588.34C2638.06 1587.66 2633.25 1586.97 2629.12 1585.94ZM2629.12 1616.19C2620.53 1612.75 2615.37 1608.63 2615.37 1604.5L2615.37 1603.81C2615.37 1603.81 2615.37 1603.81 2615.72 1603.81 2616.75 1604.16 2617.44 1604.5 2618.47 1604.5 2621.91 1605.53 2625.34 1606.22 2629.12 1606.91L2629.12 1616.19ZM2574.12 1569.44C2576.53 1569.44 2578.59 1569.78 2581 1569.78L2581 1570.13C2581 1574.94 2582.03 1579.75 2584.44 1583.53 2581 1583.53 2577.56 1583.19 2574.12 1582.84L2574.12 1569.44ZM2560.37 1528.19C2564.84 1528.88 2569.31 1529.91 2574.12 1530.25L2574.12 1544C2569.31 1543.31 2564.5 1542.63 2560.37 1541.59L2560.37 1528.19ZM2560.37 1581.47C2555.56 1580.78 2550.75 1580.09 2546.62 1579.06L2546.62 1565.66C2551.09 1566.34 2555.56 1567.38 2560.37 1567.72L2560.37 1581.47ZM2532.87 1525.44 2532.87 1519.25C2537 1521.31 2541.47 1523.03 2546.62 1524.41L2546.62 1537.13C2538.03 1534.03 2532.87 1529.91 2532.87 1525.44ZM2532.87 1574.94C2524.28 1571.5 2519.12 1567.38 2519.12 1563.25L2519.12 1557.06C2523.25 1559.13 2527.72 1560.84 2532.87 1562.22L2532.87 1574.94ZM2519.12 1467.69C2523.25 1469.75 2527.72 1471.47 2532.87 1472.84L2532.87 1485.56C2524.28 1482.13 2519.12 1478 2519.12 1473.88L2519.12 1467.69ZM2560.37 1478.69 2560.37 1492.44C2555.56 1491.75 2550.75 1491.06 2546.62 1490.03L2546.62 1476.63C2551.09 1477.31 2555.56 1478 2560.37 1478.69ZM2594.75 1418.88C2636.69 1418.88 2670.37 1428.16 2670.37 1439.5 2670.37 1450.84 2636.69 1460.13 2594.75 1460.13 2552.81 1460.13 2519.12 1450.84 2519.12 1439.5 2519.12 1428.16 2552.81 1418.88 2594.75 1418.88ZM2615.37 1581.81C2606.78 1578.38 2601.62 1574.25 2601.62 1570.13L2601.62 1563.94C2605.75 1566 2610.22 1567.72 2615.37 1569.09L2615.37 1581.81ZM2656.62 1485.56 2656.62 1473.19C2661.44 1471.81 2666.25 1469.75 2670.37 1467.69L2670.37 1473.88C2670.37 1478.34 2665.22 1482.47 2656.62 1485.56ZM2629.12 1492.09 2629.12 1478.69C2633.59 1478 2638.41 1477.31 2642.87 1476.63L2642.87 1489.69C2638.75 1490.72 2633.94 1491.41 2629.12 1492.09ZM2601.62 1494.5 2601.62 1480.75C2605.75 1480.75 2610.56 1480.41 2615.37 1480.06L2615.37 1493.81C2610.91 1494.16 2606.44 1494.16 2601.62 1494.5ZM2574.12 1493.81 2574.12 1480.06C2578.59 1480.41 2583.06 1480.75 2587.87 1480.75L2587.87 1494.5C2583.06 1494.16 2578.59 1494.16 2574.12 1493.81ZM2752.87 1535.75C2752.87 1547.09 2719.19 1556.38 2677.25 1556.38 2635.31 1556.38 2601.62 1547.09 2601.62 1535.75 2601.62 1524.41 2635.31 1515.13 2677.25 1515.13 2719.19 1515.13 2752.87 1524.41 2752.87 1535.75ZM2773.5 1546.06 2773.5 1535.75C2773.5 1519.59 2760.78 1507.91 2736.03 1501.38 2726.75 1498.97 2716.09 1496.91 2704.06 1495.88 2704.41 1494.5 2704.41 1492.78 2704.41 1491.06 2704.41 1481.44 2699.94 1473.19 2690.66 1467L2690.66 1439.5C2690.66 1423.34 2677.94 1411.66 2653.19 1405.13 2637.03 1400.66 2616.41 1398.25 2594.41 1398.25 2565.53 1398.25 2498.16 1402.38 2498.16 1439.5L2498.16 1473.88C2498.16 1483.5 2502.62 1491.75 2511.91 1497.94L2511.91 1504.47C2503.66 1510.31 2498.16 1518.22 2498.16 1528.88L2498.16 1563.25C2498.16 1579.41 2510.87 1591.09 2535.62 1597.63 2551.78 1602.09 2572.41 1604.5 2594.41 1604.5 2594.41 1620.66 2607.12 1632.34 2631.87 1638.88 2648.03 1643.34 2668.66 1645.75 2690.66 1645.75 2719.53 1645.75 2786.91 1641.63 2786.91 1604.5L2786.91 1570.13C2787.25 1560.5 2782.78 1552.25 2773.5 1546.06Z" stroke="#FFFFFF" stroke-width="3.4375" fill="#404040"/></g></g></g><g><g><g><path d="M1905.63 1581.5C1905.63 1585.97 1900.47 1590.09 1891.88 1593.19L1891.88 1580.81C1896.69 1579.44 1901.5 1577.38 1905.63 1575.31L1905.63 1581.5ZM1878.13 1558.81 1878.13 1546.44C1882.94 1545.06 1887.75 1543 1891.88 1540.94L1891.88 1547.13C1891.88 1551.59 1886.72 1555.72 1878.13 1558.81ZM1878.13 1597.31C1874 1598.34 1869.19 1599.03 1864.38 1599.72L1864.38 1586.31C1868.84 1585.63 1873.66 1584.94 1878.13 1584.25L1878.13 1597.31ZM1850.63 1551.94C1855.09 1551.25 1859.91 1550.56 1864.38 1549.88L1864.38 1562.94C1860.25 1563.97 1855.44 1564.66 1850.63 1565.34L1850.63 1551.94ZM1850.63 1601.44C1846.16 1601.78 1841.69 1602.13 1836.88 1602.13L1836.88 1588.38C1841 1588.38 1845.81 1588.03 1850.63 1587.69L1850.63 1601.44ZM1823.13 1567.75 1823.13 1554C1827.25 1554 1832.06 1553.66 1836.88 1553.31L1836.88 1567.06C1832.41 1567.41 1827.94 1567.41 1823.13 1567.75ZM1823.13 1602.13C1818.31 1602.13 1813.84 1601.78 1809.38 1601.44L1809.38 1588.38C1811.78 1588.38 1813.84 1588.38 1816.25 1588.38 1818.31 1588.38 1820.72 1588.38 1823.13 1588.38L1823.13 1602.13ZM1795.63 1553.31C1800.09 1553.66 1804.56 1554 1809.38 1554L1809.38 1567.75C1804.56 1567.75 1800.09 1567.41 1795.63 1567.06L1795.63 1553.31ZM1795.63 1599.72C1790.81 1599.03 1786 1598.34 1781.88 1597.31L1781.88 1586.31C1786.34 1587 1790.81 1587.34 1795.63 1587.69L1795.63 1599.72ZM1768.13 1562.94 1768.13 1549.53C1772.59 1550.22 1777.06 1551.25 1781.88 1551.59L1781.88 1565.34C1777.06 1564.66 1772.25 1563.97 1768.13 1562.94ZM1768.13 1593.19C1759.53 1589.75 1754.38 1585.63 1754.38 1581.5L1754.38 1580.81C1754.38 1580.81 1754.38 1580.81 1754.72 1580.81 1755.75 1581.16 1756.44 1581.5 1757.47 1581.5 1760.91 1582.53 1764.34 1583.22 1768.13 1583.91L1768.13 1593.19ZM1713.13 1546.44C1715.53 1546.44 1717.59 1546.78 1720 1546.78L1720 1547.13C1720 1551.94 1721.03 1556.75 1723.44 1560.53 1720 1560.53 1716.56 1560.19 1713.13 1559.84L1713.13 1546.44ZM1699.38 1505.19C1703.84 1505.88 1708.31 1506.91 1713.13 1507.25L1713.13 1521C1708.31 1520.31 1703.5 1519.63 1699.38 1518.59L1699.38 1505.19ZM1699.38 1558.47C1694.56 1557.78 1689.75 1557.09 1685.63 1556.06L1685.63 1542.66C1690.09 1543.34 1694.56 1544.38 1699.38 1544.72L1699.38 1558.47ZM1671.88 1502.44 1671.88 1496.25C1676 1498.31 1680.47 1500.03 1685.63 1501.41L1685.63 1514.13C1677.03 1511.03 1671.88 1506.91 1671.88 1502.44ZM1671.88 1551.94C1663.28 1548.5 1658.13 1544.38 1658.13 1540.25L1658.13 1534.06C1662.25 1536.13 1666.72 1537.84 1671.88 1539.22L1671.88 1551.94ZM1658.13 1444.69C1662.25 1446.75 1666.72 1448.47 1671.88 1449.84L1671.88 1462.56C1663.28 1459.13 1658.13 1455 1658.13 1450.88L1658.13 1444.69ZM1699.38 1455.69 1699.38 1469.44C1694.56 1468.75 1689.75 1468.06 1685.63 1467.03L1685.63 1453.63C1690.09 1454.31 1694.56 1455 1699.38 1455.69ZM1733.75 1395.88C1775.69 1395.88 1809.38 1405.16 1809.38 1416.5 1809.38 1427.84 1775.69 1437.13 1733.75 1437.13 1691.81 1437.13 1658.13 1427.84 1658.13 1416.5 1658.13 1405.16 1691.81 1395.88 1733.75 1395.88ZM1754.38 1558.81C1745.78 1555.38 1740.63 1551.25 1740.63 1547.13L1740.63 1540.94C1744.75 1543 1749.22 1544.72 1754.38 1546.09L1754.38 1558.81ZM1795.63 1462.56 1795.63 1450.19C1800.44 1448.81 1805.25 1446.75 1809.38 1444.69L1809.38 1450.88C1809.38 1455.34 1804.22 1459.47 1795.63 1462.56ZM1768.13 1469.09 1768.13 1455.69C1772.59 1455 1777.41 1454.31 1781.88 1453.63L1781.88 1466.69C1777.75 1467.72 1772.94 1468.41 1768.13 1469.09ZM1740.63 1471.5 1740.63 1457.75C1744.75 1457.75 1749.56 1457.41 1754.38 1457.06L1754.38 1470.81C1749.91 1471.16 1745.44 1471.16 1740.63 1471.5ZM1713.13 1470.81 1713.13 1457.06C1717.59 1457.41 1722.06 1457.75 1726.88 1457.75L1726.88 1471.5C1722.06 1471.16 1717.59 1471.16 1713.13 1470.81ZM1891.88 1512.75C1891.88 1524.09 1858.19 1533.38 1816.25 1533.38 1774.31 1533.38 1740.63 1524.09 1740.63 1512.75 1740.63 1501.41 1774.31 1492.13 1816.25 1492.13 1858.19 1492.13 1891.88 1501.41 1891.88 1512.75ZM1912.5 1523.06 1912.5 1512.75C1912.5 1496.59 1899.78 1484.91 1875.03 1478.38 1865.75 1475.97 1855.09 1473.91 1843.06 1472.88 1843.41 1471.5 1843.41 1469.78 1843.41 1468.06 1843.41 1458.44 1838.94 1450.19 1829.66 1444L1829.66 1416.5C1829.66 1400.34 1816.94 1388.66 1792.19 1382.13 1776.03 1377.66 1755.41 1375.25 1733.41 1375.25 1704.53 1375.25 1637.16 1379.38 1637.16 1416.5L1637.16 1450.88C1637.16 1460.5 1641.63 1468.75 1650.91 1474.94L1650.91 1481.47C1642.66 1487.31 1637.16 1495.22 1637.16 1505.88L1637.16 1540.25C1637.16 1556.41 1649.88 1568.09 1674.63 1574.63 1690.78 1579.09 1711.41 1581.5 1733.41 1581.5 1733.41 1597.66 1746.13 1609.34 1770.88 1615.88 1787.03 1620.34 1807.66 1622.75 1829.66 1622.75 1858.53 1622.75 1925.91 1618.63 1925.91 1581.5L1925.91 1547.13C1926.25 1537.5 1921.78 1529.25 1912.5 1523.06Z" stroke="#FFFFFF" stroke-width="3.4375" fill="#404040"/></g></g></g></g></svg>