<svg width="1415" height="824" xmlns="http://www.w3.org/2000/svg" xmlns:xlink="http://www.w3.org/1999/xlink" xml:space="preserve" overflow="hidden"><g transform="translate(-1757 -109)"><path d="M1760 796C1760 747.951 1880.44 709 2029 709 2177.56 709 2298 747.951 2298 796 2298 844.049 2177.56 883 2029 883 1880.44 883 1760 844.049 1760 796Z" stroke="#262626" stroke-width="5.72917" stroke-linejoin="round" stroke-miterlimit="10" fill="#7F7F7F" fill-rule="evenodd"/><g><g><g><path d="M313.25 61.5313C313.25 86.246 293.215 106.281 268.5 106.281 243.785 106.281 223.75 86.246 223.75 61.5313 223.75 36.8165 243.785 16.7813 268.5 16.7813 293.215 16.7813 313.25 36.8165 313.25 61.5313Z" stroke="#000000" stroke-width="5.59375" transform="matrix(1.00186 0 0 1 1760 259)"/><path d="M390.444 291.994 359.119 158.863C358 154.388 355.763 149.913 352.406 146.556 338.981 135.369 323.319 127.538 305.419 121.944 293.113 119.706 280.806 117.469 268.5 117.469 256.194 117.469 243.888 119.706 231.581 123.063 213.681 127.538 198.019 136.488 184.594 147.675 181.238 151.031 179 155.506 177.881 159.981L146.556 293.113C146.556 294.231 145.438 296.469 145.438 298.706 145.438 311.013 155.506 321.081 167.813 321.081 177.881 321.081 186.831 313.25 189.069 304.3L212.563 206.969 212.563 520.219 257.313 520.219 257.313 318.844 279.688 318.844 279.688 520.219 324.438 520.219 324.438 205.85 347.931 303.181C350.169 312.131 359.119 319.963 369.188 319.963 381.494 319.963 391.563 309.894 391.563 297.588 391.563 295.35 390.444 293.113 390.444 291.994Z" stroke="#000000" stroke-width="5.59375" transform="matrix(1.00186 0 0 1 1760 259)"/></g></g></g><text font-family="Rockwell,Rockwell_MSFontService,sans-serif" font-weight="700" font-size="73" transform="matrix(1 0 0 1 2003.39 203)">A</text><path d="M2607 796C2607 747.951 2727.44 709 2876 709 3024.56 709 3145 747.951 3145 796 3145 844.049 3024.56 883 2876 883 2727.44 883 2607 844.049 2607 796Z" stroke="#262626" stroke-width="5.72917" stroke-linejoin="round" stroke-miterlimit="10" fill="#7F7F7F" fill-rule="evenodd"/><g><g><g><path d="M313.25 61.5313C313.25 86.246 293.215 106.281 268.5 106.281 243.785 106.281 223.75 86.246 223.75 61.5313 223.75 36.8165 243.785 16.7813 268.5 16.7813 293.215 16.7813 313.25 36.8165 313.25 61.5313Z" stroke="#000000" stroke-width="5.59375" transform="matrix(1.00186 0 0 1 2607 259)"/><path d="M390.444 291.994 359.119 158.863C358 154.388 355.763 149.913 352.406 146.556 338.981 135.369 323.319 127.538 305.419 121.944 293.113 119.706 280.806 117.469 268.5 117.469 256.194 117.469 243.888 119.706 231.581 123.063 213.681 127.538 198.019 136.488 184.594 147.675 181.238 151.031 179 155.506 177.881 159.981L146.556 293.113C146.556 294.231 145.438 296.469 145.438 298.706 145.438 311.013 155.506 321.081 167.813 321.081 177.881 321.081 186.831 313.25 189.069 304.3L212.563 206.969 212.563 520.219 257.313 520.219 257.313 318.844 279.688 318.844 279.688 520.219 324.438 520.219 324.438 205.85 347.931 303.181C350.169 312.131 359.119 319.963 369.188 319.963 381.494 319.963 391.563 309.894 391.563 297.588 391.563 295.35 390.444 293.113 390.444 291.994Z" stroke="#000000" stroke-width="5.59375" transform="matrix(1.00186 0 0 1 2607 259)"/></g></g></g><text font-family="Rockwell,Rockwell_MSFontService,sans-serif" font-weight="700" font-size="73" transform="matrix(1 0 0 1 2850.26 203)">B</text><g><g><g><path d="M3137.63 814.5C3137.63 818.969 3132.47 823.094 3123.88 826.187L3123.88 813.812C3128.69 812.437 3133.5 810.375 3137.63 808.312L3137.63 814.5ZM3110.13 791.812 3110.13 779.437C3114.94 778.062 3119.75 776 3123.88 773.937L3123.88 780.125C3123.88 784.594 3118.72 788.719 3110.13 791.812ZM3110.13 830.312C3106 831.344 3101.19 832.031 3096.38 832.719L3096.38 819.312C3100.84 818.625 3105.66 817.937 3110.13 817.25L3110.13 830.312ZM3082.63 784.937C3087.09 784.25 3091.91 783.562 3096.38 782.875L3096.38 795.937C3092.25 796.969 3087.44 797.656 3082.63 798.344L3082.63 784.937ZM3082.63 834.437C3078.16 834.781 3073.69 835.125 3068.88 835.125L3068.88 821.375C3073 821.375 3077.81 821.031 3082.63 820.687L3082.63 834.437ZM3055.13 800.75 3055.13 787C3059.25 787 3064.06 786.656 3068.88 786.312L3068.88 800.062C3064.41 800.406 3059.94 800.406 3055.13 800.75ZM3055.13 835.125C3050.31 835.125 3045.84 834.781 3041.38 834.437L3041.38 821.375C3043.78 821.375 3045.84 821.375 3048.25 821.375 3050.31 821.375 3052.72 821.375 3055.13 821.375L3055.13 835.125ZM3027.63 786.312C3032.09 786.656 3036.56 787 3041.38 787L3041.38 800.75C3036.56 800.75 3032.09 800.406 3027.63 800.062L3027.63 786.312ZM3027.63 832.719C3022.81 832.031 3018 831.344 3013.88 830.312L3013.88 819.312C3018.34 820 3022.81 820.344 3027.63 820.687L3027.63 832.719ZM3000.13 795.937 3000.13 782.531C3004.59 783.219 3009.06 784.25 3013.88 784.594L3013.88 798.344C3009.06 797.656 3004.25 796.969 3000.13 795.937ZM3000.13 826.187C2991.53 822.75 2986.38 818.625 2986.38 814.5L2986.38 813.812C2986.38 813.812 2986.38 813.812 2986.72 813.812 2987.75 814.156 2988.44 814.5 2989.47 814.5 2992.91 815.531 2996.34 816.219 3000.13 816.906L3000.13 826.187ZM2945.13 779.437C2947.53 779.437 2949.59 779.781 2952 779.781L2952 780.125C2952 784.937 2953.03 789.75 2955.44 793.531 2952 793.531 2948.56 793.187 2945.13 792.844L2945.13 779.437ZM2931.38 738.187C2935.84 738.875 2940.31 739.906 2945.13 740.25L2945.13 754C2940.31 753.312 2935.5 752.625 2931.38 751.594L2931.38 738.187ZM2931.38 791.469C2926.56 790.781 2921.75 790.094 2917.63 789.062L2917.63 775.656C2922.09 776.344 2926.56 777.375 2931.38 777.719L2931.38 791.469ZM2903.88 735.437 2903.88 729.25C2908 731.312 2912.47 733.031 2917.63 734.406L2917.63 747.125C2909.03 744.031 2903.88 739.906 2903.88 735.437ZM2903.88 784.937C2895.28 781.5 2890.13 777.375 2890.13 773.25L2890.13 767.062C2894.25 769.125 2898.72 770.844 2903.88 772.219L2903.88 784.937ZM2890.13 677.687C2894.25 679.75 2898.72 681.469 2903.88 682.844L2903.88 695.562C2895.28 692.125 2890.13 688 2890.13 683.875L2890.13 677.687ZM2931.38 688.687 2931.38 702.437C2926.56 701.75 2921.75 701.062 2917.63 700.031L2917.63 686.625C2922.09 687.312 2926.56 688 2931.38 688.687ZM2965.75 628.875C3007.69 628.875 3041.38 638.156 3041.38 649.5 3041.38 660.844 3007.69 670.125 2965.75 670.125 2923.81 670.125 2890.13 660.844 2890.13 649.5 2890.13 638.156 2923.81 628.875 2965.75 628.875ZM2986.38 791.812C2977.78 788.375 2972.63 784.25 2972.63 780.125L2972.63 773.937C2976.75 776 2981.22 777.719 2986.38 779.094L2986.38 791.812ZM3027.63 695.562 3027.63 683.187C3032.44 681.812 3037.25 679.75 3041.38 677.687L3041.38 683.875C3041.38 688.344 3036.22 692.469 3027.63 695.562ZM3000.13 702.094 3000.13 688.687C3004.59 688 3009.41 687.312 3013.88 686.625L3013.88 699.687C3009.75 700.719 3004.94 701.406 3000.13 702.094ZM2972.63 704.5 2972.63 690.75C2976.75 690.75 2981.56 690.406 2986.38 690.062L2986.38 703.812C2981.91 704.156 2977.44 704.156 2972.63 704.5ZM2945.13 703.812 2945.13 690.062C2949.59 690.406 2954.06 690.75 2958.88 690.75L2958.88 704.5C2954.06 704.156 2949.59 704.156 2945.13 703.812ZM3123.88 745.75C3123.88 757.094 3090.19 766.375 3048.25 766.375 3006.31 766.375 2972.63 757.094 2972.63 745.75 2972.63 734.406 3006.31 725.125 3048.25 725.125 3090.19 725.125 3123.88 734.406 3123.88 745.75ZM3144.5 756.062 3144.5 745.75C3144.5 729.594 3131.78 717.906 3107.03 711.375 3097.75 708.969 3087.09 706.906 3075.06 705.875 3075.41 704.5 3075.41 702.781 3075.41 701.062 3075.41 691.437 3070.94 683.187 3061.66 677L3061.66 649.5C3061.66 633.344 3048.94 621.656 3024.19 615.125 3008.03 610.656 2987.41 608.25 2965.41 608.25 2936.53 608.25 2869.16 612.375 2869.16 649.5L2869.16 683.875C2869.16 693.5 2873.63 701.75 2882.91 707.937L2882.91 714.469C2874.66 720.312 2869.16 728.219 2869.16 738.875L2869.16 773.25C2869.16 789.406 2881.88 801.094 2906.63 807.625 2922.78 812.094 2943.41 814.5 2965.41 814.5 2965.41 830.656 2978.13 842.344 3002.88 848.875 3019.03 853.344 3039.66 855.75 3061.66 855.75 3090.53 855.75 3157.91 851.625 3157.91 814.5L3157.91 780.125C3158.25 770.5 3153.78 762.25 3144.5 756.062Z" stroke="#FFFFFF" stroke-width="3.4375" fill="#404040"/></g></g></g><g><g><g><path d="M2945.62 850.5C2945.62 854.969 2940.47 859.094 2931.88 862.187L2931.88 849.812C2936.69 848.437 2941.5 846.375 2945.62 844.312L2945.62 850.5ZM2918.12 827.812 2918.12 815.437C2922.94 814.062 2927.75 812 2931.88 809.937L2931.88 816.125C2931.88 820.594 2926.72 824.719 2918.12 827.812ZM2918.12 866.312C2914 867.344 2909.19 868.031 2904.38 868.719L2904.38 855.312C2908.84 854.625 2913.66 853.937 2918.12 853.25L2918.12 866.312ZM2890.62 820.937C2895.09 820.25 2899.91 819.562 2904.38 818.875L2904.38 831.937C2900.25 832.969 2895.44 833.656 2890.62 834.344L2890.62 820.937ZM2890.62 870.437C2886.16 870.781 2881.69 871.125 2876.88 871.125L2876.88 857.375C2881 857.375 2885.81 857.031 2890.62 856.687L2890.62 870.437ZM2863.12 836.75 2863.12 823C2867.25 823 2872.06 822.656 2876.88 822.312L2876.88 836.062C2872.41 836.406 2867.94 836.406 2863.12 836.75ZM2863.12 871.125C2858.31 871.125 2853.84 870.781 2849.38 870.437L2849.38 857.375C2851.78 857.375 2853.84 857.375 2856.25 857.375 2858.31 857.375 2860.72 857.375 2863.12 857.375L2863.12 871.125ZM2835.62 822.312C2840.09 822.656 2844.56 823 2849.38 823L2849.38 836.75C2844.56 836.75 2840.09 836.406 2835.62 836.062L2835.62 822.312ZM2835.62 868.719C2830.81 868.031 2826 867.344 2821.88 866.312L2821.88 855.312C2826.34 856 2830.81 856.344 2835.62 856.687L2835.62 868.719ZM2808.12 831.937 2808.12 818.531C2812.59 819.219 2817.06 820.25 2821.88 820.594L2821.88 834.344C2817.06 833.656 2812.25 832.969 2808.12 831.937ZM2808.12 862.187C2799.53 858.75 2794.38 854.625 2794.38 850.5L2794.38 849.812C2794.38 849.812 2794.38 849.812 2794.72 849.812 2795.75 850.156 2796.44 850.5 2797.47 850.5 2800.91 851.531 2804.34 852.219 2808.12 852.906L2808.12 862.187ZM2753.12 815.437C2755.53 815.437 2757.59 815.781 2760 815.781L2760 816.125C2760 820.937 2761.03 825.75 2763.44 829.531 2760 829.531 2756.56 829.187 2753.12 828.844L2753.12 815.437ZM2739.38 774.187C2743.84 774.875 2748.31 775.906 2753.12 776.25L2753.12 790C2748.31 789.312 2743.5 788.625 2739.38 787.594L2739.38 774.187ZM2739.38 827.469C2734.56 826.781 2729.75 826.094 2725.62 825.062L2725.62 811.656C2730.09 812.344 2734.56 813.375 2739.38 813.719L2739.38 827.469ZM2711.88 771.437 2711.88 765.25C2716 767.312 2720.47 769.031 2725.62 770.406L2725.62 783.125C2717.03 780.031 2711.88 775.906 2711.88 771.437ZM2711.88 820.937C2703.28 817.5 2698.12 813.375 2698.12 809.25L2698.12 803.062C2702.25 805.125 2706.72 806.844 2711.88 808.219L2711.88 820.937ZM2698.12 713.687C2702.25 715.75 2706.72 717.469 2711.88 718.844L2711.88 731.562C2703.28 728.125 2698.12 724 2698.12 719.875L2698.12 713.687ZM2739.38 724.687 2739.38 738.437C2734.56 737.75 2729.75 737.062 2725.62 736.031L2725.62 722.625C2730.09 723.312 2734.56 724 2739.38 724.687ZM2773.75 664.875C2815.69 664.875 2849.38 674.156 2849.38 685.5 2849.38 696.844 2815.69 706.125 2773.75 706.125 2731.81 706.125 2698.12 696.844 2698.12 685.5 2698.12 674.156 2731.81 664.875 2773.75 664.875ZM2794.38 827.812C2785.78 824.375 2780.62 820.25 2780.62 816.125L2780.62 809.937C2784.75 812 2789.22 813.719 2794.38 815.094L2794.38 827.812ZM2835.62 731.562 2835.62 719.187C2840.44 717.812 2845.25 715.75 2849.38 713.687L2849.38 719.875C2849.38 724.344 2844.22 728.469 2835.62 731.562ZM2808.12 738.094 2808.12 724.687C2812.59 724 2817.41 723.312 2821.88 722.625L2821.88 735.687C2817.75 736.719 2812.94 737.406 2808.12 738.094ZM2780.62 740.5 2780.62 726.75C2784.75 726.75 2789.56 726.406 2794.38 726.062L2794.38 739.812C2789.91 740.156 2785.44 740.156 2780.62 740.5ZM2753.12 739.812 2753.12 726.062C2757.59 726.406 2762.06 726.75 2766.88 726.75L2766.88 740.5C2762.06 740.156 2757.59 740.156 2753.12 739.812ZM2931.88 781.75C2931.88 793.094 2898.19 802.375 2856.25 802.375 2814.31 802.375 2780.62 793.094 2780.62 781.75 2780.62 770.406 2814.31 761.125 2856.25 761.125 2898.19 761.125 2931.88 770.406 2931.88 781.75ZM2952.5 792.062 2952.5 781.75C2952.5 765.594 2939.78 753.906 2915.03 747.375 2905.75 744.969 2895.09 742.906 2883.06 741.875 2883.41 740.5 2883.41 738.781 2883.41 737.062 2883.41 727.437 2878.94 719.187 2869.66 713L2869.66 685.5C2869.66 669.344 2856.94 657.656 2832.19 651.125 2816.03 646.656 2795.41 644.25 2773.41 644.25 2744.53 644.25 2677.16 648.375 2677.16 685.5L2677.16 719.875C2677.16 729.5 2681.62 737.75 2690.91 743.937L2690.91 750.469C2682.66 756.312 2677.16 764.219 2677.16 774.875L2677.16 809.25C2677.16 825.406 2689.88 837.094 2714.62 843.625 2730.78 848.094 2751.41 850.5 2773.41 850.5 2773.41 866.656 2786.12 878.344 2810.88 884.875 2827.03 889.344 2847.66 891.75 2869.66 891.75 2898.53 891.75 2965.91 887.625 2965.91 850.5L2965.91 816.125C2966.25 806.5 2961.78 798.25 2952.5 792.062Z" stroke="#FFFFFF" stroke-width="3.4375" fill="#404040"/></g></g></g><g><g><g><path d="M2083.62 827.5C2083.62 831.969 2078.47 836.094 2069.88 839.187L2069.88 826.812C2074.69 825.437 2079.5 823.375 2083.62 821.312L2083.62 827.5ZM2056.12 804.812 2056.12 792.437C2060.94 791.062 2065.75 789 2069.88 786.937L2069.88 793.125C2069.88 797.594 2064.72 801.719 2056.12 804.812ZM2056.12 843.312C2052 844.344 2047.19 845.031 2042.37 845.719L2042.37 832.312C2046.84 831.625 2051.66 830.937 2056.12 830.25L2056.12 843.312ZM2028.62 797.937C2033.09 797.25 2037.91 796.562 2042.37 795.875L2042.37 808.937C2038.25 809.969 2033.44 810.656 2028.62 811.344L2028.62 797.937ZM2028.62 847.437C2024.16 847.781 2019.69 848.125 2014.87 848.125L2014.87 834.375C2019 834.375 2023.81 834.031 2028.62 833.687L2028.62 847.437ZM2001.12 813.75 2001.12 800C2005.25 800 2010.06 799.656 2014.87 799.312L2014.87 813.062C2010.41 813.406 2005.94 813.406 2001.12 813.75ZM2001.12 848.125C1996.31 848.125 1991.84 847.781 1987.37 847.437L1987.37 834.375C1989.78 834.375 1991.84 834.375 1994.25 834.375 1996.31 834.375 1998.72 834.375 2001.12 834.375L2001.12 848.125ZM1973.62 799.312C1978.09 799.656 1982.56 800 1987.37 800L1987.37 813.75C1982.56 813.75 1978.09 813.406 1973.62 813.062L1973.62 799.312ZM1973.62 845.719C1968.81 845.031 1964 844.344 1959.87 843.312L1959.87 832.312C1964.34 833 1968.81 833.344 1973.62 833.687L1973.62 845.719ZM1946.12 808.937 1946.12 795.531C1950.59 796.219 1955.06 797.25 1959.87 797.594L1959.87 811.344C1955.06 810.656 1950.25 809.969 1946.12 808.937ZM1946.12 839.187C1937.53 835.75 1932.37 831.625 1932.37 827.5L1932.37 826.812C1932.37 826.812 1932.37 826.812 1932.72 826.812 1933.75 827.156 1934.44 827.5 1935.47 827.5 1938.91 828.531 1942.34 829.219 1946.12 829.906L1946.12 839.187ZM1891.12 792.437C1893.53 792.437 1895.59 792.781 1898 792.781L1898 793.125C1898 797.937 1899.03 802.75 1901.44 806.531 1898 806.531 1894.56 806.187 1891.12 805.844L1891.12 792.437ZM1877.37 751.187C1881.84 751.875 1886.31 752.906 1891.12 753.25L1891.12 767C1886.31 766.312 1881.5 765.625 1877.37 764.594L1877.37 751.187ZM1877.37 804.469C1872.56 803.781 1867.75 803.094 1863.62 802.062L1863.62 788.656C1868.09 789.344 1872.56 790.375 1877.37 790.719L1877.37 804.469ZM1849.87 748.437 1849.87 742.25C1854 744.312 1858.47 746.031 1863.62 747.406L1863.62 760.125C1855.03 757.031 1849.87 752.906 1849.87 748.437ZM1849.87 797.937C1841.28 794.5 1836.12 790.375 1836.12 786.25L1836.12 780.062C1840.25 782.125 1844.72 783.844 1849.87 785.219L1849.87 797.937ZM1836.12 690.687C1840.25 692.75 1844.72 694.469 1849.87 695.844L1849.87 708.562C1841.28 705.125 1836.12 701 1836.12 696.875L1836.12 690.687ZM1877.37 701.687 1877.37 715.437C1872.56 714.75 1867.75 714.062 1863.62 713.031L1863.62 699.625C1868.09 700.312 1872.56 701 1877.37 701.687ZM1911.75 641.875C1953.69 641.875 1987.37 651.156 1987.37 662.5 1987.37 673.844 1953.69 683.125 1911.75 683.125 1869.81 683.125 1836.12 673.844 1836.12 662.5 1836.12 651.156 1869.81 641.875 1911.75 641.875ZM1932.37 804.812C1923.78 801.375 1918.62 797.25 1918.62 793.125L1918.62 786.937C1922.75 789 1927.22 790.719 1932.37 792.094L1932.37 804.812ZM1973.62 708.562 1973.62 696.187C1978.44 694.812 1983.25 692.75 1987.37 690.687L1987.37 696.875C1987.37 701.344 1982.22 705.469 1973.62 708.562ZM1946.12 715.094 1946.12 701.687C1950.59 701 1955.41 700.312 1959.87 699.625L1959.87 712.687C1955.75 713.719 1950.94 714.406 1946.12 715.094ZM1918.62 717.5 1918.62 703.75C1922.75 703.75 1927.56 703.406 1932.37 703.062L1932.37 716.812C1927.91 717.156 1923.44 717.156 1918.62 717.5ZM1891.12 716.812 1891.12 703.062C1895.59 703.406 1900.06 703.75 1904.87 703.75L1904.87 717.5C1900.06 717.156 1895.59 717.156 1891.12 716.812ZM2069.88 758.75C2069.88 770.094 2036.19 779.375 1994.25 779.375 1952.31 779.375 1918.62 770.094 1918.62 758.75 1918.62 747.406 1952.31 738.125 1994.25 738.125 2036.19 738.125 2069.88 747.406 2069.88 758.75ZM2090.5 769.062 2090.5 758.75C2090.5 742.594 2077.78 730.906 2053.03 724.375 2043.75 721.969 2033.09 719.906 2021.06 718.875 2021.41 717.5 2021.41 715.781 2021.41 714.062 2021.41 704.437 2016.94 696.187 2007.66 690L2007.66 662.5C2007.66 646.344 1994.94 634.656 1970.19 628.125 1954.03 623.656 1933.41 621.25 1911.41 621.25 1882.53 621.25 1815.16 625.375 1815.16 662.5L1815.16 696.875C1815.16 706.5 1819.62 714.75 1828.91 720.937L1828.91 727.469C1820.66 733.312 1815.16 741.219 1815.16 751.875L1815.16 786.25C1815.16 802.406 1827.87 814.094 1852.62 820.625 1868.78 825.094 1889.41 827.5 1911.41 827.5 1911.41 843.656 1924.12 855.344 1948.87 861.875 1965.03 866.344 1985.66 868.75 2007.66 868.75 2036.53 868.75 2103.91 864.625 2103.91 827.5L2103.91 793.125C2104.25 783.5 2099.78 775.25 2090.5 769.062Z" stroke="#FFFFFF" stroke-width="3.4375" fill="#404040"/></g></g></g><g><g><g><path d="M3047.62 741.5C3047.62 745.969 3042.47 750.094 3033.88 753.188L3033.88 740.812C3038.69 739.438 3043.5 737.375 3047.62 735.312L3047.62 741.5ZM3020.12 718.812 3020.12 706.438C3024.94 705.062 3029.75 703 3033.88 700.938L3033.88 707.125C3033.88 711.594 3028.72 715.719 3020.12 718.812ZM3020.12 757.312C3016 758.344 3011.19 759.031 3006.38 759.719L3006.38 746.312C3010.84 745.625 3015.66 744.938 3020.12 744.25L3020.12 757.312ZM2992.62 711.938C2997.09 711.25 3001.91 710.562 3006.38 709.875L3006.38 722.938C3002.25 723.969 2997.44 724.656 2992.62 725.344L2992.62 711.938ZM2992.62 761.438C2988.16 761.781 2983.69 762.125 2978.88 762.125L2978.88 748.375C2983 748.375 2987.81 748.031 2992.62 747.688L2992.62 761.438ZM2965.12 727.75 2965.12 714C2969.25 714 2974.06 713.656 2978.88 713.312L2978.88 727.062C2974.41 727.406 2969.94 727.406 2965.12 727.75ZM2965.12 762.125C2960.31 762.125 2955.84 761.781 2951.38 761.438L2951.38 748.375C2953.78 748.375 2955.84 748.375 2958.25 748.375 2960.31 748.375 2962.72 748.375 2965.12 748.375L2965.12 762.125ZM2937.62 713.312C2942.09 713.656 2946.56 714 2951.38 714L2951.38 727.75C2946.56 727.75 2942.09 727.406 2937.62 727.062L2937.62 713.312ZM2937.62 759.719C2932.81 759.031 2928 758.344 2923.88 757.312L2923.88 746.312C2928.34 747 2932.81 747.344 2937.62 747.688L2937.62 759.719ZM2910.12 722.938 2910.12 709.531C2914.59 710.219 2919.06 711.25 2923.88 711.594L2923.88 725.344C2919.06 724.656 2914.25 723.969 2910.12 722.938ZM2910.12 753.188C2901.53 749.75 2896.38 745.625 2896.38 741.5L2896.38 740.812C2896.38 740.812 2896.38 740.812 2896.72 740.812 2897.75 741.156 2898.44 741.5 2899.47 741.5 2902.91 742.531 2906.34 743.219 2910.12 743.906L2910.12 753.188ZM2855.12 706.438C2857.53 706.438 2859.59 706.781 2862 706.781L2862 707.125C2862 711.938 2863.03 716.75 2865.44 720.531 2862 720.531 2858.56 720.188 2855.12 719.844L2855.12 706.438ZM2841.38 665.188C2845.84 665.875 2850.31 666.906 2855.12 667.25L2855.12 681C2850.31 680.312 2845.5 679.625 2841.38 678.594L2841.38 665.188ZM2841.38 718.469C2836.56 717.781 2831.75 717.094 2827.62 716.062L2827.62 702.656C2832.09 703.344 2836.56 704.375 2841.38 704.719L2841.38 718.469ZM2813.88 662.438 2813.88 656.25C2818 658.312 2822.47 660.031 2827.62 661.406L2827.62 674.125C2819.03 671.031 2813.88 666.906 2813.88 662.438ZM2813.88 711.938C2805.28 708.5 2800.12 704.375 2800.12 700.25L2800.12 694.062C2804.25 696.125 2808.72 697.844 2813.88 699.219L2813.88 711.938ZM2800.12 604.688C2804.25 606.75 2808.72 608.469 2813.88 609.844L2813.88 622.562C2805.28 619.125 2800.12 615 2800.12 610.875L2800.12 604.688ZM2841.38 615.688 2841.38 629.438C2836.56 628.75 2831.75 628.062 2827.62 627.031L2827.62 613.625C2832.09 614.312 2836.56 615 2841.38 615.688ZM2875.75 555.875C2917.69 555.875 2951.38 565.156 2951.38 576.5 2951.38 587.844 2917.69 597.125 2875.75 597.125 2833.81 597.125 2800.12 587.844 2800.12 576.5 2800.12 565.156 2833.81 555.875 2875.75 555.875ZM2896.38 718.812C2887.78 715.375 2882.62 711.25 2882.62 707.125L2882.62 700.938C2886.75 703 2891.22 704.719 2896.38 706.094L2896.38 718.812ZM2937.62 622.562 2937.62 610.188C2942.44 608.812 2947.25 606.75 2951.38 604.688L2951.38 610.875C2951.38 615.344 2946.22 619.469 2937.62 622.562ZM2910.12 629.094 2910.12 615.688C2914.59 615 2919.41 614.312 2923.88 613.625L2923.88 626.688C2919.75 627.719 2914.94 628.406 2910.12 629.094ZM2882.62 631.5 2882.62 617.75C2886.75 617.75 2891.56 617.406 2896.38 617.062L2896.38 630.812C2891.91 631.156 2887.44 631.156 2882.62 631.5ZM2855.12 630.812 2855.12 617.062C2859.59 617.406 2864.06 617.75 2868.88 617.75L2868.88 631.5C2864.06 631.156 2859.59 631.156 2855.12 630.812ZM3033.88 672.75C3033.88 684.094 3000.19 693.375 2958.25 693.375 2916.31 693.375 2882.62 684.094 2882.62 672.75 2882.62 661.406 2916.31 652.125 2958.25 652.125 3000.19 652.125 3033.88 661.406 3033.88 672.75ZM3054.5 683.062 3054.5 672.75C3054.5 656.594 3041.78 644.906 3017.03 638.375 3007.75 635.969 2997.09 633.906 2985.06 632.875 2985.41 631.5 2985.41 629.781 2985.41 628.062 2985.41 618.438 2980.94 610.188 2971.66 604L2971.66 576.5C2971.66 560.344 2958.94 548.656 2934.19 542.125 2918.03 537.656 2897.41 535.25 2875.41 535.25 2846.53 535.25 2779.16 539.375 2779.16 576.5L2779.16 610.875C2779.16 620.5 2783.62 628.75 2792.91 634.938L2792.91 641.469C2784.66 647.312 2779.16 655.219 2779.16 665.875L2779.16 700.25C2779.16 716.406 2791.88 728.094 2816.62 734.625 2832.78 739.094 2853.41 741.5 2875.41 741.5 2875.41 757.656 2888.12 769.344 2912.88 775.875 2929.03 780.344 2949.66 782.75 2971.66 782.75 3000.53 782.75 3067.91 778.625 3067.91 741.5L3067.91 707.125C3068.25 697.5 3063.78 689.25 3054.5 683.062Z" stroke="#FFFFFF" stroke-width="3.4375" fill="#404040"/></g></g></g></g></svg>