<svg width="1390" height="785" xmlns="http://www.w3.org/2000/svg" xmlns:xlink="http://www.w3.org/1999/xlink" xml:space="preserve" overflow="hidden"><g transform="translate(-106 -912)"><g><g><g><path d="M96.25 123.75 96.25 82.5 13.75 165C12.7188 165 96.25 247.5 96.25 247.5L96.25 206.25 316.25 165 96.25 123.75Z" stroke="#FFFFFF" stroke-width="3.4375" transform="matrix(-1.92121 0 0 1 1101 1268)"/></g></g></g><g><g><g><path d="M914.625 1410.5C914.625 1414.97 909.469 1419.09 900.875 1422.19L900.875 1409.81C905.688 1408.44 910.5 1406.37 914.625 1404.31L914.625 1410.5ZM887.125 1387.81 887.125 1375.44C891.938 1374.06 896.75 1372 900.875 1369.94L900.875 1376.12C900.875 1380.59 895.719 1384.72 887.125 1387.81ZM887.125 1426.31C883 1427.34 878.188 1428.03 873.375 1428.72L873.375 1415.31C877.844 1414.62 882.656 1413.94 887.125 1413.25L887.125 1426.31ZM859.625 1380.94C864.094 1380.25 868.906 1379.56 873.375 1378.87L873.375 1391.94C869.25 1392.97 864.438 1393.66 859.625 1394.34L859.625 1380.94ZM859.625 1430.44C855.156 1430.78 850.688 1431.12 845.875 1431.12L845.875 1417.37C850 1417.37 854.813 1417.03 859.625 1416.69L859.625 1430.44ZM832.125 1396.75 832.125 1383C836.25 1383 841.063 1382.66 845.875 1382.31L845.875 1396.06C841.406 1396.41 836.938 1396.41 832.125 1396.75ZM832.125 1431.12C827.313 1431.12 822.844 1430.78 818.375 1430.44L818.375 1417.37C820.781 1417.37 822.844 1417.37 825.25 1417.37 827.313 1417.37 829.719 1417.37 832.125 1417.37L832.125 1431.12ZM804.625 1382.31C809.094 1382.66 813.563 1383 818.375 1383L818.375 1396.75C813.563 1396.75 809.094 1396.41 804.625 1396.06L804.625 1382.31ZM804.625 1428.72C799.813 1428.03 795 1427.34 790.875 1426.31L790.875 1415.31C795.344 1416 799.813 1416.34 804.625 1416.69L804.625 1428.72ZM777.125 1391.94 777.125 1378.53C781.594 1379.22 786.063 1380.25 790.875 1380.59L790.875 1394.34C786.063 1393.66 781.25 1392.97 777.125 1391.94ZM777.125 1422.19C768.531 1418.75 763.375 1414.62 763.375 1410.5L763.375 1409.81C763.375 1409.81 763.375 1409.81 763.719 1409.81 764.75 1410.16 765.438 1410.5 766.469 1410.5 769.906 1411.53 773.344 1412.22 777.125 1412.91L777.125 1422.19ZM722.125 1375.44C724.531 1375.44 726.594 1375.78 729 1375.78L729 1376.12C729 1380.94 730.031 1385.75 732.438 1389.53 729 1389.53 725.563 1389.19 722.125 1388.84L722.125 1375.44ZM708.375 1334.19C712.844 1334.87 717.313 1335.91 722.125 1336.25L722.125 1350C717.313 1349.31 712.5 1348.62 708.375 1347.59L708.375 1334.19ZM708.375 1387.47C703.563 1386.78 698.75 1386.09 694.625 1385.06L694.625 1371.66C699.094 1372.34 703.563 1373.37 708.375 1373.72L708.375 1387.47ZM680.875 1331.44 680.875 1325.25C685 1327.31 689.469 1329.03 694.625 1330.41L694.625 1343.12C686.031 1340.03 680.875 1335.91 680.875 1331.44ZM680.875 1380.94C672.281 1377.5 667.125 1373.37 667.125 1369.25L667.125 1363.06C671.25 1365.12 675.719 1366.84 680.875 1368.22L680.875 1380.94ZM667.125 1273.69C671.25 1275.75 675.719 1277.47 680.875 1278.84L680.875 1291.56C672.281 1288.12 667.125 1284 667.125 1279.87L667.125 1273.69ZM708.375 1284.69 708.375 1298.44C703.563 1297.75 698.75 1297.06 694.625 1296.03L694.625 1282.62C699.094 1283.31 703.563 1284 708.375 1284.69ZM742.75 1224.87C784.688 1224.87 818.375 1234.16 818.375 1245.5 818.375 1256.84 784.688 1266.12 742.75 1266.12 700.813 1266.12 667.125 1256.84 667.125 1245.5 667.125 1234.16 700.813 1224.87 742.75 1224.87ZM763.375 1387.81C754.781 1384.37 749.625 1380.25 749.625 1376.12L749.625 1369.94C753.75 1372 758.219 1373.72 763.375 1375.09L763.375 1387.81ZM804.625 1291.56 804.625 1279.19C809.438 1277.81 814.25 1275.75 818.375 1273.69L818.375 1279.87C818.375 1284.34 813.219 1288.47 804.625 1291.56ZM777.125 1298.09 777.125 1284.69C781.594 1284 786.406 1283.31 790.875 1282.62L790.875 1295.69C786.75 1296.72 781.938 1297.41 777.125 1298.09ZM749.625 1300.5 749.625 1286.75C753.75 1286.75 758.563 1286.41 763.375 1286.06L763.375 1299.81C758.906 1300.16 754.438 1300.16 749.625 1300.5ZM722.125 1299.81 722.125 1286.06C726.594 1286.41 731.063 1286.75 735.875 1286.75L735.875 1300.5C731.063 1300.16 726.594 1300.16 722.125 1299.81ZM900.875 1341.75C900.875 1353.09 867.188 1362.37 825.25 1362.37 783.313 1362.37 749.625 1353.09 749.625 1341.75 749.625 1330.41 783.313 1321.12 825.25 1321.12 867.188 1321.12 900.875 1330.41 900.875 1341.75ZM921.5 1352.06 921.5 1341.75C921.5 1325.59 908.781 1313.91 884.031 1307.37 874.75 1304.97 864.094 1302.91 852.063 1301.87 852.406 1300.5 852.406 1298.78 852.406 1297.06 852.406 1287.44 847.938 1279.19 838.656 1273L838.656 1245.5C838.656 1229.34 825.938 1217.66 801.188 1211.12 785.031 1206.66 764.406 1204.25 742.406 1204.25 713.531 1204.25 646.156 1208.37 646.156 1245.5L646.156 1279.87C646.156 1289.5 650.625 1297.75 659.906 1303.94L659.906 1310.47C651.656 1316.31 646.156 1324.22 646.156 1334.87L646.156 1369.25C646.156 1385.41 658.875 1397.09 683.625 1403.62 699.781 1408.09 720.406 1410.5 742.406 1410.5 742.406 1426.66 755.125 1438.34 779.875 1444.87 796.031 1449.34 816.656 1451.75 838.656 1451.75 867.531 1451.75 934.906 1447.62 934.906 1410.5L934.906 1376.12C935.25 1366.5 930.781 1358.25 921.5 1352.06Z" stroke="#FFFFFF" stroke-width="3.4375" fill="#404040"/></g></g></g><path d="M109 1598C109 1549.95 229.435 1511 378 1511 526.565 1511 647 1549.95 647 1598 647 1646.05 526.565 1685 378 1685 229.435 1685 109 1646.05 109 1598Z" stroke="#262626" stroke-width="5.72917" stroke-linejoin="round" stroke-miterlimit="10" fill="#7F7F7F" fill-rule="evenodd"/><g><g><g><path d="M313.25 61.5312C313.25 86.246 293.215 106.281 268.5 106.281 243.785 106.281 223.75 86.246 223.75 61.5312 223.75 36.8165 243.785 16.7812 268.5 16.7812 293.215 16.7812 313.25 36.8165 313.25 61.5312Z" stroke="#000000" stroke-width="5.59375" transform="matrix(1.00186 0 0 1 109 1061)"/><path d="M390.444 291.994 359.119 158.862C358 154.387 355.762 149.912 352.406 146.556 338.981 135.369 323.319 127.537 305.419 121.944 293.112 119.706 280.806 117.469 268.5 117.469 256.194 117.469 243.887 119.706 231.581 123.062 213.681 127.537 198.019 136.487 184.594 147.675 181.237 151.031 179 155.506 177.881 159.981L146.556 293.112C146.556 294.231 145.437 296.469 145.437 298.706 145.437 311.012 155.506 321.081 167.812 321.081 177.881 321.081 186.831 313.25 189.069 304.3L212.562 206.969 212.562 520.219 257.312 520.219 257.312 318.844 279.687 318.844 279.687 520.219 324.437 520.219 324.437 205.85 347.931 303.181C350.169 312.131 359.119 319.962 369.187 319.962 381.494 319.962 391.562 309.894 391.562 297.587 391.562 295.35 390.444 293.112 390.444 291.994Z" stroke="#000000" stroke-width="5.59375" transform="matrix(1.00186 0 0 1 109 1061)"/></g></g></g><text font-family="Rockwell,Rockwell_MSFontService,sans-serif" font-weight="700" font-size="73" transform="matrix(1 0 0 1 352.326 1005)">A</text><path d="M956 1598C956 1549.95 1076.21 1511 1224.5 1511 1372.79 1511 1493 1549.95 1493 1598 1493 1646.05 1372.79 1685 1224.5 1685 1076.21 1685 956 1646.05 956 1598Z" stroke="#262626" stroke-width="5.72917" stroke-linejoin="round" stroke-miterlimit="10" fill="#7F7F7F" fill-rule="evenodd"/><g><g><g><path d="M1269.25 1122.53C1269.25 1147.25 1249.21 1167.28 1224.5 1167.28 1199.79 1167.28 1179.75 1147.25 1179.75 1122.53 1179.75 1097.82 1199.79 1077.78 1224.5 1077.78 1249.21 1077.78 1269.25 1097.82 1269.25 1122.53Z" stroke="#000000" stroke-width="5.59375"/><path d="M1346.44 1352.99 1315.12 1219.86C1314 1215.39 1311.76 1210.91 1308.41 1207.56 1294.98 1196.37 1279.32 1188.54 1261.42 1182.94 1249.11 1180.71 1236.81 1178.47 1224.5 1178.47 1212.19 1178.47 1199.89 1180.71 1187.58 1184.06 1169.68 1188.54 1154.02 1197.49 1140.59 1208.68 1137.24 1212.03 1135 1216.51 1133.88 1220.98L1102.56 1354.11C1102.56 1355.23 1101.44 1357.47 1101.44 1359.71 1101.44 1372.01 1111.51 1382.08 1123.81 1382.08 1133.88 1382.08 1142.83 1374.25 1145.07 1365.3L1168.56 1267.97 1168.56 1581.22 1213.31 1581.22 1213.31 1379.84 1235.69 1379.84 1235.69 1581.22 1280.44 1581.22 1280.44 1266.85 1303.93 1364.18C1306.17 1373.13 1315.12 1380.96 1325.19 1380.96 1337.49 1380.96 1347.56 1370.89 1347.56 1358.59 1347.56 1356.35 1346.44 1354.11 1346.44 1352.99Z" stroke="#000000" stroke-width="5.59375"/></g></g></g><text font-family="Rockwell,Rockwell_MSFontService,sans-serif" font-weight="700" font-size="73" transform="matrix(1 0 0 1 1199.19 1005)">B</text><g><g><g><path d="M404.625 1614.5C404.625 1618.97 399.469 1623.09 390.875 1626.19L390.875 1613.81C395.687 1612.44 400.5 1610.38 404.625 1608.31L404.625 1614.5ZM377.125 1591.81 377.125 1579.44C381.937 1578.06 386.75 1576 390.875 1573.94L390.875 1580.13C390.875 1584.59 385.719 1588.72 377.125 1591.81ZM377.125 1630.31C373 1631.34 368.187 1632.03 363.375 1632.72L363.375 1619.31C367.844 1618.63 372.656 1617.94 377.125 1617.25L377.125 1630.31ZM349.625 1584.94C354.094 1584.25 358.906 1583.56 363.375 1582.88L363.375 1595.94C359.25 1596.97 354.437 1597.66 349.625 1598.34L349.625 1584.94ZM349.625 1634.44C345.156 1634.78 340.687 1635.13 335.875 1635.13L335.875 1621.38C340 1621.38 344.812 1621.03 349.625 1620.69L349.625 1634.44ZM322.125 1600.75 322.125 1587C326.25 1587 331.062 1586.66 335.875 1586.31L335.875 1600.06C331.406 1600.41 326.937 1600.41 322.125 1600.75ZM322.125 1635.13C317.312 1635.13 312.844 1634.78 308.375 1634.44L308.375 1621.38C310.781 1621.38 312.844 1621.38 315.25 1621.38 317.312 1621.38 319.719 1621.38 322.125 1621.38L322.125 1635.13ZM294.625 1586.31C299.094 1586.66 303.562 1587 308.375 1587L308.375 1600.75C303.562 1600.75 299.094 1600.41 294.625 1600.06L294.625 1586.31ZM294.625 1632.72C289.812 1632.03 285 1631.34 280.875 1630.31L280.875 1619.31C285.344 1620 289.812 1620.34 294.625 1620.69L294.625 1632.72ZM267.125 1595.94 267.125 1582.53C271.594 1583.22 276.062 1584.25 280.875 1584.59L280.875 1598.34C276.062 1597.66 271.25 1596.97 267.125 1595.94ZM267.125 1626.19C258.531 1622.75 253.375 1618.63 253.375 1614.5L253.375 1613.81C253.375 1613.81 253.375 1613.81 253.719 1613.81 254.75 1614.16 255.437 1614.5 256.469 1614.5 259.906 1615.53 263.344 1616.22 267.125 1616.91L267.125 1626.19ZM212.125 1579.44C214.531 1579.44 216.594 1579.78 219 1579.78L219 1580.13C219 1584.94 220.031 1589.75 222.437 1593.53 219 1593.53 215.562 1593.19 212.125 1592.84L212.125 1579.44ZM198.375 1538.19C202.844 1538.88 207.312 1539.91 212.125 1540.25L212.125 1554C207.312 1553.31 202.5 1552.63 198.375 1551.59L198.375 1538.19ZM198.375 1591.47C193.562 1590.78 188.75 1590.09 184.625 1589.06L184.625 1575.66C189.094 1576.34 193.562 1577.38 198.375 1577.72L198.375 1591.47ZM170.875 1535.44 170.875 1529.25C175 1531.31 179.469 1533.03 184.625 1534.41L184.625 1547.13C176.031 1544.03 170.875 1539.91 170.875 1535.44ZM170.875 1584.94C162.281 1581.5 157.125 1577.38 157.125 1573.25L157.125 1567.06C161.25 1569.13 165.719 1570.84 170.875 1572.22L170.875 1584.94ZM157.125 1477.69C161.25 1479.75 165.719 1481.47 170.875 1482.84L170.875 1495.56C162.281 1492.13 157.125 1488 157.125 1483.88L157.125 1477.69ZM198.375 1488.69 198.375 1502.44C193.562 1501.75 188.75 1501.06 184.625 1500.03L184.625 1486.63C189.094 1487.31 193.562 1488 198.375 1488.69ZM232.75 1428.88C274.687 1428.88 308.375 1438.16 308.375 1449.5 308.375 1460.84 274.687 1470.13 232.75 1470.13 190.812 1470.13 157.125 1460.84 157.125 1449.5 157.125 1438.16 190.812 1428.88 232.75 1428.88ZM253.375 1591.81C244.781 1588.38 239.625 1584.25 239.625 1580.13L239.625 1573.94C243.75 1576 248.219 1577.72 253.375 1579.09L253.375 1591.81ZM294.625 1495.56 294.625 1483.19C299.437 1481.81 304.25 1479.75 308.375 1477.69L308.375 1483.88C308.375 1488.34 303.219 1492.47 294.625 1495.56ZM267.125 1502.09 267.125 1488.69C271.594 1488 276.406 1487.31 280.875 1486.63L280.875 1499.69C276.75 1500.72 271.937 1501.41 267.125 1502.09ZM239.625 1504.5 239.625 1490.75C243.75 1490.75 248.562 1490.41 253.375 1490.06L253.375 1503.81C248.906 1504.16 244.437 1504.16 239.625 1504.5ZM212.125 1503.81 212.125 1490.06C216.594 1490.41 221.062 1490.75 225.875 1490.75L225.875 1504.5C221.062 1504.16 216.594 1504.16 212.125 1503.81ZM390.875 1545.75C390.875 1557.09 357.187 1566.38 315.25 1566.38 273.312 1566.38 239.625 1557.09 239.625 1545.75 239.625 1534.41 273.312 1525.13 315.25 1525.13 357.187 1525.13 390.875 1534.41 390.875 1545.75ZM411.5 1556.06 411.5 1545.75C411.5 1529.59 398.781 1517.91 374.031 1511.38 364.75 1508.97 354.094 1506.91 342.062 1505.88 342.406 1504.5 342.406 1502.78 342.406 1501.06 342.406 1491.44 337.937 1483.19 328.656 1477L328.656 1449.5C328.656 1433.34 315.937 1421.66 291.187 1415.13 275.031 1410.66 254.406 1408.25 232.406 1408.25 203.531 1408.25 136.156 1412.38 136.156 1449.5L136.156 1483.88C136.156 1493.5 140.625 1501.75 149.906 1507.94L149.906 1514.47C141.656 1520.31 136.156 1528.22 136.156 1538.88L136.156 1573.25C136.156 1589.41 148.875 1601.09 173.625 1607.63 189.781 1612.09 210.406 1614.5 232.406 1614.5 232.406 1630.66 245.125 1642.34 269.875 1648.88 286.031 1653.34 306.656 1655.75 328.656 1655.75 357.531 1655.75 424.906 1651.63 424.906 1614.5L424.906 1580.13C425.25 1570.5 420.781 1562.25 411.5 1556.06Z" stroke="#FFFFFF" stroke-width="3.4375" fill="#404040"/></g></g></g></g></svg>