<svg width="1414" height="824" xmlns="http://www.w3.org/2000/svg" xmlns:xlink="http://www.w3.org/1999/xlink" xml:space="preserve" overflow="hidden"><g transform="translate(-1928 -1600)"><path d="M1931 2287C1931 2238.95 2051.21 2200 2199.5 2200 2347.79 2200 2468 2238.95 2468 2287 2468 2335.05 2347.79 2374 2199.5 2374 2051.21 2374 1931 2335.05 1931 2287Z" stroke="#262626" stroke-width="5.72917" stroke-linejoin="round" stroke-miterlimit="10" fill="#7F7F7F" fill-rule="evenodd"/><g><g><g><path d="M313.25 61.5312C313.25 86.246 293.215 106.281 268.5 106.281 243.785 106.281 223.75 86.246 223.75 61.5312 223.75 36.8165 243.785 16.7812 268.5 16.7812 293.215 16.7812 313.25 36.8165 313.25 61.5312Z" stroke="#000000" stroke-width="5.59375" transform="matrix(1 0 0 1 1931 1750)"/><path d="M390.444 291.994 359.119 158.862C358 154.387 355.762 149.912 352.406 146.556 338.981 135.369 323.319 127.537 305.419 121.944 293.112 119.706 280.806 117.469 268.5 117.469 256.194 117.469 243.887 119.706 231.581 123.062 213.681 127.537 198.019 136.487 184.594 147.675 181.237 151.031 179 155.506 177.881 159.981L146.556 293.112C146.556 294.231 145.437 296.469 145.437 298.706 145.437 311.012 155.506 321.081 167.812 321.081 177.881 321.081 186.831 313.25 189.069 304.3L212.562 206.969 212.562 520.219 257.312 520.219 257.312 318.844 279.687 318.844 279.687 520.219 324.437 520.219 324.437 205.85 347.931 303.181C350.169 312.131 359.119 319.962 369.187 319.962 381.494 319.962 391.562 309.894 391.562 297.587 391.562 295.35 390.444 293.112 390.444 291.994Z" stroke="#000000" stroke-width="5.59375" transform="matrix(1 0 0 1 1931 1750)"/></g></g></g><text font-family="Rockwell,Rockwell_MSFontService,sans-serif" font-weight="700" font-size="73" transform="matrix(1 0 0 1 2174.15 1694)">A</text><g><g><g><path d="M2461.62 2305.5C2461.62 2309.97 2456.47 2314.09 2447.88 2317.19L2447.88 2304.81C2452.69 2303.44 2457.5 2301.38 2461.62 2299.31L2461.62 2305.5ZM2434.12 2282.81 2434.12 2270.44C2438.94 2269.06 2443.75 2267 2447.88 2264.94L2447.88 2271.12C2447.88 2275.59 2442.72 2279.72 2434.12 2282.81ZM2434.12 2321.31C2430 2322.34 2425.19 2323.03 2420.38 2323.72L2420.38 2310.31C2424.84 2309.62 2429.66 2308.94 2434.12 2308.25L2434.12 2321.31ZM2406.62 2275.94C2411.09 2275.25 2415.91 2274.56 2420.38 2273.88L2420.38 2286.94C2416.25 2287.97 2411.44 2288.66 2406.62 2289.34L2406.62 2275.94ZM2406.62 2325.44C2402.16 2325.78 2397.69 2326.12 2392.88 2326.12L2392.88 2312.38C2397 2312.38 2401.81 2312.03 2406.62 2311.69L2406.62 2325.44ZM2379.12 2291.75 2379.12 2278C2383.25 2278 2388.06 2277.66 2392.88 2277.31L2392.88 2291.06C2388.41 2291.41 2383.94 2291.41 2379.12 2291.75ZM2379.12 2326.12C2374.31 2326.12 2369.84 2325.78 2365.38 2325.44L2365.38 2312.38C2367.78 2312.38 2369.84 2312.38 2372.25 2312.38 2374.31 2312.38 2376.72 2312.38 2379.12 2312.38L2379.12 2326.12ZM2351.62 2277.31C2356.09 2277.66 2360.56 2278 2365.38 2278L2365.38 2291.75C2360.56 2291.75 2356.09 2291.41 2351.62 2291.06L2351.62 2277.31ZM2351.62 2323.72C2346.81 2323.03 2342 2322.34 2337.88 2321.31L2337.88 2310.31C2342.34 2311 2346.81 2311.34 2351.62 2311.69L2351.62 2323.72ZM2324.12 2286.94 2324.12 2273.53C2328.59 2274.22 2333.06 2275.25 2337.88 2275.59L2337.88 2289.34C2333.06 2288.66 2328.25 2287.97 2324.12 2286.94ZM2324.12 2317.19C2315.53 2313.75 2310.38 2309.62 2310.38 2305.5L2310.38 2304.81C2310.38 2304.81 2310.38 2304.81 2310.72 2304.81 2311.75 2305.16 2312.44 2305.5 2313.47 2305.5 2316.91 2306.53 2320.34 2307.22 2324.12 2307.91L2324.12 2317.19ZM2269.12 2270.44C2271.53 2270.44 2273.59 2270.78 2276 2270.78L2276 2271.12C2276 2275.94 2277.03 2280.75 2279.44 2284.53 2276 2284.53 2272.56 2284.19 2269.12 2283.84L2269.12 2270.44ZM2255.38 2229.19C2259.84 2229.88 2264.31 2230.91 2269.12 2231.25L2269.12 2245C2264.31 2244.31 2259.5 2243.62 2255.38 2242.59L2255.38 2229.19ZM2255.38 2282.47C2250.56 2281.78 2245.75 2281.09 2241.62 2280.06L2241.62 2266.66C2246.09 2267.34 2250.56 2268.38 2255.38 2268.72L2255.38 2282.47ZM2227.88 2226.44 2227.88 2220.25C2232 2222.31 2236.47 2224.03 2241.62 2225.41L2241.62 2238.12C2233.03 2235.03 2227.88 2230.91 2227.88 2226.44ZM2227.88 2275.94C2219.28 2272.5 2214.12 2268.38 2214.12 2264.25L2214.12 2258.06C2218.25 2260.12 2222.72 2261.84 2227.88 2263.22L2227.88 2275.94ZM2214.12 2168.69C2218.25 2170.75 2222.72 2172.47 2227.88 2173.84L2227.88 2186.56C2219.28 2183.12 2214.12 2179 2214.12 2174.88L2214.12 2168.69ZM2255.38 2179.69 2255.38 2193.44C2250.56 2192.75 2245.75 2192.06 2241.62 2191.03L2241.62 2177.62C2246.09 2178.31 2250.56 2179 2255.38 2179.69ZM2289.75 2119.88C2331.69 2119.88 2365.38 2129.16 2365.38 2140.5 2365.38 2151.84 2331.69 2161.12 2289.75 2161.12 2247.81 2161.12 2214.12 2151.84 2214.12 2140.5 2214.12 2129.16 2247.81 2119.88 2289.75 2119.88ZM2310.38 2282.81C2301.78 2279.38 2296.62 2275.25 2296.62 2271.12L2296.62 2264.94C2300.75 2267 2305.22 2268.72 2310.38 2270.09L2310.38 2282.81ZM2351.62 2186.56 2351.62 2174.19C2356.44 2172.81 2361.25 2170.75 2365.38 2168.69L2365.38 2174.88C2365.38 2179.34 2360.22 2183.47 2351.62 2186.56ZM2324.12 2193.09 2324.12 2179.69C2328.59 2179 2333.41 2178.31 2337.88 2177.62L2337.88 2190.69C2333.75 2191.72 2328.94 2192.41 2324.12 2193.09ZM2296.62 2195.5 2296.62 2181.75C2300.75 2181.75 2305.56 2181.41 2310.38 2181.06L2310.38 2194.81C2305.91 2195.16 2301.44 2195.16 2296.62 2195.5ZM2269.12 2194.81 2269.12 2181.06C2273.59 2181.41 2278.06 2181.75 2282.88 2181.75L2282.88 2195.5C2278.06 2195.16 2273.59 2195.16 2269.12 2194.81ZM2447.88 2236.75C2447.88 2248.09 2414.19 2257.38 2372.25 2257.38 2330.31 2257.38 2296.62 2248.09 2296.62 2236.75 2296.62 2225.41 2330.31 2216.12 2372.25 2216.12 2414.19 2216.12 2447.88 2225.41 2447.88 2236.75ZM2468.5 2247.06 2468.5 2236.75C2468.5 2220.59 2455.78 2208.91 2431.03 2202.38 2421.75 2199.97 2411.09 2197.91 2399.06 2196.88 2399.41 2195.5 2399.41 2193.78 2399.41 2192.06 2399.41 2182.44 2394.94 2174.19 2385.66 2168L2385.66 2140.5C2385.66 2124.34 2372.94 2112.66 2348.19 2106.12 2332.03 2101.66 2311.41 2099.25 2289.41 2099.25 2260.53 2099.25 2193.16 2103.38 2193.16 2140.5L2193.16 2174.88C2193.16 2184.5 2197.62 2192.75 2206.91 2198.94L2206.91 2205.47C2198.66 2211.31 2193.16 2219.22 2193.16 2229.88L2193.16 2264.25C2193.16 2280.41 2205.88 2292.09 2230.62 2298.62 2246.78 2303.09 2267.41 2305.5 2289.41 2305.5 2289.41 2321.66 2302.12 2333.34 2326.88 2339.88 2343.03 2344.34 2363.66 2346.75 2385.66 2346.75 2414.53 2346.75 2481.91 2342.62 2481.91 2305.5L2481.91 2271.12C2482.25 2261.5 2477.78 2253.25 2468.5 2247.06Z" stroke="#FFFFFF" stroke-width="3.4375" fill="#404040"/></g></g></g><g><g><g><path d="M2268.62 2341.5C2268.62 2345.97 2263.47 2350.09 2254.88 2353.19L2254.88 2340.81C2259.69 2339.44 2264.5 2337.38 2268.62 2335.31L2268.62 2341.5ZM2241.12 2318.81 2241.12 2306.44C2245.94 2305.06 2250.75 2303 2254.88 2300.94L2254.88 2307.13C2254.88 2311.59 2249.72 2315.72 2241.12 2318.81ZM2241.12 2357.31C2237 2358.34 2232.19 2359.03 2227.38 2359.72L2227.38 2346.31C2231.84 2345.63 2236.66 2344.94 2241.12 2344.25L2241.12 2357.31ZM2213.62 2311.94C2218.09 2311.25 2222.91 2310.56 2227.38 2309.88L2227.38 2322.94C2223.25 2323.97 2218.44 2324.66 2213.62 2325.34L2213.62 2311.94ZM2213.62 2361.44C2209.16 2361.78 2204.69 2362.13 2199.88 2362.13L2199.88 2348.38C2204 2348.38 2208.81 2348.03 2213.62 2347.69L2213.62 2361.44ZM2186.12 2327.75 2186.12 2314C2190.25 2314 2195.06 2313.66 2199.88 2313.31L2199.88 2327.06C2195.41 2327.41 2190.94 2327.41 2186.12 2327.75ZM2186.12 2362.13C2181.31 2362.13 2176.84 2361.78 2172.38 2361.44L2172.38 2348.38C2174.78 2348.38 2176.84 2348.38 2179.25 2348.38 2181.31 2348.38 2183.72 2348.38 2186.12 2348.38L2186.12 2362.13ZM2158.62 2313.31C2163.09 2313.66 2167.56 2314 2172.38 2314L2172.38 2327.75C2167.56 2327.75 2163.09 2327.41 2158.62 2327.06L2158.62 2313.31ZM2158.62 2359.72C2153.81 2359.03 2149 2358.34 2144.88 2357.31L2144.88 2346.31C2149.34 2347 2153.81 2347.34 2158.62 2347.69L2158.62 2359.72ZM2131.12 2322.94 2131.12 2309.53C2135.59 2310.22 2140.06 2311.25 2144.88 2311.59L2144.88 2325.34C2140.06 2324.66 2135.25 2323.97 2131.12 2322.94ZM2131.12 2353.19C2122.53 2349.75 2117.38 2345.63 2117.38 2341.5L2117.38 2340.81C2117.38 2340.81 2117.38 2340.81 2117.72 2340.81 2118.75 2341.16 2119.44 2341.5 2120.47 2341.5 2123.91 2342.53 2127.34 2343.22 2131.12 2343.91L2131.12 2353.19ZM2076.12 2306.44C2078.53 2306.44 2080.59 2306.78 2083 2306.78L2083 2307.13C2083 2311.94 2084.03 2316.75 2086.44 2320.53 2083 2320.53 2079.56 2320.19 2076.12 2319.84L2076.12 2306.44ZM2062.38 2265.19C2066.84 2265.88 2071.31 2266.91 2076.12 2267.25L2076.12 2281C2071.31 2280.31 2066.5 2279.63 2062.38 2278.59L2062.38 2265.19ZM2062.38 2318.47C2057.56 2317.78 2052.75 2317.09 2048.62 2316.06L2048.62 2302.66C2053.09 2303.34 2057.56 2304.38 2062.38 2304.72L2062.38 2318.47ZM2034.88 2262.44 2034.88 2256.25C2039 2258.31 2043.47 2260.03 2048.62 2261.41L2048.62 2274.13C2040.03 2271.03 2034.88 2266.91 2034.88 2262.44ZM2034.88 2311.94C2026.28 2308.5 2021.13 2304.38 2021.13 2300.25L2021.13 2294.06C2025.25 2296.13 2029.72 2297.84 2034.88 2299.22L2034.88 2311.94ZM2021.13 2204.69C2025.25 2206.75 2029.72 2208.47 2034.88 2209.84L2034.88 2222.56C2026.28 2219.13 2021.13 2215 2021.13 2210.88L2021.13 2204.69ZM2062.38 2215.69 2062.38 2229.44C2057.56 2228.75 2052.75 2228.06 2048.62 2227.03L2048.62 2213.63C2053.09 2214.31 2057.56 2215 2062.38 2215.69ZM2096.75 2155.88C2138.69 2155.88 2172.38 2165.16 2172.38 2176.5 2172.38 2187.84 2138.69 2197.13 2096.75 2197.13 2054.81 2197.13 2021.13 2187.84 2021.13 2176.5 2021.13 2165.16 2054.81 2155.88 2096.75 2155.88ZM2117.38 2318.81C2108.78 2315.38 2103.62 2311.25 2103.62 2307.13L2103.62 2300.94C2107.75 2303 2112.22 2304.72 2117.38 2306.09L2117.38 2318.81ZM2158.62 2222.56 2158.62 2210.19C2163.44 2208.81 2168.25 2206.75 2172.38 2204.69L2172.38 2210.88C2172.38 2215.34 2167.22 2219.47 2158.62 2222.56ZM2131.12 2229.09 2131.12 2215.69C2135.59 2215 2140.41 2214.31 2144.88 2213.63L2144.88 2226.69C2140.75 2227.72 2135.94 2228.41 2131.12 2229.09ZM2103.62 2231.5 2103.62 2217.75C2107.75 2217.75 2112.56 2217.41 2117.38 2217.06L2117.38 2230.81C2112.91 2231.16 2108.44 2231.16 2103.62 2231.5ZM2076.12 2230.81 2076.12 2217.06C2080.59 2217.41 2085.06 2217.75 2089.88 2217.75L2089.88 2231.5C2085.06 2231.16 2080.59 2231.16 2076.12 2230.81ZM2254.88 2272.75C2254.88 2284.09 2221.19 2293.38 2179.25 2293.38 2137.31 2293.38 2103.62 2284.09 2103.62 2272.75 2103.62 2261.41 2137.31 2252.13 2179.25 2252.13 2221.19 2252.13 2254.88 2261.41 2254.88 2272.75ZM2275.5 2283.06 2275.5 2272.75C2275.5 2256.59 2262.78 2244.91 2238.03 2238.38 2228.75 2235.97 2218.09 2233.91 2206.06 2232.88 2206.41 2231.5 2206.41 2229.78 2206.41 2228.06 2206.41 2218.44 2201.94 2210.19 2192.66 2204L2192.66 2176.5C2192.66 2160.34 2179.94 2148.66 2155.19 2142.13 2139.03 2137.66 2118.41 2135.25 2096.41 2135.25 2067.53 2135.25 2000.16 2139.38 2000.16 2176.5L2000.16 2210.88C2000.16 2220.5 2004.63 2228.75 2013.91 2234.94L2013.91 2241.47C2005.66 2247.31 2000.16 2255.22 2000.16 2265.88L2000.16 2300.25C2000.16 2316.41 2012.88 2328.09 2037.63 2334.63 2053.78 2339.09 2074.41 2341.5 2096.41 2341.5 2096.41 2357.66 2109.12 2369.34 2133.88 2375.88 2150.03 2380.34 2170.66 2382.75 2192.66 2382.75 2221.53 2382.75 2288.91 2378.63 2288.91 2341.5L2288.91 2307.13C2289.25 2297.5 2284.78 2289.25 2275.5 2283.06Z" stroke="#FFFFFF" stroke-width="3.4375" fill="#404040"/></g></g></g><path d="M2777 2287C2777 2238.95 2897.44 2200 3046 2200 3194.56 2200 3315 2238.95 3315 2287 3315 2335.05 3194.56 2374 3046 2374 2897.44 2374 2777 2335.05 2777 2287Z" stroke="#262626" stroke-width="5.72917" stroke-linejoin="round" stroke-miterlimit="10" fill="#7F7F7F" fill-rule="evenodd"/><g><g><g><path d="M313.25 61.5312C313.25 86.246 293.215 106.281 268.5 106.281 243.785 106.281 223.75 86.246 223.75 61.5312 223.75 36.8165 243.785 16.7812 268.5 16.7812 293.215 16.7812 313.25 36.8165 313.25 61.5312Z" stroke="#000000" stroke-width="5.59375" transform="matrix(1.00186 0 0 1 2777 1750)"/><path d="M390.444 291.994 359.119 158.862C358 154.387 355.762 149.912 352.406 146.556 338.981 135.369 323.319 127.537 305.419 121.944 293.112 119.706 280.806 117.469 268.5 117.469 256.194 117.469 243.887 119.706 231.581 123.062 213.681 127.537 198.019 136.487 184.594 147.675 181.237 151.031 179 155.506 177.881 159.981L146.556 293.112C146.556 294.231 145.437 296.469 145.437 298.706 145.437 311.012 155.506 321.081 167.812 321.081 177.881 321.081 186.831 313.25 189.069 304.3L212.562 206.969 212.562 520.219 257.312 520.219 257.312 318.844 279.687 318.844 279.687 520.219 324.437 520.219 324.437 205.85 347.931 303.181C350.169 312.131 359.119 319.962 369.187 319.962 381.494 319.962 391.562 309.894 391.562 297.587 391.562 295.35 390.444 293.112 390.444 291.994Z" stroke="#000000" stroke-width="5.59375" transform="matrix(1.00186 0 0 1 2777 1750)"/></g></g></g><text font-family="Rockwell,Rockwell_MSFontService,sans-serif" font-weight="700" font-size="73" transform="matrix(1 0 0 1 3020.24 1694)">B</text><g><g><g><path d="M3307.62 2305.5C3307.62 2309.97 3302.47 2314.09 3293.88 2317.19L3293.88 2304.81C3298.69 2303.44 3303.5 2301.38 3307.62 2299.31L3307.62 2305.5ZM3280.12 2282.81 3280.12 2270.44C3284.94 2269.06 3289.75 2267 3293.88 2264.94L3293.88 2271.12C3293.88 2275.59 3288.72 2279.72 3280.12 2282.81ZM3280.12 2321.31C3276 2322.34 3271.19 2323.03 3266.38 2323.72L3266.38 2310.31C3270.84 2309.62 3275.66 2308.94 3280.12 2308.25L3280.12 2321.31ZM3252.62 2275.94C3257.09 2275.25 3261.91 2274.56 3266.38 2273.88L3266.38 2286.94C3262.25 2287.97 3257.44 2288.66 3252.62 2289.34L3252.62 2275.94ZM3252.62 2325.44C3248.16 2325.78 3243.69 2326.12 3238.88 2326.12L3238.88 2312.38C3243 2312.38 3247.81 2312.03 3252.62 2311.69L3252.62 2325.44ZM3225.12 2291.75 3225.12 2278C3229.25 2278 3234.06 2277.66 3238.88 2277.31L3238.88 2291.06C3234.41 2291.41 3229.94 2291.41 3225.12 2291.75ZM3225.12 2326.12C3220.31 2326.12 3215.84 2325.78 3211.38 2325.44L3211.38 2312.38C3213.78 2312.38 3215.84 2312.38 3218.25 2312.38 3220.31 2312.38 3222.72 2312.38 3225.12 2312.38L3225.12 2326.12ZM3197.62 2277.31C3202.09 2277.66 3206.56 2278 3211.38 2278L3211.38 2291.75C3206.56 2291.75 3202.09 2291.41 3197.62 2291.06L3197.62 2277.31ZM3197.62 2323.72C3192.81 2323.03 3188 2322.34 3183.88 2321.31L3183.88 2310.31C3188.34 2311 3192.81 2311.34 3197.62 2311.69L3197.62 2323.72ZM3170.12 2286.94 3170.12 2273.53C3174.59 2274.22 3179.06 2275.25 3183.88 2275.59L3183.88 2289.34C3179.06 2288.66 3174.25 2287.97 3170.12 2286.94ZM3170.12 2317.19C3161.53 2313.75 3156.38 2309.62 3156.38 2305.5L3156.38 2304.81C3156.38 2304.81 3156.38 2304.81 3156.72 2304.81 3157.75 2305.16 3158.44 2305.5 3159.47 2305.5 3162.91 2306.53 3166.34 2307.22 3170.12 2307.91L3170.12 2317.19ZM3115.12 2270.44C3117.53 2270.44 3119.59 2270.78 3122 2270.78L3122 2271.12C3122 2275.94 3123.03 2280.75 3125.44 2284.53 3122 2284.53 3118.56 2284.19 3115.12 2283.84L3115.12 2270.44ZM3101.38 2229.19C3105.84 2229.88 3110.31 2230.91 3115.12 2231.25L3115.12 2245C3110.31 2244.31 3105.5 2243.62 3101.38 2242.59L3101.38 2229.19ZM3101.38 2282.47C3096.56 2281.78 3091.75 2281.09 3087.62 2280.06L3087.62 2266.66C3092.09 2267.34 3096.56 2268.38 3101.38 2268.72L3101.38 2282.47ZM3073.88 2226.44 3073.88 2220.25C3078 2222.31 3082.47 2224.03 3087.62 2225.41L3087.62 2238.12C3079.03 2235.03 3073.88 2230.91 3073.88 2226.44ZM3073.88 2275.94C3065.28 2272.5 3060.12 2268.38 3060.12 2264.25L3060.12 2258.06C3064.25 2260.12 3068.72 2261.84 3073.88 2263.22L3073.88 2275.94ZM3060.12 2168.69C3064.25 2170.75 3068.72 2172.47 3073.88 2173.84L3073.88 2186.56C3065.28 2183.12 3060.12 2179 3060.12 2174.88L3060.12 2168.69ZM3101.38 2179.69 3101.38 2193.44C3096.56 2192.75 3091.75 2192.06 3087.62 2191.03L3087.62 2177.62C3092.09 2178.31 3096.56 2179 3101.38 2179.69ZM3135.75 2119.88C3177.69 2119.88 3211.38 2129.16 3211.38 2140.5 3211.38 2151.84 3177.69 2161.12 3135.75 2161.12 3093.81 2161.12 3060.12 2151.84 3060.12 2140.5 3060.12 2129.16 3093.81 2119.88 3135.75 2119.88ZM3156.38 2282.81C3147.78 2279.38 3142.62 2275.25 3142.62 2271.12L3142.62 2264.94C3146.75 2267 3151.22 2268.72 3156.38 2270.09L3156.38 2282.81ZM3197.62 2186.56 3197.62 2174.19C3202.44 2172.81 3207.25 2170.75 3211.38 2168.69L3211.38 2174.88C3211.38 2179.34 3206.22 2183.47 3197.62 2186.56ZM3170.12 2193.09 3170.12 2179.69C3174.59 2179 3179.41 2178.31 3183.88 2177.62L3183.88 2190.69C3179.75 2191.72 3174.94 2192.41 3170.12 2193.09ZM3142.62 2195.5 3142.62 2181.75C3146.75 2181.75 3151.56 2181.41 3156.38 2181.06L3156.38 2194.81C3151.91 2195.16 3147.44 2195.16 3142.62 2195.5ZM3115.12 2194.81 3115.12 2181.06C3119.59 2181.41 3124.06 2181.75 3128.88 2181.75L3128.88 2195.5C3124.06 2195.16 3119.59 2195.16 3115.12 2194.81ZM3293.88 2236.75C3293.88 2248.09 3260.19 2257.38 3218.25 2257.38 3176.31 2257.38 3142.62 2248.09 3142.62 2236.75 3142.62 2225.41 3176.31 2216.12 3218.25 2216.12 3260.19 2216.12 3293.88 2225.41 3293.88 2236.75ZM3314.5 2247.06 3314.5 2236.75C3314.5 2220.59 3301.78 2208.91 3277.03 2202.38 3267.75 2199.97 3257.09 2197.91 3245.06 2196.88 3245.41 2195.5 3245.41 2193.78 3245.41 2192.06 3245.41 2182.44 3240.94 2174.19 3231.66 2168L3231.66 2140.5C3231.66 2124.34 3218.94 2112.66 3194.19 2106.12 3178.03 2101.66 3157.41 2099.25 3135.41 2099.25 3106.53 2099.25 3039.16 2103.38 3039.16 2140.5L3039.16 2174.88C3039.16 2184.5 3043.62 2192.75 3052.91 2198.94L3052.91 2205.47C3044.66 2211.31 3039.16 2219.22 3039.16 2229.88L3039.16 2264.25C3039.16 2280.41 3051.88 2292.09 3076.62 2298.62 3092.78 2303.09 3113.41 2305.5 3135.41 2305.5 3135.41 2321.66 3148.12 2333.34 3172.88 2339.88 3189.03 2344.34 3209.66 2346.75 3231.66 2346.75 3260.53 2346.75 3327.91 2342.62 3327.91 2305.5L3327.91 2271.12C3328.25 2261.5 3323.78 2253.25 3314.5 2247.06Z" stroke="#FFFFFF" stroke-width="3.4375" fill="#404040"/></g></g></g><g><g><g><path d="M3115.63 2341.5C3115.63 2345.97 3110.47 2350.09 3101.88 2353.19L3101.88 2340.81C3106.69 2339.44 3111.5 2337.38 3115.63 2335.31L3115.63 2341.5ZM3088.13 2318.81 3088.13 2306.44C3092.94 2305.06 3097.75 2303 3101.88 2300.94L3101.88 2307.13C3101.88 2311.59 3096.72 2315.72 3088.13 2318.81ZM3088.13 2357.31C3084 2358.34 3079.19 2359.03 3074.38 2359.72L3074.38 2346.31C3078.84 2345.63 3083.66 2344.94 3088.13 2344.25L3088.13 2357.31ZM3060.63 2311.94C3065.09 2311.25 3069.91 2310.56 3074.38 2309.88L3074.38 2322.94C3070.25 2323.97 3065.44 2324.66 3060.63 2325.34L3060.63 2311.94ZM3060.63 2361.44C3056.16 2361.78 3051.69 2362.13 3046.88 2362.13L3046.88 2348.38C3051 2348.38 3055.81 2348.03 3060.63 2347.69L3060.63 2361.44ZM3033.13 2327.75 3033.13 2314C3037.25 2314 3042.06 2313.66 3046.88 2313.31L3046.88 2327.06C3042.41 2327.41 3037.94 2327.41 3033.13 2327.75ZM3033.13 2362.13C3028.31 2362.13 3023.84 2361.78 3019.38 2361.44L3019.38 2348.38C3021.78 2348.38 3023.84 2348.38 3026.25 2348.38 3028.31 2348.38 3030.72 2348.38 3033.13 2348.38L3033.13 2362.13ZM3005.63 2313.31C3010.09 2313.66 3014.56 2314 3019.38 2314L3019.38 2327.75C3014.56 2327.75 3010.09 2327.41 3005.63 2327.06L3005.63 2313.31ZM3005.63 2359.72C3000.81 2359.03 2996 2358.34 2991.88 2357.31L2991.88 2346.31C2996.34 2347 3000.81 2347.34 3005.63 2347.69L3005.63 2359.72ZM2978.13 2322.94 2978.13 2309.53C2982.59 2310.22 2987.06 2311.25 2991.88 2311.59L2991.88 2325.34C2987.06 2324.66 2982.25 2323.97 2978.13 2322.94ZM2978.13 2353.19C2969.53 2349.75 2964.38 2345.63 2964.38 2341.5L2964.38 2340.81C2964.38 2340.81 2964.38 2340.81 2964.72 2340.81 2965.75 2341.16 2966.44 2341.5 2967.47 2341.5 2970.91 2342.53 2974.34 2343.22 2978.13 2343.91L2978.13 2353.19ZM2923.13 2306.44C2925.53 2306.44 2927.59 2306.78 2930 2306.78L2930 2307.13C2930 2311.94 2931.03 2316.75 2933.44 2320.53 2930 2320.53 2926.56 2320.19 2923.13 2319.84L2923.13 2306.44ZM2909.38 2265.19C2913.84 2265.88 2918.31 2266.91 2923.13 2267.25L2923.13 2281C2918.31 2280.31 2913.5 2279.63 2909.38 2278.59L2909.38 2265.19ZM2909.38 2318.47C2904.56 2317.78 2899.75 2317.09 2895.63 2316.06L2895.63 2302.66C2900.09 2303.34 2904.56 2304.38 2909.38 2304.72L2909.38 2318.47ZM2881.88 2262.44 2881.88 2256.25C2886 2258.31 2890.47 2260.03 2895.63 2261.41L2895.63 2274.13C2887.03 2271.03 2881.88 2266.91 2881.88 2262.44ZM2881.88 2311.94C2873.28 2308.5 2868.13 2304.38 2868.13 2300.25L2868.13 2294.06C2872.25 2296.13 2876.72 2297.84 2881.88 2299.22L2881.88 2311.94ZM2868.13 2204.69C2872.25 2206.75 2876.72 2208.47 2881.88 2209.84L2881.88 2222.56C2873.28 2219.13 2868.13 2215 2868.13 2210.88L2868.13 2204.69ZM2909.38 2215.69 2909.38 2229.44C2904.56 2228.75 2899.75 2228.06 2895.63 2227.03L2895.63 2213.63C2900.09 2214.31 2904.56 2215 2909.38 2215.69ZM2943.75 2155.88C2985.69 2155.88 3019.38 2165.16 3019.38 2176.5 3019.38 2187.84 2985.69 2197.13 2943.75 2197.13 2901.81 2197.13 2868.13 2187.84 2868.13 2176.5 2868.13 2165.16 2901.81 2155.88 2943.75 2155.88ZM2964.38 2318.81C2955.78 2315.38 2950.63 2311.25 2950.63 2307.13L2950.63 2300.94C2954.75 2303 2959.22 2304.72 2964.38 2306.09L2964.38 2318.81ZM3005.63 2222.56 3005.63 2210.19C3010.44 2208.81 3015.25 2206.75 3019.38 2204.69L3019.38 2210.88C3019.38 2215.34 3014.22 2219.47 3005.63 2222.56ZM2978.13 2229.09 2978.13 2215.69C2982.59 2215 2987.41 2214.31 2991.88 2213.63L2991.88 2226.69C2987.75 2227.72 2982.94 2228.41 2978.13 2229.09ZM2950.63 2231.5 2950.63 2217.75C2954.75 2217.75 2959.56 2217.41 2964.38 2217.06L2964.38 2230.81C2959.91 2231.16 2955.44 2231.16 2950.63 2231.5ZM2923.13 2230.81 2923.13 2217.06C2927.59 2217.41 2932.06 2217.75 2936.88 2217.75L2936.88 2231.5C2932.06 2231.16 2927.59 2231.16 2923.13 2230.81ZM3101.88 2272.75C3101.88 2284.09 3068.19 2293.38 3026.25 2293.38 2984.31 2293.38 2950.63 2284.09 2950.63 2272.75 2950.63 2261.41 2984.31 2252.13 3026.25 2252.13 3068.19 2252.13 3101.88 2261.41 3101.88 2272.75ZM3122.5 2283.06 3122.5 2272.75C3122.5 2256.59 3109.78 2244.91 3085.03 2238.38 3075.75 2235.97 3065.09 2233.91 3053.06 2232.88 3053.41 2231.5 3053.41 2229.78 3053.41 2228.06 3053.41 2218.44 3048.94 2210.19 3039.66 2204L3039.66 2176.5C3039.66 2160.34 3026.94 2148.66 3002.19 2142.13 2986.03 2137.66 2965.41 2135.25 2943.41 2135.25 2914.53 2135.25 2847.16 2139.38 2847.16 2176.5L2847.16 2210.88C2847.16 2220.5 2851.63 2228.75 2860.91 2234.94L2860.91 2241.47C2852.66 2247.31 2847.16 2255.22 2847.16 2265.88L2847.16 2300.25C2847.16 2316.41 2859.88 2328.09 2884.63 2334.63 2900.78 2339.09 2921.41 2341.5 2943.41 2341.5 2943.41 2357.66 2956.13 2369.34 2980.88 2375.88 2997.03 2380.34 3017.66 2382.75 3039.66 2382.75 3068.53 2382.75 3135.91 2378.63 3135.91 2341.5L3135.91 2307.13C3136.25 2297.5 3131.78 2289.25 3122.5 2283.06Z" stroke="#FFFFFF" stroke-width="3.4375" fill="#404040"/></g></g></g></g></svg>