<svg width="1390" height="865" xmlns="http://www.w3.org/2000/svg" xmlns:xlink="http://www.w3.org/1999/xlink" xml:space="preserve" overflow="hidden"><g transform="translate(-106 -53)"><path d="M109 740C109 691.951 229.435 653 378 653 526.565 653 647 691.951 647 740 647 788.049 526.565 827 378 827 229.435 827 109 788.049 109 740Z" stroke="#262626" stroke-width="5.72917" stroke-linejoin="round" stroke-miterlimit="10" fill="#7F7F7F" fill-rule="evenodd"/><g><g><g><path d="M422.833 263.646C422.833 288.407 402.761 308.479 378 308.479 353.239 308.479 333.167 288.407 333.167 263.646 333.167 238.885 353.239 218.813 378 218.813 402.761 218.813 422.833 238.885 422.833 263.646Z" stroke="#000000" stroke-width="5.60417"/><path d="M500.171 494.538 468.787 361.158C467.667 356.675 465.425 352.192 462.062 348.829 448.612 337.621 432.921 329.775 414.987 324.171 402.658 321.929 390.329 319.688 378 319.688 365.671 319.688 353.342 321.929 341.012 325.292 323.079 329.775 307.387 338.742 293.937 349.95 290.575 353.313 288.333 357.796 287.212 362.279L255.829 495.658C255.829 496.779 254.708 499.021 254.708 501.263 254.708 513.592 264.796 523.679 277.125 523.679 287.212 523.679 296.179 515.833 298.421 506.867L321.958 409.354 321.958 723.188 366.792 723.188 366.792 521.438 389.208 521.438 389.208 723.188 434.042 723.188 434.042 408.233 457.579 505.746C459.821 514.713 468.787 522.558 478.875 522.558 491.204 522.558 501.292 512.471 501.292 500.142 501.292 497.9 500.171 495.658 500.171 494.538Z" stroke="#000000" stroke-width="5.60417"/></g></g></g><text font-family="Rockwell,Rockwell_MSFontService,sans-serif" font-weight="700" font-size="73" transform="matrix(1 0 0 1 352.326 147)">A</text><path d="M956 740C956 691.951 1076.21 653 1224.5 653 1372.79 653 1493 691.951 1493 740 1493 788.049 1372.79 827 1224.5 827 1076.21 827 956 788.049 956 740Z" stroke="#262626" stroke-width="5.72917" stroke-linejoin="round" stroke-miterlimit="10" fill="#7F7F7F" fill-rule="evenodd"/><g><g><g><path d="M313.25 61.5312C313.25 86.246 293.215 106.281 268.5 106.281 243.785 106.281 223.75 86.246 223.75 61.5312 223.75 36.8165 243.785 16.7812 268.5 16.7812 293.215 16.7812 313.25 36.8165 313.25 61.5312Z" stroke="#000000" stroke-width="5.59375" transform="matrix(1 0 0 1.00186 956 202)"/><path d="M390.444 291.994 359.119 158.862C358 154.387 355.762 149.912 352.406 146.556 338.981 135.369 323.319 127.537 305.419 121.944 293.112 119.706 280.806 117.469 268.5 117.469 256.194 117.469 243.887 119.706 231.581 123.062 213.681 127.537 198.019 136.487 184.594 147.675 181.237 151.031 179 155.506 177.881 159.981L146.556 293.112C146.556 294.231 145.437 296.469 145.437 298.706 145.437 311.012 155.506 321.081 167.812 321.081 177.881 321.081 186.831 313.25 189.069 304.3L212.562 206.969 212.562 520.219 257.312 520.219 257.312 318.844 279.687 318.844 279.687 520.219 324.437 520.219 324.437 205.85 347.931 303.181C350.169 312.131 359.119 319.962 369.187 319.962 381.494 319.962 391.562 309.894 391.562 297.587 391.562 295.35 390.444 293.112 390.444 291.994Z" stroke="#000000" stroke-width="5.59375" transform="matrix(1 0 0 1.00186 956 202)"/></g></g></g><text font-family="Rockwell,Rockwell_MSFontService,sans-serif" font-weight="700" font-size="73" transform="matrix(1 0 0 1 1199.19 147)">B</text><g><g><g><path d="M491.625 744.5C491.625 748.969 486.469 753.094 477.875 756.188L477.875 743.813C482.687 742.438 487.5 740.375 491.625 738.313L491.625 744.5ZM464.125 721.813 464.125 709.438C468.937 708.063 473.75 706 477.875 703.938L477.875 710.125C477.875 714.594 472.719 718.719 464.125 721.813ZM464.125 760.313C460 761.344 455.187 762.031 450.375 762.719L450.375 749.313C454.844 748.625 459.656 747.938 464.125 747.25L464.125 760.313ZM436.625 714.938C441.094 714.25 445.906 713.563 450.375 712.875L450.375 725.938C446.25 726.969 441.437 727.656 436.625 728.344L436.625 714.938ZM436.625 764.438C432.156 764.781 427.687 765.125 422.875 765.125L422.875 751.375C427 751.375 431.812 751.031 436.625 750.688L436.625 764.438ZM409.125 730.75 409.125 717C413.25 717 418.062 716.656 422.875 716.313L422.875 730.063C418.406 730.406 413.937 730.406 409.125 730.75ZM409.125 765.125C404.312 765.125 399.844 764.781 395.375 764.438L395.375 751.375C397.781 751.375 399.844 751.375 402.25 751.375 404.312 751.375 406.719 751.375 409.125 751.375L409.125 765.125ZM381.625 716.313C386.094 716.656 390.562 717 395.375 717L395.375 730.75C390.562 730.75 386.094 730.406 381.625 730.063L381.625 716.313ZM381.625 762.719C376.812 762.031 372 761.344 367.875 760.313L367.875 749.313C372.344 750 376.812 750.344 381.625 750.688L381.625 762.719ZM354.125 725.938 354.125 712.531C358.594 713.219 363.062 714.25 367.875 714.594L367.875 728.344C363.062 727.656 358.25 726.969 354.125 725.938ZM354.125 756.188C345.531 752.75 340.375 748.625 340.375 744.5L340.375 743.813C340.375 743.813 340.375 743.813 340.719 743.813 341.75 744.156 342.437 744.5 343.469 744.5 346.906 745.531 350.344 746.219 354.125 746.906L354.125 756.188ZM299.125 709.438C301.531 709.438 303.594 709.781 306 709.781L306 710.125C306 714.938 307.031 719.75 309.437 723.531 306 723.531 302.562 723.188 299.125 722.844L299.125 709.438ZM285.375 668.188C289.844 668.875 294.312 669.906 299.125 670.25L299.125 684C294.312 683.313 289.5 682.625 285.375 681.594L285.375 668.188ZM285.375 721.469C280.562 720.781 275.75 720.094 271.625 719.063L271.625 705.656C276.094 706.344 280.562 707.375 285.375 707.719L285.375 721.469ZM257.875 665.438 257.875 659.25C262 661.313 266.469 663.031 271.625 664.406L271.625 677.125C263.031 674.031 257.875 669.906 257.875 665.438ZM257.875 714.938C249.281 711.5 244.125 707.375 244.125 703.25L244.125 697.063C248.25 699.125 252.719 700.844 257.875 702.219L257.875 714.938ZM244.125 607.688C248.25 609.75 252.719 611.469 257.875 612.844L257.875 625.563C249.281 622.125 244.125 618 244.125 613.875L244.125 607.688ZM285.375 618.688 285.375 632.438C280.562 631.75 275.75 631.063 271.625 630.031L271.625 616.625C276.094 617.313 280.562 618 285.375 618.688ZM319.75 558.875C361.687 558.875 395.375 568.156 395.375 579.5 395.375 590.844 361.687 600.125 319.75 600.125 277.812 600.125 244.125 590.844 244.125 579.5 244.125 568.156 277.812 558.875 319.75 558.875ZM340.375 721.813C331.781 718.375 326.625 714.25 326.625 710.125L326.625 703.938C330.75 706 335.219 707.719 340.375 709.094L340.375 721.813ZM381.625 625.563 381.625 613.188C386.437 611.813 391.25 609.75 395.375 607.688L395.375 613.875C395.375 618.344 390.219 622.469 381.625 625.563ZM354.125 632.094 354.125 618.688C358.594 618 363.406 617.313 367.875 616.625L367.875 629.688C363.75 630.719 358.937 631.406 354.125 632.094ZM326.625 634.5 326.625 620.75C330.75 620.75 335.562 620.406 340.375 620.063L340.375 633.813C335.906 634.156 331.437 634.156 326.625 634.5ZM299.125 633.813 299.125 620.063C303.594 620.406 308.062 620.75 312.875 620.75L312.875 634.5C308.062 634.156 303.594 634.156 299.125 633.813ZM477.875 675.75C477.875 687.094 444.187 696.375 402.25 696.375 360.312 696.375 326.625 687.094 326.625 675.75 326.625 664.406 360.312 655.125 402.25 655.125 444.187 655.125 477.875 664.406 477.875 675.75ZM498.5 686.063 498.5 675.75C498.5 659.594 485.781 647.906 461.031 641.375 451.75 638.969 441.094 636.906 429.062 635.875 429.406 634.5 429.406 632.781 429.406 631.063 429.406 621.438 424.937 613.188 415.656 607L415.656 579.5C415.656 563.344 402.937 551.656 378.187 545.125 362.031 540.656 341.406 538.25 319.406 538.25 290.531 538.25 223.156 542.375 223.156 579.5L223.156 613.875C223.156 623.5 227.625 631.75 236.906 637.938L236.906 644.469C228.656 650.313 223.156 658.219 223.156 668.875L223.156 703.25C223.156 719.406 235.875 731.094 260.625 737.625 276.781 742.094 297.406 744.5 319.406 744.5 319.406 760.656 332.125 772.344 356.875 778.875 373.031 783.344 393.656 785.75 415.656 785.75 444.531 785.75 511.906 781.625 511.906 744.5L511.906 710.125C512.25 700.5 507.781 692.25 498.5 686.063Z" stroke="#FFFFFF" stroke-width="3.4375" fill="#404040"/></g></g></g><g><g><g><path d="M404.625 835.5C404.625 839.969 399.469 844.094 390.875 847.188L390.875 834.813C395.687 833.438 400.5 831.375 404.625 829.313L404.625 835.5ZM377.125 812.813 377.125 800.438C381.937 799.063 386.75 797 390.875 794.938L390.875 801.125C390.875 805.594 385.719 809.719 377.125 812.813ZM377.125 851.313C373 852.344 368.187 853.031 363.375 853.719L363.375 840.313C367.844 839.625 372.656 838.938 377.125 838.25L377.125 851.313ZM349.625 805.938C354.094 805.25 358.906 804.563 363.375 803.875L363.375 816.938C359.25 817.969 354.437 818.656 349.625 819.344L349.625 805.938ZM349.625 855.438C345.156 855.781 340.687 856.125 335.875 856.125L335.875 842.375C340 842.375 344.812 842.031 349.625 841.688L349.625 855.438ZM322.125 821.75 322.125 808C326.25 808 331.062 807.656 335.875 807.313L335.875 821.063C331.406 821.406 326.937 821.406 322.125 821.75ZM322.125 856.125C317.312 856.125 312.844 855.781 308.375 855.438L308.375 842.375C310.781 842.375 312.844 842.375 315.25 842.375 317.312 842.375 319.719 842.375 322.125 842.375L322.125 856.125ZM294.625 807.313C299.094 807.656 303.562 808 308.375 808L308.375 821.75C303.562 821.75 299.094 821.406 294.625 821.063L294.625 807.313ZM294.625 853.719C289.812 853.031 285 852.344 280.875 851.313L280.875 840.313C285.344 841 289.812 841.344 294.625 841.688L294.625 853.719ZM267.125 816.938 267.125 803.531C271.594 804.219 276.062 805.25 280.875 805.594L280.875 819.344C276.062 818.656 271.25 817.969 267.125 816.938ZM267.125 847.188C258.531 843.75 253.375 839.625 253.375 835.5L253.375 834.813C253.375 834.813 253.375 834.813 253.719 834.813 254.75 835.156 255.437 835.5 256.469 835.5 259.906 836.531 263.344 837.219 267.125 837.906L267.125 847.188ZM212.125 800.438C214.531 800.438 216.594 800.781 219 800.781L219 801.125C219 805.938 220.031 810.75 222.437 814.531 219 814.531 215.562 814.188 212.125 813.844L212.125 800.438ZM198.375 759.188C202.844 759.875 207.312 760.906 212.125 761.25L212.125 775C207.312 774.313 202.5 773.625 198.375 772.594L198.375 759.188ZM198.375 812.469C193.562 811.781 188.75 811.094 184.625 810.063L184.625 796.656C189.094 797.344 193.562 798.375 198.375 798.719L198.375 812.469ZM170.875 756.438 170.875 750.25C175 752.313 179.469 754.031 184.625 755.406L184.625 768.125C176.031 765.031 170.875 760.906 170.875 756.438ZM170.875 805.938C162.281 802.5 157.125 798.375 157.125 794.25L157.125 788.063C161.25 790.125 165.719 791.844 170.875 793.219L170.875 805.938ZM157.125 698.688C161.25 700.75 165.719 702.469 170.875 703.844L170.875 716.563C162.281 713.125 157.125 709 157.125 704.875L157.125 698.688ZM198.375 709.688 198.375 723.438C193.562 722.75 188.75 722.063 184.625 721.031L184.625 707.625C189.094 708.313 193.562 709 198.375 709.688ZM232.75 649.875C274.687 649.875 308.375 659.156 308.375 670.5 308.375 681.844 274.687 691.125 232.75 691.125 190.812 691.125 157.125 681.844 157.125 670.5 157.125 659.156 190.812 649.875 232.75 649.875ZM253.375 812.813C244.781 809.375 239.625 805.25 239.625 801.125L239.625 794.938C243.75 797 248.219 798.719 253.375 800.094L253.375 812.813ZM294.625 716.563 294.625 704.188C299.437 702.813 304.25 700.75 308.375 698.688L308.375 704.875C308.375 709.344 303.219 713.469 294.625 716.563ZM267.125 723.094 267.125 709.688C271.594 709 276.406 708.313 280.875 707.625L280.875 720.688C276.75 721.719 271.937 722.406 267.125 723.094ZM239.625 725.5 239.625 711.75C243.75 711.75 248.562 711.406 253.375 711.063L253.375 724.813C248.906 725.156 244.437 725.156 239.625 725.5ZM212.125 724.813 212.125 711.063C216.594 711.406 221.062 711.75 225.875 711.75L225.875 725.5C221.062 725.156 216.594 725.156 212.125 724.813ZM390.875 766.75C390.875 778.094 357.187 787.375 315.25 787.375 273.312 787.375 239.625 778.094 239.625 766.75 239.625 755.406 273.312 746.125 315.25 746.125 357.187 746.125 390.875 755.406 390.875 766.75ZM411.5 777.063 411.5 766.75C411.5 750.594 398.781 738.906 374.031 732.375 364.75 729.969 354.094 727.906 342.062 726.875 342.406 725.5 342.406 723.781 342.406 722.063 342.406 712.438 337.937 704.188 328.656 698L328.656 670.5C328.656 654.344 315.937 642.656 291.187 636.125 275.031 631.656 254.406 629.25 232.406 629.25 203.531 629.25 136.156 633.375 136.156 670.5L136.156 704.875C136.156 714.5 140.625 722.75 149.906 728.938L149.906 735.469C141.656 741.313 136.156 749.219 136.156 759.875L136.156 794.25C136.156 810.406 148.875 822.094 173.625 828.625 189.781 833.094 210.406 835.5 232.406 835.5 232.406 851.656 245.125 863.344 269.875 869.875 286.031 874.344 306.656 876.75 328.656 876.75 357.531 876.75 424.906 872.625 424.906 835.5L424.906 801.125C425.25 791.5 420.781 783.25 411.5 777.063Z" stroke="#FFFFFF" stroke-width="3.4375" fill="#404040"/></g></g></g></g></svg>